<?xml version="1.0" encoding="utf-8" standalone="no"?>
<!DOCTYPE svg PUBLIC "-//W3C//DTD SVG 1.1//EN"
  "http://www.w3.org/Graphics/SVG/1.1/DTD/svg11.dtd">
<svg xmlns:xlink="http://www.w3.org/1999/xlink" width="374.4pt" height="187.2pt" viewBox="0 0 374.4 187.2" xmlns="http://www.w3.org/2000/svg" version="1.1">
 <metadata>
  <rdf:RDF xmlns:dc="http://purl.org/dc/elements/1.1/" xmlns:cc="http://creativecommons.org/ns#" xmlns:rdf="http://www.w3.org/1999/02/22-rdf-syntax-ns#">
   <cc:Work>
    <dc:type rdf:resource="http://purl.org/dc/dcmitype/StillImage"/>
    <dc:date>2022-01-28T09:58:42.640952</dc:date>
    <dc:format>image/svg+xml</dc:format>
    <dc:creator>
     <cc:Agent>
      <dc:title>Matplotlib v3.5.1, https://matplotlib.org/</dc:title>
     </cc:Agent>
    </dc:creator>
   </cc:Work>
  </rdf:RDF>
 </metadata>
 <defs>
  <style type="text/css">*{stroke-linejoin: round; stroke-linecap: butt}</style>
 </defs>
 <g id="figure_1">
  <g id="patch_1">
   <path d="M 0 187.2 
L 374.4 187.2 
L 374.4 0 
L 0 0 
z
" style="fill: #ffffff"/>
  </g>
  <g id="axes_1">
   <g id="patch_2">
    <path d="M 45.7 156.4275 
L 364.220127 156.4275 
L 364.220127 8.64 
L 45.7 8.64 
z
" style="fill: #ffffff"/>
   </g>
   <g id="matplotlib.axis_1">
    <g id="xtick_1">
     <g id="line2d_1"/>
     <g id="text_1">
      <!-- 0 -->
      <g style="fill: #262626" transform="translate(48.613046 165.65375)scale(0.08 -0.08)">
       <defs>
        <path id="ArialMT-30" d="M 266 2259 
Q 266 3072 433 3567 
Q 600 4063 929 4331 
Q 1259 4600 1759 4600 
Q 2128 4600 2406 4451 
Q 2684 4303 2865 4023 
Q 3047 3744 3150 3342 
Q 3253 2941 3253 2259 
Q 3253 1453 3087 958 
Q 2922 463 2592 192 
Q 2263 -78 1759 -78 
Q 1097 -78 719 397 
Q 266 969 266 2259 
z
M 844 2259 
Q 844 1131 1108 757 
Q 1372 384 1759 384 
Q 2147 384 2411 759 
Q 2675 1134 2675 2259 
Q 2675 3391 2411 3762 
Q 2147 4134 1753 4134 
Q 1366 4134 1134 3806 
Q 844 3388 844 2259 
z
" transform="scale(0.015625)"/>
       </defs>
       <use xlink:href="#ArialMT-30"/>
      </g>
     </g>
    </g>
    <g id="xtick_2">
     <g id="line2d_2"/>
     <g id="text_2">
      <!-- 50 -->
      <g style="fill: #262626" transform="translate(97.762886 165.65375)scale(0.08 -0.08)">
       <defs>
        <path id="ArialMT-35" d="M 266 1200 
L 856 1250 
Q 922 819 1161 601 
Q 1400 384 1738 384 
Q 2144 384 2425 690 
Q 2706 997 2706 1503 
Q 2706 1984 2436 2262 
Q 2166 2541 1728 2541 
Q 1456 2541 1237 2417 
Q 1019 2294 894 2097 
L 366 2166 
L 809 4519 
L 3088 4519 
L 3088 3981 
L 1259 3981 
L 1013 2750 
Q 1425 3038 1878 3038 
Q 2478 3038 2890 2622 
Q 3303 2206 3303 1553 
Q 3303 931 2941 478 
Q 2500 -78 1738 -78 
Q 1113 -78 717 272 
Q 322 622 266 1200 
z
" transform="scale(0.015625)"/>
       </defs>
       <use xlink:href="#ArialMT-35"/>
       <use xlink:href="#ArialMT-30" x="55.615234"/>
      </g>
     </g>
    </g>
    <g id="xtick_3">
     <g id="line2d_3"/>
     <g id="text_3">
      <!-- 100 -->
      <g style="fill: #262626" transform="translate(146.912725 165.65375)scale(0.08 -0.08)">
       <defs>
        <path id="ArialMT-31" d="M 2384 0 
L 1822 0 
L 1822 3584 
Q 1619 3391 1289 3197 
Q 959 3003 697 2906 
L 697 3450 
Q 1169 3672 1522 3987 
Q 1875 4303 2022 4600 
L 2384 4600 
L 2384 0 
z
" transform="scale(0.015625)"/>
       </defs>
       <use xlink:href="#ArialMT-31"/>
       <use xlink:href="#ArialMT-30" x="55.615234"/>
       <use xlink:href="#ArialMT-30" x="111.230469"/>
      </g>
     </g>
    </g>
    <g id="xtick_4">
     <g id="line2d_4"/>
     <g id="text_4">
      <!-- 150 -->
      <g style="fill: #262626" transform="translate(198.286939 165.65375)scale(0.08 -0.08)">
       <use xlink:href="#ArialMT-31"/>
       <use xlink:href="#ArialMT-35" x="55.615234"/>
       <use xlink:href="#ArialMT-30" x="111.230469"/>
      </g>
     </g>
    </g>
    <g id="xtick_5">
     <g id="line2d_5"/>
     <g id="text_5">
      <!-- 200 -->
      <g style="fill: #262626" transform="translate(249.661153 165.65375)scale(0.08 -0.08)">
       <defs>
        <path id="ArialMT-32" d="M 3222 541 
L 3222 0 
L 194 0 
Q 188 203 259 391 
Q 375 700 629 1000 
Q 884 1300 1366 1694 
Q 2113 2306 2375 2664 
Q 2638 3022 2638 3341 
Q 2638 3675 2398 3904 
Q 2159 4134 1775 4134 
Q 1369 4134 1125 3890 
Q 881 3647 878 3216 
L 300 3275 
Q 359 3922 746 4261 
Q 1134 4600 1788 4600 
Q 2447 4600 2831 4234 
Q 3216 3869 3216 3328 
Q 3216 3053 3103 2787 
Q 2991 2522 2730 2228 
Q 2469 1934 1863 1422 
Q 1356 997 1212 845 
Q 1069 694 975 541 
L 3222 541 
z
" transform="scale(0.015625)"/>
       </defs>
       <use xlink:href="#ArialMT-32"/>
       <use xlink:href="#ArialMT-30" x="55.615234"/>
       <use xlink:href="#ArialMT-30" x="111.230469"/>
      </g>
     </g>
    </g>
    <g id="xtick_6">
     <g id="line2d_6"/>
     <g id="text_6">
      <!-- 250 -->
      <g style="fill: #262626" transform="translate(301.035367 165.65375)scale(0.08 -0.08)">
       <use xlink:href="#ArialMT-32"/>
       <use xlink:href="#ArialMT-35" x="55.615234"/>
       <use xlink:href="#ArialMT-30" x="111.230469"/>
      </g>
     </g>
    </g>
    <g id="xtick_7">
     <g id="line2d_7"/>
     <g id="text_7">
      <!-- 300 -->
      <g style="fill: #262626" transform="translate(352.409581 165.65375)scale(0.08 -0.08)">
       <defs>
        <path id="ArialMT-33" d="M 269 1209 
L 831 1284 
Q 928 806 1161 595 
Q 1394 384 1728 384 
Q 2125 384 2398 659 
Q 2672 934 2672 1341 
Q 2672 1728 2419 1979 
Q 2166 2231 1775 2231 
Q 1616 2231 1378 2169 
L 1441 2663 
Q 1497 2656 1531 2656 
Q 1891 2656 2178 2843 
Q 2466 3031 2466 3422 
Q 2466 3731 2256 3934 
Q 2047 4138 1716 4138 
Q 1388 4138 1169 3931 
Q 950 3725 888 3313 
L 325 3413 
Q 428 3978 793 4289 
Q 1159 4600 1703 4600 
Q 2078 4600 2393 4439 
Q 2709 4278 2876 4000 
Q 3044 3722 3044 3409 
Q 3044 3113 2884 2869 
Q 2725 2625 2413 2481 
Q 2819 2388 3044 2092 
Q 3269 1797 3269 1353 
Q 3269 753 2831 336 
Q 2394 -81 1725 -81 
Q 1122 -81 723 278 
Q 325 638 269 1209 
z
" transform="scale(0.015625)"/>
       </defs>
       <use xlink:href="#ArialMT-33"/>
       <use xlink:href="#ArialMT-30" x="55.615234"/>
       <use xlink:href="#ArialMT-30" x="111.230469"/>
      </g>
     </g>
    </g>
    <g id="text_8">
     <!-- duration -->
     <g style="fill: #262626" transform="translate(190.506314 176.97)scale(0.08 -0.08)">
      <defs>
       <path id="ArialMT-64" d="M 2575 0 
L 2575 419 
Q 2259 -75 1647 -75 
Q 1250 -75 917 144 
Q 584 363 401 755 
Q 219 1147 219 1656 
Q 219 2153 384 2558 
Q 550 2963 881 3178 
Q 1213 3394 1622 3394 
Q 1922 3394 2156 3267 
Q 2391 3141 2538 2938 
L 2538 4581 
L 3097 4581 
L 3097 0 
L 2575 0 
z
M 797 1656 
Q 797 1019 1065 703 
Q 1334 388 1700 388 
Q 2069 388 2326 689 
Q 2584 991 2584 1609 
Q 2584 2291 2321 2609 
Q 2059 2928 1675 2928 
Q 1300 2928 1048 2622 
Q 797 2316 797 1656 
z
" transform="scale(0.015625)"/>
       <path id="ArialMT-75" d="M 2597 0 
L 2597 488 
Q 2209 -75 1544 -75 
Q 1250 -75 995 37 
Q 741 150 617 320 
Q 494 491 444 738 
Q 409 903 409 1263 
L 409 3319 
L 972 3319 
L 972 1478 
Q 972 1038 1006 884 
Q 1059 663 1231 536 
Q 1403 409 1656 409 
Q 1909 409 2131 539 
Q 2353 669 2445 892 
Q 2538 1116 2538 1541 
L 2538 3319 
L 3100 3319 
L 3100 0 
L 2597 0 
z
" transform="scale(0.015625)"/>
       <path id="ArialMT-72" d="M 416 0 
L 416 3319 
L 922 3319 
L 922 2816 
Q 1116 3169 1280 3281 
Q 1444 3394 1641 3394 
Q 1925 3394 2219 3213 
L 2025 2691 
Q 1819 2813 1613 2813 
Q 1428 2813 1281 2702 
Q 1134 2591 1072 2394 
Q 978 2094 978 1738 
L 978 0 
L 416 0 
z
" transform="scale(0.015625)"/>
       <path id="ArialMT-61" d="M 2588 409 
Q 2275 144 1986 34 
Q 1697 -75 1366 -75 
Q 819 -75 525 192 
Q 231 459 231 875 
Q 231 1119 342 1320 
Q 453 1522 633 1644 
Q 813 1766 1038 1828 
Q 1203 1872 1538 1913 
Q 2219 1994 2541 2106 
Q 2544 2222 2544 2253 
Q 2544 2597 2384 2738 
Q 2169 2928 1744 2928 
Q 1347 2928 1158 2789 
Q 969 2650 878 2297 
L 328 2372 
Q 403 2725 575 2942 
Q 747 3159 1072 3276 
Q 1397 3394 1825 3394 
Q 2250 3394 2515 3294 
Q 2781 3194 2906 3042 
Q 3031 2891 3081 2659 
Q 3109 2516 3109 2141 
L 3109 1391 
Q 3109 606 3145 398 
Q 3181 191 3288 0 
L 2700 0 
Q 2613 175 2588 409 
z
M 2541 1666 
Q 2234 1541 1622 1453 
Q 1275 1403 1131 1340 
Q 988 1278 909 1158 
Q 831 1038 831 891 
Q 831 666 1001 516 
Q 1172 366 1500 366 
Q 1825 366 2078 508 
Q 2331 650 2450 897 
Q 2541 1088 2541 1459 
L 2541 1666 
z
" transform="scale(0.015625)"/>
       <path id="ArialMT-74" d="M 1650 503 
L 1731 6 
Q 1494 -44 1306 -44 
Q 1000 -44 831 53 
Q 663 150 594 308 
Q 525 466 525 972 
L 525 2881 
L 113 2881 
L 113 3319 
L 525 3319 
L 525 4141 
L 1084 4478 
L 1084 3319 
L 1650 3319 
L 1650 2881 
L 1084 2881 
L 1084 941 
Q 1084 700 1114 631 
Q 1144 563 1211 522 
Q 1278 481 1403 481 
Q 1497 481 1650 503 
z
" transform="scale(0.015625)"/>
       <path id="ArialMT-69" d="M 425 3934 
L 425 4581 
L 988 4581 
L 988 3934 
L 425 3934 
z
M 425 0 
L 425 3319 
L 988 3319 
L 988 0 
L 425 0 
z
" transform="scale(0.015625)"/>
       <path id="ArialMT-6f" d="M 213 1659 
Q 213 2581 725 3025 
Q 1153 3394 1769 3394 
Q 2453 3394 2887 2945 
Q 3322 2497 3322 1706 
Q 3322 1066 3130 698 
Q 2938 331 2570 128 
Q 2203 -75 1769 -75 
Q 1072 -75 642 372 
Q 213 819 213 1659 
z
M 791 1659 
Q 791 1022 1069 705 
Q 1347 388 1769 388 
Q 2188 388 2466 706 
Q 2744 1025 2744 1678 
Q 2744 2294 2464 2611 
Q 2184 2928 1769 2928 
Q 1347 2928 1069 2612 
Q 791 2297 791 1659 
z
" transform="scale(0.015625)"/>
       <path id="ArialMT-6e" d="M 422 0 
L 422 3319 
L 928 3319 
L 928 2847 
Q 1294 3394 1984 3394 
Q 2284 3394 2536 3286 
Q 2788 3178 2913 3003 
Q 3038 2828 3088 2588 
Q 3119 2431 3119 2041 
L 3119 0 
L 2556 0 
L 2556 2019 
Q 2556 2363 2490 2533 
Q 2425 2703 2258 2804 
Q 2091 2906 1866 2906 
Q 1506 2906 1245 2678 
Q 984 2450 984 1813 
L 984 0 
L 422 0 
z
" transform="scale(0.015625)"/>
      </defs>
      <use xlink:href="#ArialMT-64"/>
      <use xlink:href="#ArialMT-75" x="55.615234"/>
      <use xlink:href="#ArialMT-72" x="111.230469"/>
      <use xlink:href="#ArialMT-61" x="144.53125"/>
      <use xlink:href="#ArialMT-74" x="200.146484"/>
      <use xlink:href="#ArialMT-69" x="227.929688"/>
      <use xlink:href="#ArialMT-6f" x="250.146484"/>
      <use xlink:href="#ArialMT-6e" x="305.761719"/>
     </g>
    </g>
   </g>
   <g id="matplotlib.axis_2">
    <g id="ytick_1">
     <g id="line2d_8"/>
     <g id="text_9">
      <!-- 0 -->
      <g style="fill: #262626" transform="translate(37.75125 159.290625)scale(0.08 -0.08)">
       <use xlink:href="#ArialMT-30"/>
      </g>
     </g>
    </g>
    <g id="ytick_2">
     <g id="line2d_9"/>
     <g id="text_10">
      <!-- 5000 -->
      <g style="fill: #262626" transform="translate(24.405 138.804787)scale(0.08 -0.08)">
       <use xlink:href="#ArialMT-35"/>
       <use xlink:href="#ArialMT-30" x="55.615234"/>
       <use xlink:href="#ArialMT-30" x="111.230469"/>
       <use xlink:href="#ArialMT-30" x="166.845703"/>
      </g>
     </g>
    </g>
    <g id="ytick_3">
     <g id="line2d_10"/>
     <g id="text_11">
      <!-- 10000 -->
      <g style="fill: #262626" transform="translate(19.95625 118.318949)scale(0.08 -0.08)">
       <use xlink:href="#ArialMT-31"/>
       <use xlink:href="#ArialMT-30" x="55.615234"/>
       <use xlink:href="#ArialMT-30" x="111.230469"/>
       <use xlink:href="#ArialMT-30" x="166.845703"/>
       <use xlink:href="#ArialMT-30" x="222.460938"/>
      </g>
     </g>
    </g>
    <g id="ytick_4">
     <g id="line2d_11"/>
     <g id="text_12">
      <!-- 15000 -->
      <g style="fill: #262626" transform="translate(19.95625 97.83311)scale(0.08 -0.08)">
       <use xlink:href="#ArialMT-31"/>
       <use xlink:href="#ArialMT-35" x="55.615234"/>
       <use xlink:href="#ArialMT-30" x="111.230469"/>
       <use xlink:href="#ArialMT-30" x="166.845703"/>
       <use xlink:href="#ArialMT-30" x="222.460938"/>
      </g>
     </g>
    </g>
    <g id="ytick_5">
     <g id="line2d_12"/>
     <g id="text_13">
      <!-- 20000 -->
      <g style="fill: #262626" transform="translate(19.95625 77.347272)scale(0.08 -0.08)">
       <use xlink:href="#ArialMT-32"/>
       <use xlink:href="#ArialMT-30" x="55.615234"/>
       <use xlink:href="#ArialMT-30" x="111.230469"/>
       <use xlink:href="#ArialMT-30" x="166.845703"/>
       <use xlink:href="#ArialMT-30" x="222.460938"/>
      </g>
     </g>
    </g>
    <g id="ytick_6">
     <g id="line2d_13"/>
     <g id="text_14">
      <!-- 25000 -->
      <g style="fill: #262626" transform="translate(19.95625 56.861434)scale(0.08 -0.08)">
       <use xlink:href="#ArialMT-32"/>
       <use xlink:href="#ArialMT-35" x="55.615234"/>
       <use xlink:href="#ArialMT-30" x="111.230469"/>
       <use xlink:href="#ArialMT-30" x="166.845703"/>
       <use xlink:href="#ArialMT-30" x="222.460938"/>
      </g>
     </g>
    </g>
    <g id="ytick_7">
     <g id="line2d_14"/>
     <g id="text_15">
      <!-- 30000 -->
      <g style="fill: #262626" transform="translate(19.95625 36.375596)scale(0.08 -0.08)">
       <use xlink:href="#ArialMT-33"/>
       <use xlink:href="#ArialMT-30" x="55.615234"/>
       <use xlink:href="#ArialMT-30" x="111.230469"/>
       <use xlink:href="#ArialMT-30" x="166.845703"/>
       <use xlink:href="#ArialMT-30" x="222.460938"/>
      </g>
     </g>
    </g>
    <g id="ytick_8">
     <g id="line2d_15"/>
     <g id="text_16">
      <!-- 35000 -->
      <g style="fill: #262626" transform="translate(19.95625 15.889758)scale(0.08 -0.08)">
       <use xlink:href="#ArialMT-33"/>
       <use xlink:href="#ArialMT-35" x="55.615234"/>
       <use xlink:href="#ArialMT-30" x="111.230469"/>
       <use xlink:href="#ArialMT-30" x="166.845703"/>
       <use xlink:href="#ArialMT-30" x="222.460938"/>
      </g>
     </g>
    </g>
    <g id="text_17">
     <!-- Count -->
     <g style="fill: #262626" transform="translate(14.36625 93.206875)rotate(-90)scale(0.08 -0.08)">
      <defs>
       <path id="ArialMT-43" d="M 3763 1606 
L 4369 1453 
Q 4178 706 3683 314 
Q 3188 -78 2472 -78 
Q 1731 -78 1267 223 
Q 803 525 561 1097 
Q 319 1669 319 2325 
Q 319 3041 592 3573 
Q 866 4106 1370 4382 
Q 1875 4659 2481 4659 
Q 3169 4659 3637 4309 
Q 4106 3959 4291 3325 
L 3694 3184 
Q 3534 3684 3231 3912 
Q 2928 4141 2469 4141 
Q 1941 4141 1586 3887 
Q 1231 3634 1087 3207 
Q 944 2781 944 2328 
Q 944 1744 1114 1308 
Q 1284 872 1643 656 
Q 2003 441 2422 441 
Q 2931 441 3284 734 
Q 3638 1028 3763 1606 
z
" transform="scale(0.015625)"/>
      </defs>
      <use xlink:href="#ArialMT-43"/>
      <use xlink:href="#ArialMT-6f" x="72.216797"/>
      <use xlink:href="#ArialMT-75" x="127.832031"/>
      <use xlink:href="#ArialMT-6e" x="183.447266"/>
      <use xlink:href="#ArialMT-74" x="239.0625"/>
     </g>
    </g>
   </g>
   <g id="patch_3">
    <path d="M 45.7 156.4275 
L 55.974843 156.4275 
L 55.974843 122.121915 
L 45.7 122.121915 
z
" clip-path="url(#pe451ad6593)" style="fill: #808000; stroke: #000000; stroke-width: 0.879273; stroke-linejoin: miter"/>
   </g>
   <g id="patch_4">
    <path d="M 55.974843 156.4275 
L 66.249686 156.4275 
L 66.249686 135.503265 
L 55.974843 135.503265 
z
" clip-path="url(#pe451ad6593)" style="fill: #808000; stroke: #000000; stroke-width: 0.879273; stroke-linejoin: miter"/>
   </g>
   <g id="patch_5">
    <path d="M 66.249686 156.4275 
L 76.524528 156.4275 
L 76.524528 140.075704 
L 66.249686 140.075704 
z
" clip-path="url(#pe451ad6593)" style="fill: #808000; stroke: #000000; stroke-width: 0.879273; stroke-linejoin: miter"/>
   </g>
   <g id="patch_6">
    <path d="M 76.524528 156.4275 
L 86.799371 156.4275 
L 86.799371 129.816396 
L 76.524528 129.816396 
z
" clip-path="url(#pe451ad6593)" style="fill: #808000; stroke: #000000; stroke-width: 0.879273; stroke-linejoin: miter"/>
   </g>
   <g id="patch_7">
    <path d="M 86.799371 156.4275 
L 97.074214 156.4275 
L 97.074214 136.601306 
L 86.799371 136.601306 
z
" clip-path="url(#pe451ad6593)" style="fill: #808000; stroke: #000000; stroke-width: 0.879273; stroke-linejoin: miter"/>
   </g>
   <g id="patch_8">
    <path d="M 97.074214 156.4275 
L 107.349057 156.4275 
L 107.349057 91.73732 
L 97.074214 91.73732 
z
" clip-path="url(#pe451ad6593)" style="fill: #808000; stroke: #000000; stroke-width: 0.879273; stroke-linejoin: miter"/>
   </g>
   <g id="patch_9">
    <path d="M 107.349057 156.4275 
L 117.6239 156.4275 
L 117.6239 131.434777 
L 107.349057 131.434777 
z
" clip-path="url(#pe451ad6593)" style="fill: #808000; stroke: #000000; stroke-width: 0.879273; stroke-linejoin: miter"/>
   </g>
   <g id="patch_10">
    <path d="M 117.6239 156.4275 
L 127.898743 156.4275 
L 127.898743 146.819642 
L 117.6239 146.819642 
z
" clip-path="url(#pe451ad6593)" style="fill: #808000; stroke: #000000; stroke-width: 0.879273; stroke-linejoin: miter"/>
   </g>
   <g id="patch_11">
    <path d="M 127.898743 156.4275 
L 138.173585 156.4275 
L 138.173585 136.232561 
L 127.898743 136.232561 
z
" clip-path="url(#pe451ad6593)" style="fill: #808000; stroke: #000000; stroke-width: 0.879273; stroke-linejoin: miter"/>
   </g>
   <g id="patch_12">
    <path d="M 138.173585 156.4275 
L 148.448428 156.4275 
L 148.448428 154.542803 
L 138.173585 154.542803 
z
" clip-path="url(#pe451ad6593)" style="fill: #808000; stroke: #000000; stroke-width: 0.879273; stroke-linejoin: miter"/>
   </g>
   <g id="patch_13">
    <path d="M 148.448428 156.4275 
L 158.723271 156.4275 
L 158.723271 15.6775 
L 148.448428 15.6775 
z
" clip-path="url(#pe451ad6593)" style="fill: #808000; stroke: #000000; stroke-width: 0.879273; stroke-linejoin: miter"/>
   </g>
   <g id="patch_14">
    <path d="M 158.723271 156.4275 
L 168.998114 156.4275 
L 168.998114 153.75205 
L 158.723271 153.75205 
z
" clip-path="url(#pe451ad6593)" style="fill: #808000; stroke: #000000; stroke-width: 0.879273; stroke-linejoin: miter"/>
   </g>
   <g id="patch_15">
    <path d="M 168.998114 156.4275 
L 179.272957 156.4275 
L 179.272957 153.641426 
L 168.998114 153.641426 
z
" clip-path="url(#pe451ad6593)" style="fill: #808000; stroke: #000000; stroke-width: 0.879273; stroke-linejoin: miter"/>
   </g>
   <g id="patch_16">
    <path d="M 179.272957 156.4275 
L 189.547799 156.4275 
L 189.547799 144.762864 
L 179.272957 144.762864 
z
" clip-path="url(#pe451ad6593)" style="fill: #808000; stroke: #000000; stroke-width: 0.879273; stroke-linejoin: miter"/>
   </g>
   <g id="patch_17">
    <path d="M 189.547799 156.4275 
L 199.822642 156.4275 
L 199.822642 154.809119 
L 189.547799 154.809119 
z
" clip-path="url(#pe451ad6593)" style="fill: #808000; stroke: #000000; stroke-width: 0.879273; stroke-linejoin: miter"/>
   </g>
   <g id="patch_18">
    <path d="M 199.822642 156.4275 
L 210.097485 156.4275 
L 210.097485 123.719811 
L 199.822642 123.719811 
z
" clip-path="url(#pe451ad6593)" style="fill: #808000; stroke: #000000; stroke-width: 0.879273; stroke-linejoin: miter"/>
   </g>
   <g id="patch_19">
    <path d="M 210.097485 156.4275 
L 220.372328 156.4275 
L 220.372328 154.645232 
L 210.097485 154.645232 
z
" clip-path="url(#pe451ad6593)" style="fill: #808000; stroke: #000000; stroke-width: 0.879273; stroke-linejoin: miter"/>
   </g>
   <g id="patch_20">
    <path d="M 220.372328 156.4275 
L 230.647171 156.4275 
L 230.647171 153.584066 
L 220.372328 153.584066 
z
" clip-path="url(#pe451ad6593)" style="fill: #808000; stroke: #000000; stroke-width: 0.879273; stroke-linejoin: miter"/>
   </g>
   <g id="patch_21">
    <path d="M 230.647171 156.4275 
L 240.922014 156.4275 
L 240.922014 153.465248 
L 230.647171 153.465248 
z
" clip-path="url(#pe451ad6593)" style="fill: #808000; stroke: #000000; stroke-width: 0.879273; stroke-linejoin: miter"/>
   </g>
   <g id="patch_22">
    <path d="M 240.922014 156.4275 
L 251.196856 156.4275 
L 251.196856 156.071046 
L 240.922014 156.071046 
z
" clip-path="url(#pe451ad6593)" style="fill: #808000; stroke: #000000; stroke-width: 0.879273; stroke-linejoin: miter"/>
   </g>
   <g id="patch_23">
    <path d="M 251.196856 156.4275 
L 261.471699 156.4275 
L 261.471699 83.91173 
L 251.196856 83.91173 
z
" clip-path="url(#pe451ad6593)" style="fill: #808000; stroke: #000000; stroke-width: 0.879273; stroke-linejoin: miter"/>
   </g>
   <g id="patch_24">
    <path d="M 261.471699 156.4275 
L 271.746542 156.4275 
L 271.746542 156.37014 
L 261.471699 156.37014 
z
" clip-path="url(#pe451ad6593)" style="fill: #808000; stroke: #000000; stroke-width: 0.879273; stroke-linejoin: miter"/>
   </g>
   <g id="patch_25">
    <path d="M 271.746542 156.4275 
L 282.021385 156.4275 
L 282.021385 155.464666 
L 271.746542 155.464666 
z
" clip-path="url(#pe451ad6593)" style="fill: #808000; stroke: #000000; stroke-width: 0.879273; stroke-linejoin: miter"/>
   </g>
   <g id="patch_26">
    <path d="M 282.021385 156.4275 
L 292.296228 156.4275 
L 292.296228 154.219127 
L 282.021385 154.219127 
z
" clip-path="url(#pe451ad6593)" style="fill: #808000; stroke: #000000; stroke-width: 0.879273; stroke-linejoin: miter"/>
   </g>
   <g id="patch_27">
    <path d="M 292.296228 156.4275 
L 302.571071 156.4275 
L 302.571071 156.39882 
L 292.296228 156.39882 
z
" clip-path="url(#pe451ad6593)" style="fill: #808000; stroke: #000000; stroke-width: 0.879273; stroke-linejoin: miter"/>
   </g>
   <g id="patch_28">
    <path d="M 302.571071 156.4275 
L 312.845913 156.4275 
L 312.845913 153.657815 
L 302.571071 153.657815 
z
" clip-path="url(#pe451ad6593)" style="fill: #808000; stroke: #000000; stroke-width: 0.879273; stroke-linejoin: miter"/>
   </g>
   <g id="patch_29">
    <path d="M 312.845913 156.4275 
L 323.120756 156.4275 
L 323.120756 155.620358 
L 312.845913 155.620358 
z
" clip-path="url(#pe451ad6593)" style="fill: #808000; stroke: #000000; stroke-width: 0.879273; stroke-linejoin: miter"/>
   </g>
   <g id="patch_30">
    <path d="M 323.120756 156.4275 
L 333.395599 156.4275 
L 333.395599 156.161184 
L 323.120756 156.161184 
z
" clip-path="url(#pe451ad6593)" style="fill: #808000; stroke: #000000; stroke-width: 0.879273; stroke-linejoin: miter"/>
   </g>
   <g id="patch_31">
    <path d="M 333.395599 156.4275 
L 343.670442 156.4275 
L 343.670442 156.349654 
L 333.395599 156.349654 
z
" clip-path="url(#pe451ad6593)" style="fill: #808000; stroke: #000000; stroke-width: 0.879273; stroke-linejoin: miter"/>
   </g>
   <g id="patch_32">
    <path d="M 343.670442 156.4275 
L 353.945285 156.4275 
L 353.945285 156.337362 
L 343.670442 156.337362 
z
" clip-path="url(#pe451ad6593)" style="fill: #808000; stroke: #000000; stroke-width: 0.879273; stroke-linejoin: miter"/>
   </g>
   <g id="patch_33">
    <path d="M 45.7 156.4275 
L 45.7 8.64 
" style="fill: none; stroke: #262626; stroke-width: 1.25; stroke-linejoin: miter; stroke-linecap: square"/>
   </g>
   <g id="patch_34">
    <path d="M 364.220127 156.4275 
L 364.220127 8.64 
" style="fill: none; stroke: #262626; stroke-width: 1.25; stroke-linejoin: miter; stroke-linecap: square"/>
   </g>
   <g id="patch_35">
    <path d="M 45.7 156.4275 
L 364.220127 156.4275 
" style="fill: none; stroke: #262626; stroke-width: 1.25; stroke-linejoin: miter; stroke-linecap: square"/>
   </g>
   <g id="patch_36">
    <path d="M 45.7 8.64 
L 364.220127 8.64 
" style="fill: none; stroke: #262626; stroke-width: 1.25; stroke-linejoin: miter; stroke-linecap: square"/>
   </g>
  </g>
 </g>
 <defs>
  <clipPath id="pe451ad6593">
   <rect x="45.7" y="8.64" width="318.520127" height="147.7875"/>
  </clipPath>
 </defs>
</svg>
