<?xml version="1.0" encoding="utf-8" standalone="no"?>
<!DOCTYPE svg PUBLIC "-//W3C//DTD SVG 1.1//EN"
  "http://www.w3.org/Graphics/SVG/1.1/DTD/svg11.dtd">
<svg xmlns:xlink="http://www.w3.org/1999/xlink" width="374.4pt" height="259.2pt" viewBox="0 0 374.4 259.2" xmlns="http://www.w3.org/2000/svg" version="1.1">
 <metadata>
  <rdf:RDF xmlns:dc="http://purl.org/dc/elements/1.1/" xmlns:cc="http://creativecommons.org/ns#" xmlns:rdf="http://www.w3.org/1999/02/22-rdf-syntax-ns#">
   <cc:Work>
    <dc:type rdf:resource="http://purl.org/dc/dcmitype/StillImage"/>
    <dc:date>2022-01-28T10:48:22.240291</dc:date>
    <dc:format>image/svg+xml</dc:format>
    <dc:creator>
     <cc:Agent>
      <dc:title>Matplotlib v3.5.1, https://matplotlib.org/</dc:title>
     </cc:Agent>
    </dc:creator>
   </cc:Work>
  </rdf:RDF>
 </metadata>
 <defs>
  <style type="text/css">*{stroke-linejoin: round; stroke-linecap: butt}</style>
 </defs>
 <g id="figure_1">
  <g id="patch_1">
   <path d="M 0 259.2 
L 374.4 259.2 
L 374.4 0 
L 0 0 
z
" style="fill: #ffffff"/>
  </g>
  <g id="axes_1">
   <g id="patch_2">
    <path d="M 45.7 119.70515 
L 282.72 119.70515 
L 282.72 8.64 
L 45.7 8.64 
z
" style="fill: #ffffff"/>
   </g>
   <g id="matplotlib.axis_1">
    <g id="xtick_1">
     <g id="line2d_1">
      <path d="M 45.7 119.70515 
L 45.7 8.64 
" clip-path="url(#p7aa129dc1e)" style="fill: none; stroke: #cccccc; stroke-width: 0.8; stroke-linecap: round"/>
     </g>
     <g id="line2d_2"/>
    </g>
    <g id="xtick_2">
     <g id="line2d_3">
      <path d="M 75.3275 119.70515 
L 75.3275 8.64 
" clip-path="url(#p7aa129dc1e)" style="fill: none; stroke: #cccccc; stroke-width: 0.8; stroke-linecap: round"/>
     </g>
     <g id="line2d_4"/>
    </g>
    <g id="xtick_3">
     <g id="line2d_5">
      <path d="M 104.955 119.70515 
L 104.955 8.64 
" clip-path="url(#p7aa129dc1e)" style="fill: none; stroke: #cccccc; stroke-width: 0.8; stroke-linecap: round"/>
     </g>
     <g id="line2d_6"/>
    </g>
    <g id="xtick_4">
     <g id="line2d_7">
      <path d="M 134.5825 119.70515 
L 134.5825 8.64 
" clip-path="url(#p7aa129dc1e)" style="fill: none; stroke: #cccccc; stroke-width: 0.8; stroke-linecap: round"/>
     </g>
     <g id="line2d_8"/>
    </g>
    <g id="xtick_5">
     <g id="line2d_9">
      <path d="M 164.21 119.70515 
L 164.21 8.64 
" clip-path="url(#p7aa129dc1e)" style="fill: none; stroke: #cccccc; stroke-width: 0.8; stroke-linecap: round"/>
     </g>
     <g id="line2d_10"/>
    </g>
    <g id="xtick_6">
     <g id="line2d_11">
      <path d="M 193.8375 119.70515 
L 193.8375 8.64 
" clip-path="url(#p7aa129dc1e)" style="fill: none; stroke: #cccccc; stroke-width: 0.8; stroke-linecap: round"/>
     </g>
     <g id="line2d_12"/>
    </g>
    <g id="xtick_7">
     <g id="line2d_13">
      <path d="M 223.465 119.70515 
L 223.465 8.64 
" clip-path="url(#p7aa129dc1e)" style="fill: none; stroke: #cccccc; stroke-width: 0.8; stroke-linecap: round"/>
     </g>
     <g id="line2d_14"/>
    </g>
    <g id="xtick_8">
     <g id="line2d_15">
      <path d="M 253.0925 119.70515 
L 253.0925 8.64 
" clip-path="url(#p7aa129dc1e)" style="fill: none; stroke: #cccccc; stroke-width: 0.8; stroke-linecap: round"/>
     </g>
     <g id="line2d_16"/>
    </g>
    <g id="xtick_9">
     <g id="line2d_17">
      <path d="M 282.72 119.70515 
L 282.72 8.64 
" clip-path="url(#p7aa129dc1e)" style="fill: none; stroke: #cccccc; stroke-width: 0.8; stroke-linecap: round"/>
     </g>
     <g id="line2d_18"/>
    </g>
   </g>
   <g id="matplotlib.axis_2">
    <g id="ytick_1">
     <g id="line2d_19"/>
     <g id="text_1">
      <!-- 5000 -->
      <g style="fill: #262626" transform="translate(24.405 118.444041)scale(0.08 -0.08)">
       <defs>
        <path id="ArialMT-35" d="M 266 1200 
L 856 1250 
Q 922 819 1161 601 
Q 1400 384 1738 384 
Q 2144 384 2425 690 
Q 2706 997 2706 1503 
Q 2706 1984 2436 2262 
Q 2166 2541 1728 2541 
Q 1456 2541 1237 2417 
Q 1019 2294 894 2097 
L 366 2166 
L 809 4519 
L 3088 4519 
L 3088 3981 
L 1259 3981 
L 1013 2750 
Q 1425 3038 1878 3038 
Q 2478 3038 2890 2622 
Q 3303 2206 3303 1553 
Q 3303 931 2941 478 
Q 2500 -78 1738 -78 
Q 1113 -78 717 272 
Q 322 622 266 1200 
z
" transform="scale(0.015625)"/>
        <path id="ArialMT-30" d="M 266 2259 
Q 266 3072 433 3567 
Q 600 4063 929 4331 
Q 1259 4600 1759 4600 
Q 2128 4600 2406 4451 
Q 2684 4303 2865 4023 
Q 3047 3744 3150 3342 
Q 3253 2941 3253 2259 
Q 3253 1453 3087 958 
Q 2922 463 2592 192 
Q 2263 -78 1759 -78 
Q 1097 -78 719 397 
Q 266 969 266 2259 
z
M 844 2259 
Q 844 1131 1108 757 
Q 1372 384 1759 384 
Q 2147 384 2411 759 
Q 2675 1134 2675 2259 
Q 2675 3391 2411 3762 
Q 2147 4134 1753 4134 
Q 1366 4134 1134 3806 
Q 844 3388 844 2259 
z
" transform="scale(0.015625)"/>
       </defs>
       <use xlink:href="#ArialMT-35"/>
       <use xlink:href="#ArialMT-30" x="55.615234"/>
       <use xlink:href="#ArialMT-30" x="111.230469"/>
       <use xlink:href="#ArialMT-30" x="166.845703"/>
      </g>
     </g>
    </g>
    <g id="ytick_2">
     <g id="line2d_20"/>
     <g id="text_2">
      <!-- 10000 -->
      <g style="fill: #262626" transform="translate(19.95625 89.381719)scale(0.08 -0.08)">
       <defs>
        <path id="ArialMT-31" d="M 2384 0 
L 1822 0 
L 1822 3584 
Q 1619 3391 1289 3197 
Q 959 3003 697 2906 
L 697 3450 
Q 1169 3672 1522 3987 
Q 1875 4303 2022 4600 
L 2384 4600 
L 2384 0 
z
" transform="scale(0.015625)"/>
       </defs>
       <use xlink:href="#ArialMT-31"/>
       <use xlink:href="#ArialMT-30" x="55.615234"/>
       <use xlink:href="#ArialMT-30" x="111.230469"/>
       <use xlink:href="#ArialMT-30" x="166.845703"/>
       <use xlink:href="#ArialMT-30" x="222.460938"/>
      </g>
     </g>
    </g>
    <g id="ytick_3">
     <g id="line2d_21"/>
     <g id="text_3">
      <!-- 15000 -->
      <g style="fill: #262626" transform="translate(19.95625 60.319398)scale(0.08 -0.08)">
       <use xlink:href="#ArialMT-31"/>
       <use xlink:href="#ArialMT-35" x="55.615234"/>
       <use xlink:href="#ArialMT-30" x="111.230469"/>
       <use xlink:href="#ArialMT-30" x="166.845703"/>
       <use xlink:href="#ArialMT-30" x="222.460938"/>
      </g>
     </g>
    </g>
    <g id="ytick_4">
     <g id="line2d_22"/>
     <g id="text_4">
      <!-- 20000 -->
      <g style="fill: #262626" transform="translate(19.95625 31.257076)scale(0.08 -0.08)">
       <defs>
        <path id="ArialMT-32" d="M 3222 541 
L 3222 0 
L 194 0 
Q 188 203 259 391 
Q 375 700 629 1000 
Q 884 1300 1366 1694 
Q 2113 2306 2375 2664 
Q 2638 3022 2638 3341 
Q 2638 3675 2398 3904 
Q 2159 4134 1775 4134 
Q 1369 4134 1125 3890 
Q 881 3647 878 3216 
L 300 3275 
Q 359 3922 746 4261 
Q 1134 4600 1788 4600 
Q 2447 4600 2831 4234 
Q 3216 3869 3216 3328 
Q 3216 3053 3103 2787 
Q 2991 2522 2730 2228 
Q 2469 1934 1863 1422 
Q 1356 997 1212 845 
Q 1069 694 975 541 
L 3222 541 
z
" transform="scale(0.015625)"/>
       </defs>
       <use xlink:href="#ArialMT-32"/>
       <use xlink:href="#ArialMT-30" x="55.615234"/>
       <use xlink:href="#ArialMT-30" x="111.230469"/>
       <use xlink:href="#ArialMT-30" x="166.845703"/>
       <use xlink:href="#ArialMT-30" x="222.460938"/>
      </g>
     </g>
    </g>
    <g id="text_5">
     <!-- count -->
     <g style="fill: #262626" transform="translate(14.36625 73.95695)rotate(-90)scale(0.08 -0.08)">
      <defs>
       <path id="ArialMT-63" d="M 2588 1216 
L 3141 1144 
Q 3050 572 2676 248 
Q 2303 -75 1759 -75 
Q 1078 -75 664 370 
Q 250 816 250 1647 
Q 250 2184 428 2587 
Q 606 2991 970 3192 
Q 1334 3394 1763 3394 
Q 2303 3394 2647 3120 
Q 2991 2847 3088 2344 
L 2541 2259 
Q 2463 2594 2264 2762 
Q 2066 2931 1784 2931 
Q 1359 2931 1093 2626 
Q 828 2322 828 1663 
Q 828 994 1084 691 
Q 1341 388 1753 388 
Q 2084 388 2306 591 
Q 2528 794 2588 1216 
z
" transform="scale(0.015625)"/>
       <path id="ArialMT-6f" d="M 213 1659 
Q 213 2581 725 3025 
Q 1153 3394 1769 3394 
Q 2453 3394 2887 2945 
Q 3322 2497 3322 1706 
Q 3322 1066 3130 698 
Q 2938 331 2570 128 
Q 2203 -75 1769 -75 
Q 1072 -75 642 372 
Q 213 819 213 1659 
z
M 791 1659 
Q 791 1022 1069 705 
Q 1347 388 1769 388 
Q 2188 388 2466 706 
Q 2744 1025 2744 1678 
Q 2744 2294 2464 2611 
Q 2184 2928 1769 2928 
Q 1347 2928 1069 2612 
Q 791 2297 791 1659 
z
" transform="scale(0.015625)"/>
       <path id="ArialMT-75" d="M 2597 0 
L 2597 488 
Q 2209 -75 1544 -75 
Q 1250 -75 995 37 
Q 741 150 617 320 
Q 494 491 444 738 
Q 409 903 409 1263 
L 409 3319 
L 972 3319 
L 972 1478 
Q 972 1038 1006 884 
Q 1059 663 1231 536 
Q 1403 409 1656 409 
Q 1909 409 2131 539 
Q 2353 669 2445 892 
Q 2538 1116 2538 1541 
L 2538 3319 
L 3100 3319 
L 3100 0 
L 2597 0 
z
" transform="scale(0.015625)"/>
       <path id="ArialMT-6e" d="M 422 0 
L 422 3319 
L 928 3319 
L 928 2847 
Q 1294 3394 1984 3394 
Q 2284 3394 2536 3286 
Q 2788 3178 2913 3003 
Q 3038 2828 3088 2588 
Q 3119 2431 3119 2041 
L 3119 0 
L 2556 0 
L 2556 2019 
Q 2556 2363 2490 2533 
Q 2425 2703 2258 2804 
Q 2091 2906 1866 2906 
Q 1506 2906 1245 2678 
Q 984 2450 984 1813 
L 984 0 
L 422 0 
z
" transform="scale(0.015625)"/>
       <path id="ArialMT-74" d="M 1650 503 
L 1731 6 
Q 1494 -44 1306 -44 
Q 1000 -44 831 53 
Q 663 150 594 308 
Q 525 466 525 972 
L 525 2881 
L 113 2881 
L 113 3319 
L 525 3319 
L 525 4141 
L 1084 4478 
L 1084 3319 
L 1650 3319 
L 1650 2881 
L 1084 2881 
L 1084 941 
Q 1084 700 1114 631 
Q 1144 563 1211 522 
Q 1278 481 1403 481 
Q 1497 481 1650 503 
z
" transform="scale(0.015625)"/>
      </defs>
      <use xlink:href="#ArialMT-63"/>
      <use xlink:href="#ArialMT-6f" x="50"/>
      <use xlink:href="#ArialMT-75" x="105.615234"/>
      <use xlink:href="#ArialMT-6e" x="161.230469"/>
      <use xlink:href="#ArialMT-74" x="216.845703"/>
     </g>
    </g>
   </g>
   <g id="patch_3">
    <path d="M 60.217475 114.656734 
L 90.437525 27.649955 
L 120.065025 29.283258 
L 149.692525 17.199144 
L 179.320025 18.227951 
L 208.947525 41.50687 
L 238.575025 90.622194 
L 268.202525 98.811957 
L 268.202525 97.190279 
L 238.575025 88.942392 
L 208.947525 38.844762 
L 179.320025 15.118282 
L 149.692525 13.688416 
L 120.065025 26.446775 
L 90.437525 25.499344 
L 60.217475 113.627928 
z
" clip-path="url(#p7aa129dc1e)" style="fill: #808080; opacity: 0.5; stroke: #808080; stroke-linejoin: miter"/>
   </g>
   <g id="patch_4">
    <path d="M 60.217475 114.470736 
L 90.437525 27.516269 
L 120.065025 28.550887 
L 149.692525 16.73996 
L 179.320025 17.507205 
L 208.947525 40.861687 
L 238.575025 90.453633 
L 268.202525 98.614333 
L 268.202525 97.463465 
L 238.575025 89.134203 
L 208.947525 39.240009 
L 179.320025 15.519342 
L 149.692525 14.804409 
L 120.065025 26.92921 
L 90.437525 25.667905 
L 60.217475 113.74999 
z
" clip-path="url(#p7aa129dc1e)" style="stroke: #000000; stroke-linejoin: miter"/>
   </g>
   <g id="patch_5">
    <path d="M 45.7 119.70515 
L 45.7 8.64 
" style="fill: none; stroke: #262626; stroke-width: 1.25; stroke-linejoin: miter; stroke-linecap: square"/>
   </g>
   <g id="patch_6">
    <path d="M 282.72 119.70515 
L 282.72 8.64 
" style="fill: none; stroke: #262626; stroke-width: 1.25; stroke-linejoin: miter; stroke-linecap: square"/>
   </g>
   <g id="patch_7">
    <path d="M 45.7 119.70515 
L 282.72 119.70515 
" style="fill: none; stroke: #262626; stroke-width: 1.25; stroke-linejoin: miter; stroke-linecap: square"/>
   </g>
   <g id="patch_8">
    <path d="M 45.7 8.64 
L 282.72 8.64 
" style="fill: none; stroke: #262626; stroke-width: 1.25; stroke-linejoin: miter; stroke-linecap: square"/>
   </g>
   <g id="legend_1">
    <g id="text_6">
     <!-- Legend -->
     <g style="fill: #262626" transform="translate(312.89375 54.1464)scale(0.08 -0.08)">
      <defs>
       <path id="ArialMT-4c" d="M 469 0 
L 469 4581 
L 1075 4581 
L 1075 541 
L 3331 541 
L 3331 0 
L 469 0 
z
" transform="scale(0.015625)"/>
       <path id="ArialMT-65" d="M 2694 1069 
L 3275 997 
Q 3138 488 2766 206 
Q 2394 -75 1816 -75 
Q 1088 -75 661 373 
Q 234 822 234 1631 
Q 234 2469 665 2931 
Q 1097 3394 1784 3394 
Q 2450 3394 2872 2941 
Q 3294 2488 3294 1666 
Q 3294 1616 3291 1516 
L 816 1516 
Q 847 969 1125 678 
Q 1403 388 1819 388 
Q 2128 388 2347 550 
Q 2566 713 2694 1069 
z
M 847 1978 
L 2700 1978 
Q 2663 2397 2488 2606 
Q 2219 2931 1791 2931 
Q 1403 2931 1139 2672 
Q 875 2413 847 1978 
z
" transform="scale(0.015625)"/>
       <path id="ArialMT-67" d="M 319 -275 
L 866 -356 
Q 900 -609 1056 -725 
Q 1266 -881 1628 -881 
Q 2019 -881 2231 -725 
Q 2444 -569 2519 -288 
Q 2563 -116 2559 434 
Q 2191 0 1641 0 
Q 956 0 581 494 
Q 206 988 206 1678 
Q 206 2153 378 2554 
Q 550 2956 876 3175 
Q 1203 3394 1644 3394 
Q 2231 3394 2613 2919 
L 2613 3319 
L 3131 3319 
L 3131 450 
Q 3131 -325 2973 -648 
Q 2816 -972 2473 -1159 
Q 2131 -1347 1631 -1347 
Q 1038 -1347 672 -1080 
Q 306 -813 319 -275 
z
M 784 1719 
Q 784 1066 1043 766 
Q 1303 466 1694 466 
Q 2081 466 2343 764 
Q 2606 1063 2606 1700 
Q 2606 2309 2336 2618 
Q 2066 2928 1684 2928 
Q 1309 2928 1046 2623 
Q 784 2319 784 1719 
z
" transform="scale(0.015625)"/>
       <path id="ArialMT-64" d="M 2575 0 
L 2575 419 
Q 2259 -75 1647 -75 
Q 1250 -75 917 144 
Q 584 363 401 755 
Q 219 1147 219 1656 
Q 219 2153 384 2558 
Q 550 2963 881 3178 
Q 1213 3394 1622 3394 
Q 1922 3394 2156 3267 
Q 2391 3141 2538 2938 
L 2538 4581 
L 3097 4581 
L 3097 0 
L 2575 0 
z
M 797 1656 
Q 797 1019 1065 703 
Q 1334 388 1700 388 
Q 2069 388 2326 689 
Q 2584 991 2584 1609 
Q 2584 2291 2321 2609 
Q 2059 2928 1675 2928 
Q 1300 2928 1048 2622 
Q 797 2316 797 1656 
z
" transform="scale(0.015625)"/>
      </defs>
      <use xlink:href="#ArialMT-4c"/>
      <use xlink:href="#ArialMT-65" x="55.615234"/>
      <use xlink:href="#ArialMT-67" x="111.230469"/>
      <use xlink:href="#ArialMT-65" x="166.845703"/>
      <use xlink:href="#ArialMT-6e" x="222.460938"/>
      <use xlink:href="#ArialMT-64" x="278.076172"/>
     </g>
    </g>
    <g id="line2d_23">
     <path d="M 289.92 62.7564 
L 297.92 62.7564 
L 305.92 62.7564 
" style="fill: none; stroke: #000000; stroke-width: 2; stroke-linecap: round"/>
    </g>
    <g id="text_7">
     <!-- all inscriptions -->
     <g style="fill: #262626" transform="translate(312.32 65.5564)scale(0.08 -0.08)">
      <defs>
       <path id="ArialMT-61" d="M 2588 409 
Q 2275 144 1986 34 
Q 1697 -75 1366 -75 
Q 819 -75 525 192 
Q 231 459 231 875 
Q 231 1119 342 1320 
Q 453 1522 633 1644 
Q 813 1766 1038 1828 
Q 1203 1872 1538 1913 
Q 2219 1994 2541 2106 
Q 2544 2222 2544 2253 
Q 2544 2597 2384 2738 
Q 2169 2928 1744 2928 
Q 1347 2928 1158 2789 
Q 969 2650 878 2297 
L 328 2372 
Q 403 2725 575 2942 
Q 747 3159 1072 3276 
Q 1397 3394 1825 3394 
Q 2250 3394 2515 3294 
Q 2781 3194 2906 3042 
Q 3031 2891 3081 2659 
Q 3109 2516 3109 2141 
L 3109 1391 
Q 3109 606 3145 398 
Q 3181 191 3288 0 
L 2700 0 
Q 2613 175 2588 409 
z
M 2541 1666 
Q 2234 1541 1622 1453 
Q 1275 1403 1131 1340 
Q 988 1278 909 1158 
Q 831 1038 831 891 
Q 831 666 1001 516 
Q 1172 366 1500 366 
Q 1825 366 2078 508 
Q 2331 650 2450 897 
Q 2541 1088 2541 1459 
L 2541 1666 
z
" transform="scale(0.015625)"/>
       <path id="ArialMT-6c" d="M 409 0 
L 409 4581 
L 972 4581 
L 972 0 
L 409 0 
z
" transform="scale(0.015625)"/>
       <path id="ArialMT-20" transform="scale(0.015625)"/>
       <path id="ArialMT-69" d="M 425 3934 
L 425 4581 
L 988 4581 
L 988 3934 
L 425 3934 
z
M 425 0 
L 425 3319 
L 988 3319 
L 988 0 
L 425 0 
z
" transform="scale(0.015625)"/>
       <path id="ArialMT-73" d="M 197 991 
L 753 1078 
Q 800 744 1014 566 
Q 1228 388 1613 388 
Q 2000 388 2187 545 
Q 2375 703 2375 916 
Q 2375 1106 2209 1216 
Q 2094 1291 1634 1406 
Q 1016 1563 777 1677 
Q 538 1791 414 1992 
Q 291 2194 291 2438 
Q 291 2659 392 2848 
Q 494 3038 669 3163 
Q 800 3259 1026 3326 
Q 1253 3394 1513 3394 
Q 1903 3394 2198 3281 
Q 2494 3169 2634 2976 
Q 2775 2784 2828 2463 
L 2278 2388 
Q 2241 2644 2061 2787 
Q 1881 2931 1553 2931 
Q 1166 2931 1000 2803 
Q 834 2675 834 2503 
Q 834 2394 903 2306 
Q 972 2216 1119 2156 
Q 1203 2125 1616 2013 
Q 2213 1853 2448 1751 
Q 2684 1650 2818 1456 
Q 2953 1263 2953 975 
Q 2953 694 2789 445 
Q 2625 197 2315 61 
Q 2006 -75 1616 -75 
Q 969 -75 630 194 
Q 291 463 197 991 
z
" transform="scale(0.015625)"/>
       <path id="ArialMT-72" d="M 416 0 
L 416 3319 
L 922 3319 
L 922 2816 
Q 1116 3169 1280 3281 
Q 1444 3394 1641 3394 
Q 1925 3394 2219 3213 
L 2025 2691 
Q 1819 2813 1613 2813 
Q 1428 2813 1281 2702 
Q 1134 2591 1072 2394 
Q 978 2094 978 1738 
L 978 0 
L 416 0 
z
" transform="scale(0.015625)"/>
       <path id="ArialMT-70" d="M 422 -1272 
L 422 3319 
L 934 3319 
L 934 2888 
Q 1116 3141 1344 3267 
Q 1572 3394 1897 3394 
Q 2322 3394 2647 3175 
Q 2972 2956 3137 2557 
Q 3303 2159 3303 1684 
Q 3303 1175 3120 767 
Q 2938 359 2589 142 
Q 2241 -75 1856 -75 
Q 1575 -75 1351 44 
Q 1128 163 984 344 
L 984 -1272 
L 422 -1272 
z
M 931 1641 
Q 931 1000 1190 694 
Q 1450 388 1819 388 
Q 2194 388 2461 705 
Q 2728 1022 2728 1688 
Q 2728 2322 2467 2637 
Q 2206 2953 1844 2953 
Q 1484 2953 1207 2617 
Q 931 2281 931 1641 
z
" transform="scale(0.015625)"/>
      </defs>
      <use xlink:href="#ArialMT-61"/>
      <use xlink:href="#ArialMT-6c" x="55.615234"/>
      <use xlink:href="#ArialMT-6c" x="77.832031"/>
      <use xlink:href="#ArialMT-20" x="100.048828"/>
      <use xlink:href="#ArialMT-69" x="127.832031"/>
      <use xlink:href="#ArialMT-6e" x="150.048828"/>
      <use xlink:href="#ArialMT-73" x="205.664062"/>
      <use xlink:href="#ArialMT-63" x="255.664062"/>
      <use xlink:href="#ArialMT-72" x="305.664062"/>
      <use xlink:href="#ArialMT-69" x="338.964844"/>
      <use xlink:href="#ArialMT-70" x="361.181641"/>
      <use xlink:href="#ArialMT-74" x="416.796875"/>
      <use xlink:href="#ArialMT-69" x="444.580078"/>
      <use xlink:href="#ArialMT-6f" x="466.796875"/>
      <use xlink:href="#ArialMT-6e" x="522.412109"/>
      <use xlink:href="#ArialMT-73" x="578.027344"/>
     </g>
    </g>
    <g id="line2d_24">
     <path d="M 289.92 74.07265 
L 297.92 74.07265 
L 305.92 74.07265 
" style="fill: none; stroke: #8b0000; stroke-width: 2; stroke-linecap: round"/>
    </g>
    <g id="text_8">
     <!-- large cities -->
     <g style="fill: #262626" transform="translate(312.32 76.87265)scale(0.08 -0.08)">
      <use xlink:href="#ArialMT-6c"/>
      <use xlink:href="#ArialMT-61" x="22.216797"/>
      <use xlink:href="#ArialMT-72" x="77.832031"/>
      <use xlink:href="#ArialMT-67" x="111.132812"/>
      <use xlink:href="#ArialMT-65" x="166.748047"/>
      <use xlink:href="#ArialMT-20" x="222.363281"/>
      <use xlink:href="#ArialMT-63" x="250.146484"/>
      <use xlink:href="#ArialMT-69" x="300.146484"/>
      <use xlink:href="#ArialMT-74" x="322.363281"/>
      <use xlink:href="#ArialMT-69" x="350.146484"/>
      <use xlink:href="#ArialMT-65" x="372.363281"/>
      <use xlink:href="#ArialMT-73" x="427.978516"/>
     </g>
    </g>
    <g id="line2d_25">
     <path d="M 289.92 85.48265 
L 297.92 85.48265 
L 305.92 85.48265 
" style="fill: none; stroke: #006400; stroke-width: 2; stroke-linecap: round"/>
    </g>
    <g id="text_9">
     <!-- medium cities -->
     <g style="fill: #262626" transform="translate(312.32 88.28265)scale(0.08 -0.08)">
      <defs>
       <path id="ArialMT-6d" d="M 422 0 
L 422 3319 
L 925 3319 
L 925 2853 
Q 1081 3097 1340 3245 
Q 1600 3394 1931 3394 
Q 2300 3394 2536 3241 
Q 2772 3088 2869 2813 
Q 3263 3394 3894 3394 
Q 4388 3394 4653 3120 
Q 4919 2847 4919 2278 
L 4919 0 
L 4359 0 
L 4359 2091 
Q 4359 2428 4304 2576 
Q 4250 2725 4106 2815 
Q 3963 2906 3769 2906 
Q 3419 2906 3187 2673 
Q 2956 2441 2956 1928 
L 2956 0 
L 2394 0 
L 2394 2156 
Q 2394 2531 2256 2718 
Q 2119 2906 1806 2906 
Q 1569 2906 1367 2781 
Q 1166 2656 1075 2415 
Q 984 2175 984 1722 
L 984 0 
L 422 0 
z
" transform="scale(0.015625)"/>
      </defs>
      <use xlink:href="#ArialMT-6d"/>
      <use xlink:href="#ArialMT-65" x="83.300781"/>
      <use xlink:href="#ArialMT-64" x="138.916016"/>
      <use xlink:href="#ArialMT-69" x="194.53125"/>
      <use xlink:href="#ArialMT-75" x="216.748047"/>
      <use xlink:href="#ArialMT-6d" x="272.363281"/>
      <use xlink:href="#ArialMT-20" x="355.664062"/>
      <use xlink:href="#ArialMT-63" x="383.447266"/>
      <use xlink:href="#ArialMT-69" x="433.447266"/>
      <use xlink:href="#ArialMT-74" x="455.664062"/>
      <use xlink:href="#ArialMT-69" x="483.447266"/>
      <use xlink:href="#ArialMT-65" x="505.664062"/>
      <use xlink:href="#ArialMT-73" x="561.279297"/>
     </g>
    </g>
    <g id="line2d_26">
     <path d="M 289.92 96.7989 
L 297.92 96.7989 
L 305.92 96.7989 
" style="fill: none; stroke: #00008b; stroke-width: 2; stroke-linecap: round"/>
    </g>
    <g id="text_10">
     <!-- small cities -->
     <g style="fill: #262626" transform="translate(312.32 99.5989)scale(0.08 -0.08)">
      <use xlink:href="#ArialMT-73"/>
      <use xlink:href="#ArialMT-6d" x="50"/>
      <use xlink:href="#ArialMT-61" x="133.300781"/>
      <use xlink:href="#ArialMT-6c" x="188.916016"/>
      <use xlink:href="#ArialMT-6c" x="211.132812"/>
      <use xlink:href="#ArialMT-20" x="233.349609"/>
      <use xlink:href="#ArialMT-63" x="261.132812"/>
      <use xlink:href="#ArialMT-69" x="311.132812"/>
      <use xlink:href="#ArialMT-74" x="333.349609"/>
      <use xlink:href="#ArialMT-69" x="361.132812"/>
      <use xlink:href="#ArialMT-65" x="383.349609"/>
      <use xlink:href="#ArialMT-73" x="438.964844"/>
     </g>
    </g>
    <g id="line2d_27">
     <path d="M 289.92 108.11515 
L 297.92 108.11515 
L 305.92 108.11515 
" style="fill: none; stroke: #800080; stroke-width: 2; stroke-linecap: round"/>
    </g>
    <g id="text_11">
     <!-- rural areas -->
     <g style="fill: #262626" transform="translate(312.32 110.91515)scale(0.08 -0.08)">
      <use xlink:href="#ArialMT-72"/>
      <use xlink:href="#ArialMT-75" x="33.300781"/>
      <use xlink:href="#ArialMT-72" x="88.916016"/>
      <use xlink:href="#ArialMT-61" x="122.216797"/>
      <use xlink:href="#ArialMT-6c" x="177.832031"/>
      <use xlink:href="#ArialMT-20" x="200.048828"/>
      <use xlink:href="#ArialMT-61" x="227.832031"/>
      <use xlink:href="#ArialMT-72" x="283.447266"/>
      <use xlink:href="#ArialMT-65" x="316.748047"/>
      <use xlink:href="#ArialMT-61" x="372.363281"/>
      <use xlink:href="#ArialMT-73" x="427.978516"/>
     </g>
    </g>
   </g>
  </g>
  <g id="axes_2">
   <g id="patch_9">
    <path d="M 45.7 239.74375 
L 282.72 239.74375 
L 282.72 128.6786 
L 45.7 128.6786 
z
" style="fill: #ffffff"/>
   </g>
   <g id="matplotlib.axis_3">
    <g id="xtick_10">
     <g id="line2d_28">
      <path d="M 45.7 239.74375 
L 45.7 128.6786 
" clip-path="url(#p2ffa3927b7)" style="fill: none; stroke: #cccccc; stroke-width: 0.8; stroke-linecap: round"/>
     </g>
     <g id="line2d_29"/>
     <g id="text_12">
      <!-- −50 -->
      <g style="fill: #262626" transform="translate(38.915 248.97)scale(0.08 -0.08)">
       <defs>
        <path id="ArialMT-2212" d="M 3381 1997 
L 356 1997 
L 356 2522 
L 3381 2522 
L 3381 1997 
z
" transform="scale(0.015625)"/>
       </defs>
       <use xlink:href="#ArialMT-2212"/>
       <use xlink:href="#ArialMT-35" x="58.398438"/>
       <use xlink:href="#ArialMT-30" x="114.013672"/>
      </g>
     </g>
    </g>
    <g id="xtick_11">
     <g id="line2d_30">
      <path d="M 75.3275 239.74375 
L 75.3275 128.6786 
" clip-path="url(#p2ffa3927b7)" style="fill: none; stroke: #cccccc; stroke-width: 0.8; stroke-linecap: round"/>
     </g>
     <g id="line2d_31"/>
     <g id="text_13">
      <!-- 0 -->
      <g style="fill: #262626" transform="translate(73.103125 248.97)scale(0.08 -0.08)">
       <use xlink:href="#ArialMT-30"/>
      </g>
     </g>
    </g>
    <g id="xtick_12">
     <g id="line2d_32">
      <path d="M 104.955 239.74375 
L 104.955 128.6786 
" clip-path="url(#p2ffa3927b7)" style="fill: none; stroke: #cccccc; stroke-width: 0.8; stroke-linecap: round"/>
     </g>
     <g id="line2d_33"/>
     <g id="text_14">
      <!-- 50 -->
      <g style="fill: #262626" transform="translate(100.50625 248.97)scale(0.08 -0.08)">
       <use xlink:href="#ArialMT-35"/>
       <use xlink:href="#ArialMT-30" x="55.615234"/>
      </g>
     </g>
    </g>
    <g id="xtick_13">
     <g id="line2d_34">
      <path d="M 134.5825 239.74375 
L 134.5825 128.6786 
" clip-path="url(#p2ffa3927b7)" style="fill: none; stroke: #cccccc; stroke-width: 0.8; stroke-linecap: round"/>
     </g>
     <g id="line2d_35"/>
     <g id="text_15">
      <!-- 100 -->
      <g style="fill: #262626" transform="translate(127.909375 248.97)scale(0.08 -0.08)">
       <use xlink:href="#ArialMT-31"/>
       <use xlink:href="#ArialMT-30" x="55.615234"/>
       <use xlink:href="#ArialMT-30" x="111.230469"/>
      </g>
     </g>
    </g>
    <g id="xtick_14">
     <g id="line2d_36">
      <path d="M 164.21 239.74375 
L 164.21 128.6786 
" clip-path="url(#p2ffa3927b7)" style="fill: none; stroke: #cccccc; stroke-width: 0.8; stroke-linecap: round"/>
     </g>
     <g id="line2d_37"/>
     <g id="text_16">
      <!-- 150 -->
      <g style="fill: #262626" transform="translate(157.536875 248.97)scale(0.08 -0.08)">
       <use xlink:href="#ArialMT-31"/>
       <use xlink:href="#ArialMT-35" x="55.615234"/>
       <use xlink:href="#ArialMT-30" x="111.230469"/>
      </g>
     </g>
    </g>
    <g id="xtick_15">
     <g id="line2d_38">
      <path d="M 193.8375 239.74375 
L 193.8375 128.6786 
" clip-path="url(#p2ffa3927b7)" style="fill: none; stroke: #cccccc; stroke-width: 0.8; stroke-linecap: round"/>
     </g>
     <g id="line2d_39"/>
     <g id="text_17">
      <!-- 200 -->
      <g style="fill: #262626" transform="translate(187.164375 248.97)scale(0.08 -0.08)">
       <use xlink:href="#ArialMT-32"/>
       <use xlink:href="#ArialMT-30" x="55.615234"/>
       <use xlink:href="#ArialMT-30" x="111.230469"/>
      </g>
     </g>
    </g>
    <g id="xtick_16">
     <g id="line2d_40">
      <path d="M 223.465 239.74375 
L 223.465 128.6786 
" clip-path="url(#p2ffa3927b7)" style="fill: none; stroke: #cccccc; stroke-width: 0.8; stroke-linecap: round"/>
     </g>
     <g id="line2d_41"/>
     <g id="text_18">
      <!-- 250 -->
      <g style="fill: #262626" transform="translate(216.791875 248.97)scale(0.08 -0.08)">
       <use xlink:href="#ArialMT-32"/>
       <use xlink:href="#ArialMT-35" x="55.615234"/>
       <use xlink:href="#ArialMT-30" x="111.230469"/>
      </g>
     </g>
    </g>
    <g id="xtick_17">
     <g id="line2d_42">
      <path d="M 253.0925 239.74375 
L 253.0925 128.6786 
" clip-path="url(#p2ffa3927b7)" style="fill: none; stroke: #cccccc; stroke-width: 0.8; stroke-linecap: round"/>
     </g>
     <g id="line2d_43"/>
     <g id="text_19">
      <!-- 300 -->
      <g style="fill: #262626" transform="translate(246.419375 248.97)scale(0.08 -0.08)">
       <defs>
        <path id="ArialMT-33" d="M 269 1209 
L 831 1284 
Q 928 806 1161 595 
Q 1394 384 1728 384 
Q 2125 384 2398 659 
Q 2672 934 2672 1341 
Q 2672 1728 2419 1979 
Q 2166 2231 1775 2231 
Q 1616 2231 1378 2169 
L 1441 2663 
Q 1497 2656 1531 2656 
Q 1891 2656 2178 2843 
Q 2466 3031 2466 3422 
Q 2466 3731 2256 3934 
Q 2047 4138 1716 4138 
Q 1388 4138 1169 3931 
Q 950 3725 888 3313 
L 325 3413 
Q 428 3978 793 4289 
Q 1159 4600 1703 4600 
Q 2078 4600 2393 4439 
Q 2709 4278 2876 4000 
Q 3044 3722 3044 3409 
Q 3044 3113 2884 2869 
Q 2725 2625 2413 2481 
Q 2819 2388 3044 2092 
Q 3269 1797 3269 1353 
Q 3269 753 2831 336 
Q 2394 -81 1725 -81 
Q 1122 -81 723 278 
Q 325 638 269 1209 
z
" transform="scale(0.015625)"/>
       </defs>
       <use xlink:href="#ArialMT-33"/>
       <use xlink:href="#ArialMT-30" x="55.615234"/>
       <use xlink:href="#ArialMT-30" x="111.230469"/>
      </g>
     </g>
    </g>
    <g id="xtick_18">
     <g id="line2d_44">
      <path d="M 282.72 239.74375 
L 282.72 128.6786 
" clip-path="url(#p2ffa3927b7)" style="fill: none; stroke: #cccccc; stroke-width: 0.8; stroke-linecap: round"/>
     </g>
     <g id="line2d_45"/>
     <g id="text_20">
      <!-- 350 -->
      <g style="fill: #262626" transform="translate(276.046875 248.97)scale(0.08 -0.08)">
       <use xlink:href="#ArialMT-33"/>
       <use xlink:href="#ArialMT-35" x="55.615234"/>
       <use xlink:href="#ArialMT-30" x="111.230469"/>
      </g>
     </g>
    </g>
   </g>
   <g id="matplotlib.axis_4">
    <g id="ytick_5">
     <g id="line2d_46"/>
     <g id="text_21">
      <!-- 2000 -->
      <g style="fill: #262626" transform="translate(24.405 216.527532)scale(0.08 -0.08)">
       <use xlink:href="#ArialMT-32"/>
       <use xlink:href="#ArialMT-30" x="55.615234"/>
       <use xlink:href="#ArialMT-30" x="111.230469"/>
       <use xlink:href="#ArialMT-30" x="166.845703"/>
      </g>
     </g>
    </g>
    <g id="ytick_6">
     <g id="line2d_47"/>
     <g id="text_22">
      <!-- 4000 -->
      <g style="fill: #262626" transform="translate(24.405 188.145713)scale(0.08 -0.08)">
       <defs>
        <path id="ArialMT-34" d="M 2069 0 
L 2069 1097 
L 81 1097 
L 81 1613 
L 2172 4581 
L 2631 4581 
L 2631 1613 
L 3250 1613 
L 3250 1097 
L 2631 1097 
L 2631 0 
L 2069 0 
z
M 2069 1613 
L 2069 3678 
L 634 1613 
L 2069 1613 
z
" transform="scale(0.015625)"/>
       </defs>
       <use xlink:href="#ArialMT-34"/>
       <use xlink:href="#ArialMT-30" x="55.615234"/>
       <use xlink:href="#ArialMT-30" x="111.230469"/>
       <use xlink:href="#ArialMT-30" x="166.845703"/>
      </g>
     </g>
    </g>
    <g id="ytick_7">
     <g id="line2d_48"/>
     <g id="text_23">
      <!-- 6000 -->
      <g style="fill: #262626" transform="translate(24.405 159.763895)scale(0.08 -0.08)">
       <defs>
        <path id="ArialMT-36" d="M 3184 3459 
L 2625 3416 
Q 2550 3747 2413 3897 
Q 2184 4138 1850 4138 
Q 1581 4138 1378 3988 
Q 1113 3794 959 3422 
Q 806 3050 800 2363 
Q 1003 2672 1297 2822 
Q 1591 2972 1913 2972 
Q 2475 2972 2870 2558 
Q 3266 2144 3266 1488 
Q 3266 1056 3080 686 
Q 2894 316 2569 119 
Q 2244 -78 1831 -78 
Q 1128 -78 684 439 
Q 241 956 241 2144 
Q 241 3472 731 4075 
Q 1159 4600 1884 4600 
Q 2425 4600 2770 4297 
Q 3116 3994 3184 3459 
z
M 888 1484 
Q 888 1194 1011 928 
Q 1134 663 1356 523 
Q 1578 384 1822 384 
Q 2178 384 2434 671 
Q 2691 959 2691 1453 
Q 2691 1928 2437 2201 
Q 2184 2475 1800 2475 
Q 1419 2475 1153 2201 
Q 888 1928 888 1484 
z
" transform="scale(0.015625)"/>
       </defs>
       <use xlink:href="#ArialMT-36"/>
       <use xlink:href="#ArialMT-30" x="55.615234"/>
       <use xlink:href="#ArialMT-30" x="111.230469"/>
       <use xlink:href="#ArialMT-30" x="166.845703"/>
      </g>
     </g>
    </g>
    <g id="text_24">
     <!-- count -->
     <g style="fill: #262626" transform="translate(18.815 193.99555)rotate(-90)scale(0.08 -0.08)">
      <use xlink:href="#ArialMT-63"/>
      <use xlink:href="#ArialMT-6f" x="50"/>
      <use xlink:href="#ArialMT-75" x="105.615234"/>
      <use xlink:href="#ArialMT-6e" x="161.230469"/>
      <use xlink:href="#ArialMT-74" x="216.845703"/>
     </g>
    </g>
   </g>
   <g id="patch_10">
    <path d="M 60.217475 219.667161 
L 90.437525 141.588779 
L 120.065025 173.660234 
L 149.692525 154.005825 
L 179.320025 178.456761 
L 208.947525 201.644707 
L 238.575025 213.352207 
L 268.202525 165.926188 
L 268.202525 162.477797 
L 238.575025 211.024898 
L 208.947525 199.51607 
L 179.320025 176.001734 
L 149.692525 150.458097 
L 120.065025 170.736907 
L 90.437525 139.091179 
L 60.217475 218.006825 
z
" clip-path="url(#p2ffa3927b7)" style="fill: #808080; opacity: 0.5; stroke: #808080; stroke-linejoin: miter"/>
   </g>
   <g id="patch_11">
    <path d="M 60.217475 219.425916 
L 90.437525 141.276579 
L 120.065025 173.248697 
L 149.692525 152.955697 
L 179.320025 178.272279 
L 208.947525 201.176407 
L 238.575025 212.571707 
L 268.202525 165.315979 
L 268.202525 163.102197 
L 238.575025 211.280334 
L 208.947525 199.743125 
L 179.320025 176.41327 
L 149.692525 151.011543 
L 120.065025 171.304543 
L 90.437525 139.502716 
L 60.217475 218.446743 
z
" clip-path="url(#p2ffa3927b7)" style="fill: #8b0000; stroke: #8b0000; stroke-linejoin: miter"/>
   </g>
   <g id="patch_12">
    <path d="M 60.217475 222.760779 
L 90.437525 160.973561 
L 120.065025 137.331506 
L 149.692525 179.081161 
L 179.320025 166.451252 
L 208.947525 181.805816 
L 238.575025 209.903816 
L 268.202525 229.146689 
L 268.202525 227.344443 
L 238.575025 207.335261 
L 208.947525 179.322407 
L 179.320025 163.088007 
L 149.692525 175.930779 
L 120.065025 133.727016 
L 90.437525 157.36907 
L 60.217475 221.143016 
z
" clip-path="url(#p2ffa3927b7)" style="fill: #808080; opacity: 0.5; stroke: #808080; stroke-linejoin: miter"/>
   </g>
   <g id="patch_13">
    <path d="M 60.217475 222.533725 
L 90.437525 160.33497 
L 120.065025 136.877397 
L 149.692525 178.556098 
L 179.320025 165.571416 
L 208.947525 181.280752 
L 238.575025 209.421325 
L 268.202525 228.635816 
L 268.202525 227.528925 
L 238.575025 207.661652 
L 208.947525 179.549461 
L 179.320025 163.513734 
L 149.692525 176.41327 
L 120.065025 134.493325 
L 90.437525 157.922516 
L 60.217475 221.554552 
z
" clip-path="url(#p2ffa3927b7)" style="fill: #006400; stroke: #006400; stroke-linejoin: miter"/>
   </g>
   <g id="patch_14">
    <path d="M 60.217475 221.597125 
L 90.437525 187.070643 
L 120.065025 188.801934 
L 149.692525 178.91087 
L 179.320025 177.236343 
L 208.947525 182.997852 
L 238.575025 218.319025 
L 268.202525 234.695334 
L 268.202525 233.70197 
L 238.575025 215.764661 
L 208.947525 180.528634 
L 179.320025 174.355588 
L 149.692525 175.221234 
L 120.065025 186.602343 
L 90.437525 184.06217 
L 60.217475 220.220607 
z
" clip-path="url(#p2ffa3927b7)" style="fill: #808080; opacity: 0.5; stroke: #808080; stroke-linejoin: miter"/>
   </g>
   <g id="patch_15">
    <path d="M 60.217475 221.270734 
L 90.437525 186.389479 
L 120.065025 188.674216 
L 149.692525 178.158752 
L 179.320025 176.498416 
L 208.947525 182.643079 
L 238.575025 217.581098 
L 268.202525 234.581807 
L 268.202525 233.872261 
L 238.575025 216.204579 
L 208.947525 180.968552 
L 179.320025 174.511688 
L 149.692525 175.831443 
L 120.065025 186.772634 
L 90.437525 184.516279 
L 60.217475 220.291561 
z
" clip-path="url(#p2ffa3927b7)" style="fill: #00008b; stroke: #00008b; stroke-linejoin: miter"/>
   </g>
   <g id="patch_16">
    <path d="M 60.217475 232.467361 
L 90.437525 196.465025 
L 120.065025 188.134961 
L 149.692525 148.542325 
L 179.320025 139.971016 
L 208.947525 151.891379 
L 238.575025 198.196316 
L 268.202525 228.735152 
L 268.202525 227.387016 
L 238.575025 195.315561 
L 208.947525 148.485561 
L 179.320025 135.82727 
L 149.692525 144.980406 
L 120.065025 185.637361 
L 90.437525 193.626843 
L 60.217475 231.50238 
z
" clip-path="url(#p2ffa3927b7)" style="fill: #808080; opacity: 0.5; stroke: #808080; stroke-linejoin: miter"/>
   </g>
   <g id="patch_17">
    <path d="M 60.217475 232.268689 
L 90.437525 195.76967 
L 120.065025 187.922098 
L 149.692525 148.116597 
L 179.320025 139.289852 
L 208.947525 151.394697 
L 238.575025 197.543534 
L 268.202525 228.366189 
L 268.202525 227.543116 
L 238.575025 195.897388 
L 208.947525 148.655852 
L 179.320025 136.380716 
L 149.692525 145.434516 
L 120.065025 185.850225 
L 90.437525 193.981616 
L 60.217475 231.67267 
z
" clip-path="url(#p2ffa3927b7)" style="fill: #800080; stroke: #800080; stroke-linejoin: miter"/>
   </g>
   <g id="patch_18">
    <path d="M 45.7 239.74375 
L 45.7 128.6786 
" style="fill: none; stroke: #262626; stroke-width: 1.25; stroke-linejoin: miter; stroke-linecap: square"/>
   </g>
   <g id="patch_19">
    <path d="M 282.72 239.74375 
L 282.72 128.6786 
" style="fill: none; stroke: #262626; stroke-width: 1.25; stroke-linejoin: miter; stroke-linecap: square"/>
   </g>
   <g id="patch_20">
    <path d="M 45.7 239.74375 
L 282.72 239.74375 
" style="fill: none; stroke: #262626; stroke-width: 1.25; stroke-linejoin: miter; stroke-linecap: square"/>
   </g>
   <g id="patch_21">
    <path d="M 45.7 128.6786 
L 282.72 128.6786 
" style="fill: none; stroke: #262626; stroke-width: 1.25; stroke-linejoin: miter; stroke-linecap: square"/>
   </g>
  </g>
 </g>
 <defs>
  <clipPath id="p7aa129dc1e">
   <rect x="45.7" y="8.64" width="237.02" height="111.06515"/>
  </clipPath>
  <clipPath id="p2ffa3927b7">
   <rect x="45.7" y="128.6786" width="237.02" height="111.06515"/>
  </clipPath>
 </defs>
</svg>
