<?xml version="1.0" encoding="utf-8" standalone="no"?>
<!DOCTYPE svg PUBLIC "-//W3C//DTD SVG 1.1//EN"
  "http://www.w3.org/Graphics/SVG/1.1/DTD/svg11.dtd">
<svg xmlns:xlink="http://www.w3.org/1999/xlink" width="374.4pt" height="288pt" viewBox="0 0 374.4 288" xmlns="http://www.w3.org/2000/svg" version="1.1">
 <metadata>
  <rdf:RDF xmlns:dc="http://purl.org/dc/elements/1.1/" xmlns:cc="http://creativecommons.org/ns#" xmlns:rdf="http://www.w3.org/1999/02/22-rdf-syntax-ns#">
   <cc:Work>
    <dc:type rdf:resource="http://purl.org/dc/dcmitype/StillImage"/>
    <dc:date>2021-12-21T13:22:19.352943</dc:date>
    <dc:format>image/svg+xml</dc:format>
    <dc:creator>
     <cc:Agent>
      <dc:title>Matplotlib v3.5.0, https://matplotlib.org/</dc:title>
     </cc:Agent>
    </dc:creator>
   </cc:Work>
  </rdf:RDF>
 </metadata>
 <defs>
  <style type="text/css">*{stroke-linejoin: round; stroke-linecap: butt}</style>
 </defs>
 <g id="figure_1">
  <g id="patch_1">
   <path d="M 0 288 
L 374.4 288 
L 374.4 0 
L 0 0 
z
" style="fill: #ffffff"/>
  </g>
  <g id="axes_1">
   <g id="patch_2">
    <path d="M 45.7 257.2275 
L 359.086875 257.2275 
L 359.086875 8.64 
L 45.7 8.64 
z
" style="fill: #ffffff"/>
   </g>
   <g id="matplotlib.axis_1">
    <g id="xtick_1">
     <g id="line2d_1"/>
     <g id="text_1">
      <!-- −50 -->
      <g style="fill: #262626" transform="translate(38.915 266.45375)scale(0.08 -0.08)">
       <defs>
        <path id="ArialMT-2212" d="M 3381 1997 
L 356 1997 
L 356 2522 
L 3381 2522 
L 3381 1997 
z
" transform="scale(0.015625)"/>
        <path id="ArialMT-35" d="M 266 1200 
L 856 1250 
Q 922 819 1161 601 
Q 1400 384 1738 384 
Q 2144 384 2425 690 
Q 2706 997 2706 1503 
Q 2706 1984 2436 2262 
Q 2166 2541 1728 2541 
Q 1456 2541 1237 2417 
Q 1019 2294 894 2097 
L 366 2166 
L 809 4519 
L 3088 4519 
L 3088 3981 
L 1259 3981 
L 1013 2750 
Q 1425 3038 1878 3038 
Q 2478 3038 2890 2622 
Q 3303 2206 3303 1553 
Q 3303 931 2941 478 
Q 2500 -78 1738 -78 
Q 1113 -78 717 272 
Q 322 622 266 1200 
z
" transform="scale(0.015625)"/>
        <path id="ArialMT-30" d="M 266 2259 
Q 266 3072 433 3567 
Q 600 4063 929 4331 
Q 1259 4600 1759 4600 
Q 2128 4600 2406 4451 
Q 2684 4303 2865 4023 
Q 3047 3744 3150 3342 
Q 3253 2941 3253 2259 
Q 3253 1453 3087 958 
Q 2922 463 2592 192 
Q 2263 -78 1759 -78 
Q 1097 -78 719 397 
Q 266 969 266 2259 
z
M 844 2259 
Q 844 1131 1108 757 
Q 1372 384 1759 384 
Q 2147 384 2411 759 
Q 2675 1134 2675 2259 
Q 2675 3391 2411 3762 
Q 2147 4134 1753 4134 
Q 1366 4134 1134 3806 
Q 844 3388 844 2259 
z
" transform="scale(0.015625)"/>
       </defs>
       <use xlink:href="#ArialMT-2212"/>
       <use xlink:href="#ArialMT-35" x="58.398438"/>
       <use xlink:href="#ArialMT-30" x="114.013672"/>
      </g>
     </g>
    </g>
    <g id="xtick_2">
     <g id="line2d_2"/>
     <g id="text_2">
      <!-- 0 -->
      <g style="fill: #262626" transform="translate(82.648984 266.45375)scale(0.08 -0.08)">
       <use xlink:href="#ArialMT-30"/>
      </g>
     </g>
    </g>
    <g id="xtick_3">
     <g id="line2d_3"/>
     <g id="text_3">
      <!-- 50 -->
      <g style="fill: #262626" transform="translate(119.597969 266.45375)scale(0.08 -0.08)">
       <use xlink:href="#ArialMT-35"/>
       <use xlink:href="#ArialMT-30" x="55.615234"/>
      </g>
     </g>
    </g>
    <g id="xtick_4">
     <g id="line2d_4"/>
     <g id="text_4">
      <!-- 100 -->
      <g style="fill: #262626" transform="translate(156.546953 266.45375)scale(0.08 -0.08)">
       <defs>
        <path id="ArialMT-31" d="M 2384 0 
L 1822 0 
L 1822 3584 
Q 1619 3391 1289 3197 
Q 959 3003 697 2906 
L 697 3450 
Q 1169 3672 1522 3987 
Q 1875 4303 2022 4600 
L 2384 4600 
L 2384 0 
z
" transform="scale(0.015625)"/>
       </defs>
       <use xlink:href="#ArialMT-31"/>
       <use xlink:href="#ArialMT-30" x="55.615234"/>
       <use xlink:href="#ArialMT-30" x="111.230469"/>
      </g>
     </g>
    </g>
    <g id="xtick_5">
     <g id="line2d_5"/>
     <g id="text_5">
      <!-- 150 -->
      <g style="fill: #262626" transform="translate(195.720313 266.45375)scale(0.08 -0.08)">
       <use xlink:href="#ArialMT-31"/>
       <use xlink:href="#ArialMT-35" x="55.615234"/>
       <use xlink:href="#ArialMT-30" x="111.230469"/>
      </g>
     </g>
    </g>
    <g id="xtick_6">
     <g id="line2d_6"/>
     <g id="text_6">
      <!-- 200 -->
      <g style="fill: #262626" transform="translate(234.893672 266.45375)scale(0.08 -0.08)">
       <defs>
        <path id="ArialMT-32" d="M 3222 541 
L 3222 0 
L 194 0 
Q 188 203 259 391 
Q 375 700 629 1000 
Q 884 1300 1366 1694 
Q 2113 2306 2375 2664 
Q 2638 3022 2638 3341 
Q 2638 3675 2398 3904 
Q 2159 4134 1775 4134 
Q 1369 4134 1125 3890 
Q 881 3647 878 3216 
L 300 3275 
Q 359 3922 746 4261 
Q 1134 4600 1788 4600 
Q 2447 4600 2831 4234 
Q 3216 3869 3216 3328 
Q 3216 3053 3103 2787 
Q 2991 2522 2730 2228 
Q 2469 1934 1863 1422 
Q 1356 997 1212 845 
Q 1069 694 975 541 
L 3222 541 
z
" transform="scale(0.015625)"/>
       </defs>
       <use xlink:href="#ArialMT-32"/>
       <use xlink:href="#ArialMT-30" x="55.615234"/>
       <use xlink:href="#ArialMT-30" x="111.230469"/>
      </g>
     </g>
    </g>
    <g id="xtick_7">
     <g id="line2d_7"/>
     <g id="text_7">
      <!-- 250 -->
      <g style="fill: #262626" transform="translate(274.067031 266.45375)scale(0.08 -0.08)">
       <use xlink:href="#ArialMT-32"/>
       <use xlink:href="#ArialMT-35" x="55.615234"/>
       <use xlink:href="#ArialMT-30" x="111.230469"/>
      </g>
     </g>
    </g>
    <g id="xtick_8">
     <g id="line2d_8"/>
     <g id="text_8">
      <!-- 300 -->
      <g style="fill: #262626" transform="translate(313.240391 266.45375)scale(0.08 -0.08)">
       <defs>
        <path id="ArialMT-33" d="M 269 1209 
L 831 1284 
Q 928 806 1161 595 
Q 1394 384 1728 384 
Q 2125 384 2398 659 
Q 2672 934 2672 1341 
Q 2672 1728 2419 1979 
Q 2166 2231 1775 2231 
Q 1616 2231 1378 2169 
L 1441 2663 
Q 1497 2656 1531 2656 
Q 1891 2656 2178 2843 
Q 2466 3031 2466 3422 
Q 2466 3731 2256 3934 
Q 2047 4138 1716 4138 
Q 1388 4138 1169 3931 
Q 950 3725 888 3313 
L 325 3413 
Q 428 3978 793 4289 
Q 1159 4600 1703 4600 
Q 2078 4600 2393 4439 
Q 2709 4278 2876 4000 
Q 3044 3722 3044 3409 
Q 3044 3113 2884 2869 
Q 2725 2625 2413 2481 
Q 2819 2388 3044 2092 
Q 3269 1797 3269 1353 
Q 3269 753 2831 336 
Q 2394 -81 1725 -81 
Q 1122 -81 723 278 
Q 325 638 269 1209 
z
" transform="scale(0.015625)"/>
       </defs>
       <use xlink:href="#ArialMT-33"/>
       <use xlink:href="#ArialMT-30" x="55.615234"/>
       <use xlink:href="#ArialMT-30" x="111.230469"/>
      </g>
     </g>
    </g>
    <g id="xtick_9">
     <g id="line2d_9"/>
     <g id="text_9">
      <!-- 350 -->
      <g style="fill: #262626" transform="translate(352.41375 266.45375)scale(0.08 -0.08)">
       <use xlink:href="#ArialMT-33"/>
       <use xlink:href="#ArialMT-35" x="55.615234"/>
       <use xlink:href="#ArialMT-30" x="111.230469"/>
      </g>
     </g>
    </g>
    <g id="text_10">
     <!-- date -->
     <g style="fill: #262626" transform="translate(194.609062 277.77)scale(0.08 -0.08)">
      <defs>
       <path id="ArialMT-64" d="M 2575 0 
L 2575 419 
Q 2259 -75 1647 -75 
Q 1250 -75 917 144 
Q 584 363 401 755 
Q 219 1147 219 1656 
Q 219 2153 384 2558 
Q 550 2963 881 3178 
Q 1213 3394 1622 3394 
Q 1922 3394 2156 3267 
Q 2391 3141 2538 2938 
L 2538 4581 
L 3097 4581 
L 3097 0 
L 2575 0 
z
M 797 1656 
Q 797 1019 1065 703 
Q 1334 388 1700 388 
Q 2069 388 2326 689 
Q 2584 991 2584 1609 
Q 2584 2291 2321 2609 
Q 2059 2928 1675 2928 
Q 1300 2928 1048 2622 
Q 797 2316 797 1656 
z
" transform="scale(0.015625)"/>
       <path id="ArialMT-61" d="M 2588 409 
Q 2275 144 1986 34 
Q 1697 -75 1366 -75 
Q 819 -75 525 192 
Q 231 459 231 875 
Q 231 1119 342 1320 
Q 453 1522 633 1644 
Q 813 1766 1038 1828 
Q 1203 1872 1538 1913 
Q 2219 1994 2541 2106 
Q 2544 2222 2544 2253 
Q 2544 2597 2384 2738 
Q 2169 2928 1744 2928 
Q 1347 2928 1158 2789 
Q 969 2650 878 2297 
L 328 2372 
Q 403 2725 575 2942 
Q 747 3159 1072 3276 
Q 1397 3394 1825 3394 
Q 2250 3394 2515 3294 
Q 2781 3194 2906 3042 
Q 3031 2891 3081 2659 
Q 3109 2516 3109 2141 
L 3109 1391 
Q 3109 606 3145 398 
Q 3181 191 3288 0 
L 2700 0 
Q 2613 175 2588 409 
z
M 2541 1666 
Q 2234 1541 1622 1453 
Q 1275 1403 1131 1340 
Q 988 1278 909 1158 
Q 831 1038 831 891 
Q 831 666 1001 516 
Q 1172 366 1500 366 
Q 1825 366 2078 508 
Q 2331 650 2450 897 
Q 2541 1088 2541 1459 
L 2541 1666 
z
" transform="scale(0.015625)"/>
       <path id="ArialMT-74" d="M 1650 503 
L 1731 6 
Q 1494 -44 1306 -44 
Q 1000 -44 831 53 
Q 663 150 594 308 
Q 525 466 525 972 
L 525 2881 
L 113 2881 
L 113 3319 
L 525 3319 
L 525 4141 
L 1084 4478 
L 1084 3319 
L 1650 3319 
L 1650 2881 
L 1084 2881 
L 1084 941 
Q 1084 700 1114 631 
Q 1144 563 1211 522 
Q 1278 481 1403 481 
Q 1497 481 1650 503 
z
" transform="scale(0.015625)"/>
       <path id="ArialMT-65" d="M 2694 1069 
L 3275 997 
Q 3138 488 2766 206 
Q 2394 -75 1816 -75 
Q 1088 -75 661 373 
Q 234 822 234 1631 
Q 234 2469 665 2931 
Q 1097 3394 1784 3394 
Q 2450 3394 2872 2941 
Q 3294 2488 3294 1666 
Q 3294 1616 3291 1516 
L 816 1516 
Q 847 969 1125 678 
Q 1403 388 1819 388 
Q 2128 388 2347 550 
Q 2566 713 2694 1069 
z
M 847 1978 
L 2700 1978 
Q 2663 2397 2488 2606 
Q 2219 2931 1791 2931 
Q 1403 2931 1139 2672 
Q 875 2413 847 1978 
z
" transform="scale(0.015625)"/>
      </defs>
      <use xlink:href="#ArialMT-64"/>
      <use xlink:href="#ArialMT-61" x="55.615234"/>
      <use xlink:href="#ArialMT-74" x="111.230469"/>
      <use xlink:href="#ArialMT-65" x="139.013672"/>
     </g>
    </g>
   </g>
   <g id="matplotlib.axis_2">
    <g id="ytick_1">
     <g id="line2d_10"/>
     <g id="text_11">
      <!-- 0 -->
      <g style="fill: #262626" transform="translate(37.75125 248.791193)scale(0.08 -0.08)">
       <use xlink:href="#ArialMT-30"/>
      </g>
     </g>
    </g>
    <g id="ytick_2">
     <g id="line2d_11"/>
     <g id="text_12">
      <!-- 5000 -->
      <g style="fill: #262626" transform="translate(24.405 200.720778)scale(0.08 -0.08)">
       <use xlink:href="#ArialMT-35"/>
       <use xlink:href="#ArialMT-30" x="55.615234"/>
       <use xlink:href="#ArialMT-30" x="111.230469"/>
       <use xlink:href="#ArialMT-30" x="166.845703"/>
      </g>
     </g>
    </g>
    <g id="ytick_3">
     <g id="line2d_12"/>
     <g id="text_13">
      <!-- 10000 -->
      <g style="fill: #262626" transform="translate(19.95625 152.650363)scale(0.08 -0.08)">
       <use xlink:href="#ArialMT-31"/>
       <use xlink:href="#ArialMT-30" x="55.615234"/>
       <use xlink:href="#ArialMT-30" x="111.230469"/>
       <use xlink:href="#ArialMT-30" x="166.845703"/>
       <use xlink:href="#ArialMT-30" x="222.460938"/>
      </g>
     </g>
    </g>
    <g id="ytick_4">
     <g id="line2d_13"/>
     <g id="text_14">
      <!-- 15000 -->
      <g style="fill: #262626" transform="translate(19.95625 104.579947)scale(0.08 -0.08)">
       <use xlink:href="#ArialMT-31"/>
       <use xlink:href="#ArialMT-35" x="55.615234"/>
       <use xlink:href="#ArialMT-30" x="111.230469"/>
       <use xlink:href="#ArialMT-30" x="166.845703"/>
       <use xlink:href="#ArialMT-30" x="222.460938"/>
      </g>
     </g>
    </g>
    <g id="ytick_5">
     <g id="line2d_14"/>
     <g id="text_15">
      <!-- 20000 -->
      <g style="fill: #262626" transform="translate(19.95625 56.509532)scale(0.08 -0.08)">
       <use xlink:href="#ArialMT-32"/>
       <use xlink:href="#ArialMT-30" x="55.615234"/>
       <use xlink:href="#ArialMT-30" x="111.230469"/>
       <use xlink:href="#ArialMT-30" x="166.845703"/>
       <use xlink:href="#ArialMT-30" x="222.460938"/>
      </g>
     </g>
    </g>
    <g id="text_16">
     <!-- count -->
     <g style="fill: #262626" transform="translate(14.36625 142.718125)rotate(-90)scale(0.08 -0.08)">
      <defs>
       <path id="ArialMT-63" d="M 2588 1216 
L 3141 1144 
Q 3050 572 2676 248 
Q 2303 -75 1759 -75 
Q 1078 -75 664 370 
Q 250 816 250 1647 
Q 250 2184 428 2587 
Q 606 2991 970 3192 
Q 1334 3394 1763 3394 
Q 2303 3394 2647 3120 
Q 2991 2847 3088 2344 
L 2541 2259 
Q 2463 2594 2264 2762 
Q 2066 2931 1784 2931 
Q 1359 2931 1093 2626 
Q 828 2322 828 1663 
Q 828 994 1084 691 
Q 1341 388 1753 388 
Q 2084 388 2306 591 
Q 2528 794 2588 1216 
z
" transform="scale(0.015625)"/>
       <path id="ArialMT-6f" d="M 213 1659 
Q 213 2581 725 3025 
Q 1153 3394 1769 3394 
Q 2453 3394 2887 2945 
Q 3322 2497 3322 1706 
Q 3322 1066 3130 698 
Q 2938 331 2570 128 
Q 2203 -75 1769 -75 
Q 1072 -75 642 372 
Q 213 819 213 1659 
z
M 791 1659 
Q 791 1022 1069 705 
Q 1347 388 1769 388 
Q 2188 388 2466 706 
Q 2744 1025 2744 1678 
Q 2744 2294 2464 2611 
Q 2184 2928 1769 2928 
Q 1347 2928 1069 2612 
Q 791 2297 791 1659 
z
" transform="scale(0.015625)"/>
       <path id="ArialMT-75" d="M 2597 0 
L 2597 488 
Q 2209 -75 1544 -75 
Q 1250 -75 995 37 
Q 741 150 617 320 
Q 494 491 444 738 
Q 409 903 409 1263 
L 409 3319 
L 972 3319 
L 972 1478 
Q 972 1038 1006 884 
Q 1059 663 1231 536 
Q 1403 409 1656 409 
Q 1909 409 2131 539 
Q 2353 669 2445 892 
Q 2538 1116 2538 1541 
L 2538 3319 
L 3100 3319 
L 3100 0 
L 2597 0 
z
" transform="scale(0.015625)"/>
       <path id="ArialMT-6e" d="M 422 0 
L 422 3319 
L 928 3319 
L 928 2847 
Q 1294 3394 1984 3394 
Q 2284 3394 2536 3286 
Q 2788 3178 2913 3003 
Q 3038 2828 3088 2588 
Q 3119 2431 3119 2041 
L 3119 0 
L 2556 0 
L 2556 2019 
Q 2556 2363 2490 2533 
Q 2425 2703 2258 2804 
Q 2091 2906 1866 2906 
Q 1506 2906 1245 2678 
Q 984 2450 984 1813 
L 984 0 
L 422 0 
z
" transform="scale(0.015625)"/>
      </defs>
      <use xlink:href="#ArialMT-63"/>
      <use xlink:href="#ArialMT-6f" x="50"/>
      <use xlink:href="#ArialMT-75" x="105.615234"/>
      <use xlink:href="#ArialMT-6e" x="161.230469"/>
      <use xlink:href="#ArialMT-74" x="216.845703"/>
     </g>
    </g>
   </g>
   <g id="patch_3">
    <path d="M -33.038452 245.841541 
L 45.308266 217.143504 
L 124.438452 41.03273 
L 202.785171 23.265905 
L 281.13189 137.183175 
L 359.478609 141.355687 
L 437.825327 207.69286 
L 516.172046 244.447499 
L 516.172046 243.918725 
L 437.825327 205.789271 
L 359.478609 139.317501 
L 281.13189 134.6066 
L 202.785171 19.939432 
L 124.438452 38.408085 
L 45.308266 215.989814 
L -33.038452 245.716558 
z
" clip-path="url(#p53cc086f0d)" style="fill: #808080; opacity: 0.5; stroke: #808080; stroke-linejoin: miter"/>
   </g>
   <g id="patch_4">
    <path d="M -33.038452 245.822313 
L 45.308266 216.980064 
L 124.438452 40.436657 
L 202.785171 22.929412 
L 281.13189 136.625558 
L 359.478609 141.067264 
L 437.825327 207.356367 
L 516.172046 244.370587 
L 516.172046 244.005252 
L 437.825327 205.943097 
L 359.478609 139.615538 
L 281.13189 134.789268 
L 202.785171 20.68933 
L 124.438452 38.734964 
L 45.308266 216.23978 
L -33.038452 245.735787 
z
" clip-path="url(#p53cc086f0d)" style="fill: #0000ff; stroke: #0000ff; stroke-linejoin: miter"/>
   </g>
   <g id="patch_5">
    <path d="M -33.038452 245.918454 
L 45.308266 243.726443 
L 124.438452 222.52739 
L 202.785171 183.003895 
L 281.13189 189.070381 
L 359.478609 244.005252 
L 437.825327 245.90884 
L 516.172046 245.928068 
L 516.172046 245.889612 
L 437.825327 245.793471 
L 359.478609 243.611074 
L 281.13189 186.945669 
L 202.785171 180.609988 
L 124.438452 221.200647 
L 45.308266 243.438021 
L -33.038452 245.851156 
z
" clip-path="url(#p53cc086f0d)" style="fill: #808080; opacity: 0.5; stroke: #808080; stroke-linejoin: miter"/>
   </g>
   <g id="patch_6">
    <path d="M -33.038452 245.90884 
L 45.308266 243.687987 
L 124.438452 222.200511 
L 202.785171 182.369365 
L 281.13189 188.647361 
L 359.478609 243.928339 
L 437.825327 245.899226 
L 516.172046 245.928068 
L 516.172046 245.899226 
L 437.825327 245.831927 
L 359.478609 243.678373 
L 281.13189 187.464829 
L 202.785171 180.917639 
L 124.438452 221.354472 
L 45.308266 243.476477 
L -33.038452 245.86077 
z
" clip-path="url(#p53cc086f0d)" style="fill: #008000; stroke: #008000; stroke-linejoin: miter"/>
   </g>
   <g id="patch_7">
    <path d="M -33.038452 245.918454 
L 45.308266 242.716964 
L 124.438452 212.740253 
L 202.785171 209.250341 
L 281.13189 223.238832 
L 359.478609 243.591846 
L 437.825327 245.831927 
L 516.172046 245.928068 
L 516.172046 245.879998 
L 437.825327 245.668488 
L 359.478609 243.293809 
L 281.13189 222.113984 
L 202.785171 208.058195 
L 124.438452 211.663476 
L 45.308266 242.255488 
L -33.038452 245.851156 
z
" clip-path="url(#p53cc086f0d)" style="fill: #808080; opacity: 0.5; stroke: #808080; stroke-linejoin: miter"/>
   </g>
   <g id="patch_8">
    <path d="M -33.038452 245.90884 
L 45.308266 242.620824 
L 124.438452 212.557586 
L 202.785171 209.019603 
L 281.13189 222.921567 
L 359.478609 243.55339 
L 437.825327 245.793471 
L 516.172046 245.928068 
L 516.172046 245.889612 
L 437.825327 245.69733 
L 359.478609 243.34188 
L 281.13189 222.181283 
L 202.785171 208.260091 
L 124.438452 211.894214 
L 45.308266 242.293945 
L -33.038452 245.86077 
z
" clip-path="url(#p53cc086f0d)" style="fill: #ff0000; stroke: #ff0000; stroke-linejoin: miter"/>
   </g>
   <g id="patch_9">
    <path d="M -33.038452 245.928068 
L 45.308266 243.543776 
L 124.438452 233.650884 
L 202.785171 225.440457 
L 281.13189 231.785752 
L 359.478609 242.986159 
L 437.825327 245.889612 
L 516.172046 245.928068 
L 516.172046 245.90884 
L 437.825327 245.793471 
L 359.478609 242.65928 
L 281.13189 231.228135 
L 202.785171 224.767471 
L 124.438452 233.045197 
L 45.308266 243.255353 
L -33.038452 245.918454 
z
" clip-path="url(#p53cc086f0d)" style="fill: #808080; opacity: 0.5; stroke: #808080; stroke-linejoin: miter"/>
   </g>
   <g id="patch_10">
    <path d="M -33.038452 245.928068 
L 45.308266 243.495705 
L 124.438452 233.573971 
L 202.785171 225.402001 
L 281.13189 231.708839 
L 359.478609 242.957317 
L 437.825327 245.879998 
L 516.172046 245.928068 
L 516.172046 245.90884 
L 437.825327 245.812699 
L 359.478609 242.745807 
L 281.13189 231.324276 
L 202.785171 224.930911 
L 124.438452 233.17018 
L 45.308266 243.293809 
L -33.038452 245.918454 
z
" clip-path="url(#p53cc086f0d)" style="fill: #00bfbf; stroke: #00bfbf; stroke-linejoin: miter"/>
   </g>
   <g id="patch_11">
    <path d="M -33.038452 245.928068 
L 45.308266 243.457249 
L 124.438452 239.005928 
L 202.785171 232.506808 
L 281.13189 239.592387 
L 359.478609 245.149327 
L 437.825327 245.918454 
L 516.172046 245.928068 
L 516.172046 245.889612 
L 437.825327 245.831927 
L 359.478609 244.976274 
L 281.13189 239.025157 
L 202.785171 231.824208 
L 124.438452 238.51561 
L 45.308266 243.216897 
L -33.038452 245.90884 
z
" clip-path="url(#p53cc086f0d)" style="fill: #808080; opacity: 0.5; stroke: #808080; stroke-linejoin: miter"/>
   </g>
   <g id="patch_12">
    <path d="M -33.038452 245.928068 
L 45.308266 243.428407 
L 124.438452 238.880945 
L 202.785171 232.420281 
L 281.13189 239.496247 
L 359.478609 245.120485 
L 437.825327 245.90884 
L 516.172046 245.928068 
L 516.172046 245.899226 
L 437.825327 245.851156 
L 359.478609 245.005116 
L 281.13189 239.044385 
L 202.785171 231.891507 
L 124.438452 238.554066 
L 45.308266 243.226511 
L -33.038452 245.90884 
z
" clip-path="url(#p53cc086f0d)" style="fill: #bf00bf; stroke: #bf00bf; stroke-linejoin: miter"/>
   </g>
   <g id="patch_13">
    <path d="M -33.038452 245.928068 
L 45.308266 244.889747 
L 124.438452 243.611074 
L 202.785171 242.745807 
L 281.13189 233.948921 
L 359.478609 240.726849 
L 437.825327 245.928068 
L 516.172046 245.928068 
L 516.172046 245.879998 
L 437.825327 245.889612 
L 359.478609 240.390356 
L 281.13189 233.506673 
L 202.785171 242.505455 
L 124.438452 243.476477 
L 45.308266 244.793606 
z
" clip-path="url(#p53cc086f0d)" style="fill: #808080; opacity: 0.5; stroke: #808080; stroke-linejoin: miter"/>
   </g>
   <g id="patch_14">
    <path d="M -33.038452 245.928068 
L 45.308266 244.870519 
L 124.438452 243.60146 
L 202.785171 242.697736 
L 281.13189 233.881622 
L 359.478609 240.669165 
L 437.825327 245.928068 
L 516.172046 245.928068 
L 516.172046 245.889612 
L 437.825327 245.889612 
L 359.478609 240.428813 
L 281.13189 233.602814 
L 202.785171 242.524683 
L 124.438452 243.495705 
L 45.308266 244.822449 
z
" clip-path="url(#p53cc086f0d)" style="fill: #bfbf00; stroke: #bfbf00; stroke-linejoin: miter"/>
   </g>
   <g id="patch_15">
    <path d="M -33.038452 245.889612 
L 45.308266 245.591575 
L 124.438452 236.746619 
L 202.785171 241.265238 
L 281.13189 243.380336 
L 359.478609 245.466592 
L 437.825327 245.928068 
L 516.172046 245.928068 
L 516.172046 245.899226 
L 437.825327 245.851156 
L 359.478609 245.322381 
L 281.13189 242.87079 
L 202.785171 240.592252 
L 124.438452 236.121703 
L 45.308266 245.447364 
L -33.038452 245.803085 
z
" clip-path="url(#p53cc086f0d)" style="fill: #808080; opacity: 0.5; stroke: #808080; stroke-linejoin: miter"/>
   </g>
   <g id="patch_16">
    <path d="M -33.038452 245.879998 
L 45.308266 245.572347 
L 124.438452 236.660092 
L 202.785171 241.08257 
L 281.13189 243.293809 
L 359.478609 245.43775 
L 437.825327 245.90884 
L 516.172046 245.928068 
L 516.172046 245.90884 
L 437.825327 245.86077 
L 359.478609 245.341609 
L 281.13189 242.928474 
L 202.785171 240.688393 
L 124.438452 236.294757 
L 45.308266 245.456978 
L -33.038452 245.812699 
z
" clip-path="url(#p53cc086f0d)" style="stroke: #000000; stroke-linejoin: miter"/>
   </g>
   <g id="patch_17">
    <path d="M -33.038452 245.928068 
L 45.308266 245.899226 
L 124.438452 245.01473 
L 202.785171 245.235854 
L 281.13189 244.957046 
L 359.478609 244.899361 
L 437.825327 245.899226 
L 516.172046 245.928068 
L 516.172046 245.899226 
L 437.825327 245.783857 
L 359.478609 244.687851 
L 281.13189 244.630167 
L 202.785171 244.937818 
L 124.438452 244.783992 
L 45.308266 245.870384 
L -33.038452 245.918454 
z
" clip-path="url(#p53cc086f0d)" style="fill: #808080; opacity: 0.5; stroke: #808080; stroke-linejoin: miter"/>
   </g>
   <g id="patch_18">
    <path d="M -33.038452 245.928068 
L 45.308266 245.889612 
L 124.438452 244.976274 
L 202.785171 245.158942 
L 281.13189 244.918589 
L 359.478609 244.880133 
L 437.825327 245.879998 
L 516.172046 245.928068 
L 516.172046 245.90884 
L 437.825327 245.803085 
L 359.478609 244.75515 
L 281.13189 244.649395 
L 202.785171 244.96666 
L 124.438452 244.822449 
L 45.308266 245.870384 
L -33.038452 245.918454 
z
" clip-path="url(#p53cc086f0d)" style="fill: #ffffff; stroke: #ffffff; stroke-linejoin: miter"/>
   </g>
   <g id="patch_19">
    <path d="M 45.7 257.2275 
L 45.7 8.64 
" style="fill: none; stroke: #262626; stroke-width: 1.25; stroke-linejoin: miter; stroke-linecap: square"/>
   </g>
   <g id="patch_20">
    <path d="M 359.086875 257.2275 
L 359.086875 8.64 
" style="fill: none; stroke: #262626; stroke-width: 1.25; stroke-linejoin: miter; stroke-linecap: square"/>
   </g>
   <g id="patch_21">
    <path d="M 45.7 257.2275 
L 359.086875 257.2275 
" style="fill: none; stroke: #262626; stroke-width: 1.25; stroke-linejoin: miter; stroke-linecap: square"/>
   </g>
   <g id="patch_22">
    <path d="M 45.7 8.64 
L 359.086875 8.64 
" style="fill: none; stroke: #262626; stroke-width: 1.25; stroke-linejoin: miter; stroke-linecap: square"/>
   </g>
   <g id="legend_1">
    <g id="text_17">
     <!-- Inscription types -->
     <g style="fill: #262626" transform="translate(87.670625 21.56625)scale(0.08 -0.08)">
      <defs>
       <path id="ArialMT-49" d="M 597 0 
L 597 4581 
L 1203 4581 
L 1203 0 
L 597 0 
z
" transform="scale(0.015625)"/>
       <path id="ArialMT-73" d="M 197 991 
L 753 1078 
Q 800 744 1014 566 
Q 1228 388 1613 388 
Q 2000 388 2187 545 
Q 2375 703 2375 916 
Q 2375 1106 2209 1216 
Q 2094 1291 1634 1406 
Q 1016 1563 777 1677 
Q 538 1791 414 1992 
Q 291 2194 291 2438 
Q 291 2659 392 2848 
Q 494 3038 669 3163 
Q 800 3259 1026 3326 
Q 1253 3394 1513 3394 
Q 1903 3394 2198 3281 
Q 2494 3169 2634 2976 
Q 2775 2784 2828 2463 
L 2278 2388 
Q 2241 2644 2061 2787 
Q 1881 2931 1553 2931 
Q 1166 2931 1000 2803 
Q 834 2675 834 2503 
Q 834 2394 903 2306 
Q 972 2216 1119 2156 
Q 1203 2125 1616 2013 
Q 2213 1853 2448 1751 
Q 2684 1650 2818 1456 
Q 2953 1263 2953 975 
Q 2953 694 2789 445 
Q 2625 197 2315 61 
Q 2006 -75 1616 -75 
Q 969 -75 630 194 
Q 291 463 197 991 
z
" transform="scale(0.015625)"/>
       <path id="ArialMT-72" d="M 416 0 
L 416 3319 
L 922 3319 
L 922 2816 
Q 1116 3169 1280 3281 
Q 1444 3394 1641 3394 
Q 1925 3394 2219 3213 
L 2025 2691 
Q 1819 2813 1613 2813 
Q 1428 2813 1281 2702 
Q 1134 2591 1072 2394 
Q 978 2094 978 1738 
L 978 0 
L 416 0 
z
" transform="scale(0.015625)"/>
       <path id="ArialMT-69" d="M 425 3934 
L 425 4581 
L 988 4581 
L 988 3934 
L 425 3934 
z
M 425 0 
L 425 3319 
L 988 3319 
L 988 0 
L 425 0 
z
" transform="scale(0.015625)"/>
       <path id="ArialMT-70" d="M 422 -1272 
L 422 3319 
L 934 3319 
L 934 2888 
Q 1116 3141 1344 3267 
Q 1572 3394 1897 3394 
Q 2322 3394 2647 3175 
Q 2972 2956 3137 2557 
Q 3303 2159 3303 1684 
Q 3303 1175 3120 767 
Q 2938 359 2589 142 
Q 2241 -75 1856 -75 
Q 1575 -75 1351 44 
Q 1128 163 984 344 
L 984 -1272 
L 422 -1272 
z
M 931 1641 
Q 931 1000 1190 694 
Q 1450 388 1819 388 
Q 2194 388 2461 705 
Q 2728 1022 2728 1688 
Q 2728 2322 2467 2637 
Q 2206 2953 1844 2953 
Q 1484 2953 1207 2617 
Q 931 2281 931 1641 
z
" transform="scale(0.015625)"/>
       <path id="ArialMT-20" transform="scale(0.015625)"/>
       <path id="ArialMT-79" d="M 397 -1278 
L 334 -750 
Q 519 -800 656 -800 
Q 844 -800 956 -737 
Q 1069 -675 1141 -563 
Q 1194 -478 1313 -144 
Q 1328 -97 1363 -6 
L 103 3319 
L 709 3319 
L 1400 1397 
Q 1534 1031 1641 628 
Q 1738 1016 1872 1384 
L 2581 3319 
L 3144 3319 
L 1881 -56 
Q 1678 -603 1566 -809 
Q 1416 -1088 1222 -1217 
Q 1028 -1347 759 -1347 
Q 597 -1347 397 -1278 
z
" transform="scale(0.015625)"/>
      </defs>
      <use xlink:href="#ArialMT-49"/>
      <use xlink:href="#ArialMT-6e" x="27.783203"/>
      <use xlink:href="#ArialMT-73" x="83.398438"/>
      <use xlink:href="#ArialMT-63" x="133.398438"/>
      <use xlink:href="#ArialMT-72" x="183.398438"/>
      <use xlink:href="#ArialMT-69" x="216.699219"/>
      <use xlink:href="#ArialMT-70" x="238.916016"/>
      <use xlink:href="#ArialMT-74" x="294.53125"/>
      <use xlink:href="#ArialMT-69" x="322.314453"/>
      <use xlink:href="#ArialMT-6f" x="344.53125"/>
      <use xlink:href="#ArialMT-6e" x="400.146484"/>
      <use xlink:href="#ArialMT-20" x="455.761719"/>
      <use xlink:href="#ArialMT-74" x="483.544922"/>
      <use xlink:href="#ArialMT-79" x="511.328125"/>
      <use xlink:href="#ArialMT-70" x="561.328125"/>
      <use xlink:href="#ArialMT-65" x="616.943359"/>
      <use xlink:href="#ArialMT-73" x="672.558594"/>
     </g>
    </g>
    <g id="line2d_15">
     <path d="M 52.9 30.17625 
L 60.9 30.17625 
L 68.9 30.17625 
" style="fill: none; stroke: #0000ff; stroke-width: 4; stroke-linecap: round"/>
    </g>
    <g id="text_18">
     <!-- epitaph -->
     <g style="fill: #262626" transform="translate(75.3 32.97625)scale(0.08 -0.08)">
      <defs>
       <path id="ArialMT-68" d="M 422 0 
L 422 4581 
L 984 4581 
L 984 2938 
Q 1378 3394 1978 3394 
Q 2347 3394 2619 3248 
Q 2891 3103 3008 2847 
Q 3125 2591 3125 2103 
L 3125 0 
L 2563 0 
L 2563 2103 
Q 2563 2525 2380 2717 
Q 2197 2909 1863 2909 
Q 1613 2909 1392 2779 
Q 1172 2650 1078 2428 
Q 984 2206 984 1816 
L 984 0 
L 422 0 
z
" transform="scale(0.015625)"/>
      </defs>
      <use xlink:href="#ArialMT-65"/>
      <use xlink:href="#ArialMT-70" x="55.615234"/>
      <use xlink:href="#ArialMT-69" x="111.230469"/>
      <use xlink:href="#ArialMT-74" x="133.447266"/>
      <use xlink:href="#ArialMT-61" x="161.230469"/>
      <use xlink:href="#ArialMT-70" x="216.845703"/>
      <use xlink:href="#ArialMT-68" x="272.460938"/>
     </g>
    </g>
    <g id="line2d_16">
     <path d="M 52.9 41.4925 
L 60.9 41.4925 
L 68.9 41.4925 
" style="fill: none; stroke: #008000; stroke-width: 4; stroke-linecap: round"/>
    </g>
    <g id="text_19">
     <!-- votive inscription -->
     <g style="fill: #262626" transform="translate(75.3 44.2925)scale(0.08 -0.08)">
      <defs>
       <path id="ArialMT-76" d="M 1344 0 
L 81 3319 
L 675 3319 
L 1388 1331 
Q 1503 1009 1600 663 
Q 1675 925 1809 1294 
L 2547 3319 
L 3125 3319 
L 1869 0 
L 1344 0 
z
" transform="scale(0.015625)"/>
      </defs>
      <use xlink:href="#ArialMT-76"/>
      <use xlink:href="#ArialMT-6f" x="50"/>
      <use xlink:href="#ArialMT-74" x="105.615234"/>
      <use xlink:href="#ArialMT-69" x="133.398438"/>
      <use xlink:href="#ArialMT-76" x="155.615234"/>
      <use xlink:href="#ArialMT-65" x="205.615234"/>
      <use xlink:href="#ArialMT-20" x="261.230469"/>
      <use xlink:href="#ArialMT-69" x="289.013672"/>
      <use xlink:href="#ArialMT-6e" x="311.230469"/>
      <use xlink:href="#ArialMT-73" x="366.845703"/>
      <use xlink:href="#ArialMT-63" x="416.845703"/>
      <use xlink:href="#ArialMT-72" x="466.845703"/>
      <use xlink:href="#ArialMT-69" x="500.146484"/>
      <use xlink:href="#ArialMT-70" x="522.363281"/>
      <use xlink:href="#ArialMT-74" x="577.978516"/>
      <use xlink:href="#ArialMT-69" x="605.761719"/>
      <use xlink:href="#ArialMT-6f" x="627.978516"/>
      <use xlink:href="#ArialMT-6e" x="683.59375"/>
     </g>
    </g>
    <g id="line2d_17">
     <path d="M 52.9 52.90625 
L 60.9 52.90625 
L 68.9 52.90625 
" style="fill: none; stroke: #ff0000; stroke-width: 4; stroke-linecap: round"/>
    </g>
    <g id="text_20">
     <!-- owner/artist inscription -->
     <g style="fill: #262626" transform="translate(75.3 55.70625)scale(0.08 -0.08)">
      <defs>
       <path id="ArialMT-77" d="M 1034 0 
L 19 3319 
L 600 3319 
L 1128 1403 
L 1325 691 
Q 1338 744 1497 1375 
L 2025 3319 
L 2603 3319 
L 3100 1394 
L 3266 759 
L 3456 1400 
L 4025 3319 
L 4572 3319 
L 3534 0 
L 2950 0 
L 2422 1988 
L 2294 2553 
L 1622 0 
L 1034 0 
z
" transform="scale(0.015625)"/>
       <path id="ArialMT-2f" d="M 0 -78 
L 1328 4659 
L 1778 4659 
L 453 -78 
L 0 -78 
z
" transform="scale(0.015625)"/>
      </defs>
      <use xlink:href="#ArialMT-6f"/>
      <use xlink:href="#ArialMT-77" x="55.615234"/>
      <use xlink:href="#ArialMT-6e" x="127.832031"/>
      <use xlink:href="#ArialMT-65" x="183.447266"/>
      <use xlink:href="#ArialMT-72" x="239.0625"/>
      <use xlink:href="#ArialMT-2f" x="272.363281"/>
      <use xlink:href="#ArialMT-61" x="300.146484"/>
      <use xlink:href="#ArialMT-72" x="355.761719"/>
      <use xlink:href="#ArialMT-74" x="389.0625"/>
      <use xlink:href="#ArialMT-69" x="416.845703"/>
      <use xlink:href="#ArialMT-73" x="439.0625"/>
      <use xlink:href="#ArialMT-74" x="489.0625"/>
      <use xlink:href="#ArialMT-20" x="516.845703"/>
      <use xlink:href="#ArialMT-69" x="544.628906"/>
      <use xlink:href="#ArialMT-6e" x="566.845703"/>
      <use xlink:href="#ArialMT-73" x="622.460938"/>
      <use xlink:href="#ArialMT-63" x="672.460938"/>
      <use xlink:href="#ArialMT-72" x="722.460938"/>
      <use xlink:href="#ArialMT-69" x="755.761719"/>
      <use xlink:href="#ArialMT-70" x="777.978516"/>
      <use xlink:href="#ArialMT-74" x="833.59375"/>
      <use xlink:href="#ArialMT-69" x="861.376953"/>
      <use xlink:href="#ArialMT-6f" x="883.59375"/>
      <use xlink:href="#ArialMT-6e" x="939.208984"/>
     </g>
    </g>
    <g id="line2d_18">
     <path d="M 52.9 64.32 
L 60.9 64.32 
L 68.9 64.32 
" style="fill: none; stroke: #00bfbf; stroke-width: 4; stroke-linecap: round"/>
    </g>
    <g id="text_21">
     <!-- honorific inscription -->
     <g style="fill: #262626" transform="translate(75.3 67.12)scale(0.08 -0.08)">
      <defs>
       <path id="ArialMT-66" d="M 556 0 
L 556 2881 
L 59 2881 
L 59 3319 
L 556 3319 
L 556 3672 
Q 556 4006 616 4169 
Q 697 4388 901 4523 
Q 1106 4659 1475 4659 
Q 1713 4659 2000 4603 
L 1916 4113 
Q 1741 4144 1584 4144 
Q 1328 4144 1222 4034 
Q 1116 3925 1116 3625 
L 1116 3319 
L 1763 3319 
L 1763 2881 
L 1116 2881 
L 1116 0 
L 556 0 
z
" transform="scale(0.015625)"/>
      </defs>
      <use xlink:href="#ArialMT-68"/>
      <use xlink:href="#ArialMT-6f" x="55.615234"/>
      <use xlink:href="#ArialMT-6e" x="111.230469"/>
      <use xlink:href="#ArialMT-6f" x="166.845703"/>
      <use xlink:href="#ArialMT-72" x="222.460938"/>
      <use xlink:href="#ArialMT-69" x="255.761719"/>
      <use xlink:href="#ArialMT-66" x="277.978516"/>
      <use xlink:href="#ArialMT-69" x="305.761719"/>
      <use xlink:href="#ArialMT-63" x="327.978516"/>
      <use xlink:href="#ArialMT-20" x="377.978516"/>
      <use xlink:href="#ArialMT-69" x="405.761719"/>
      <use xlink:href="#ArialMT-6e" x="427.978516"/>
      <use xlink:href="#ArialMT-73" x="483.59375"/>
      <use xlink:href="#ArialMT-63" x="533.59375"/>
      <use xlink:href="#ArialMT-72" x="583.59375"/>
      <use xlink:href="#ArialMT-69" x="616.894531"/>
      <use xlink:href="#ArialMT-70" x="639.111328"/>
      <use xlink:href="#ArialMT-74" x="694.726562"/>
      <use xlink:href="#ArialMT-69" x="722.509766"/>
      <use xlink:href="#ArialMT-6f" x="744.726562"/>
      <use xlink:href="#ArialMT-6e" x="800.341797"/>
     </g>
    </g>
    <g id="line2d_19">
     <path d="M 52.9 75.73375 
L 60.9 75.73375 
L 68.9 75.73375 
" style="fill: none; stroke: #bf00bf; stroke-width: 4; stroke-linecap: round"/>
    </g>
    <g id="text_22">
     <!-- building/dedicatory inscription -->
     <g style="fill: #262626" transform="translate(75.3 78.53375)scale(0.08 -0.08)">
      <defs>
       <path id="ArialMT-62" d="M 941 0 
L 419 0 
L 419 4581 
L 981 4581 
L 981 2947 
Q 1338 3394 1891 3394 
Q 2197 3394 2470 3270 
Q 2744 3147 2920 2923 
Q 3097 2700 3197 2384 
Q 3297 2069 3297 1709 
Q 3297 856 2875 390 
Q 2453 -75 1863 -75 
Q 1275 -75 941 416 
L 941 0 
z
M 934 1684 
Q 934 1088 1097 822 
Q 1363 388 1816 388 
Q 2184 388 2453 708 
Q 2722 1028 2722 1663 
Q 2722 2313 2464 2622 
Q 2206 2931 1841 2931 
Q 1472 2931 1203 2611 
Q 934 2291 934 1684 
z
" transform="scale(0.015625)"/>
       <path id="ArialMT-6c" d="M 409 0 
L 409 4581 
L 972 4581 
L 972 0 
L 409 0 
z
" transform="scale(0.015625)"/>
       <path id="ArialMT-67" d="M 319 -275 
L 866 -356 
Q 900 -609 1056 -725 
Q 1266 -881 1628 -881 
Q 2019 -881 2231 -725 
Q 2444 -569 2519 -288 
Q 2563 -116 2559 434 
Q 2191 0 1641 0 
Q 956 0 581 494 
Q 206 988 206 1678 
Q 206 2153 378 2554 
Q 550 2956 876 3175 
Q 1203 3394 1644 3394 
Q 2231 3394 2613 2919 
L 2613 3319 
L 3131 3319 
L 3131 450 
Q 3131 -325 2973 -648 
Q 2816 -972 2473 -1159 
Q 2131 -1347 1631 -1347 
Q 1038 -1347 672 -1080 
Q 306 -813 319 -275 
z
M 784 1719 
Q 784 1066 1043 766 
Q 1303 466 1694 466 
Q 2081 466 2343 764 
Q 2606 1063 2606 1700 
Q 2606 2309 2336 2618 
Q 2066 2928 1684 2928 
Q 1309 2928 1046 2623 
Q 784 2319 784 1719 
z
" transform="scale(0.015625)"/>
      </defs>
      <use xlink:href="#ArialMT-62"/>
      <use xlink:href="#ArialMT-75" x="55.615234"/>
      <use xlink:href="#ArialMT-69" x="111.230469"/>
      <use xlink:href="#ArialMT-6c" x="133.447266"/>
      <use xlink:href="#ArialMT-64" x="155.664062"/>
      <use xlink:href="#ArialMT-69" x="211.279297"/>
      <use xlink:href="#ArialMT-6e" x="233.496094"/>
      <use xlink:href="#ArialMT-67" x="289.111328"/>
      <use xlink:href="#ArialMT-2f" x="344.726562"/>
      <use xlink:href="#ArialMT-64" x="372.509766"/>
      <use xlink:href="#ArialMT-65" x="428.125"/>
      <use xlink:href="#ArialMT-64" x="483.740234"/>
      <use xlink:href="#ArialMT-69" x="539.355469"/>
      <use xlink:href="#ArialMT-63" x="561.572266"/>
      <use xlink:href="#ArialMT-61" x="611.572266"/>
      <use xlink:href="#ArialMT-74" x="667.1875"/>
      <use xlink:href="#ArialMT-6f" x="694.970703"/>
      <use xlink:href="#ArialMT-72" x="750.585938"/>
      <use xlink:href="#ArialMT-79" x="783.886719"/>
      <use xlink:href="#ArialMT-20" x="833.886719"/>
      <use xlink:href="#ArialMT-69" x="861.669922"/>
      <use xlink:href="#ArialMT-6e" x="883.886719"/>
      <use xlink:href="#ArialMT-73" x="939.501953"/>
      <use xlink:href="#ArialMT-63" x="989.501953"/>
      <use xlink:href="#ArialMT-72" x="1039.501953"/>
      <use xlink:href="#ArialMT-69" x="1072.802734"/>
      <use xlink:href="#ArialMT-70" x="1095.019531"/>
      <use xlink:href="#ArialMT-74" x="1150.634766"/>
      <use xlink:href="#ArialMT-69" x="1178.417969"/>
      <use xlink:href="#ArialMT-6f" x="1200.634766"/>
      <use xlink:href="#ArialMT-6e" x="1256.25"/>
     </g>
    </g>
    <g id="line2d_20">
     <path d="M 52.9 87.24125 
L 60.9 87.24125 
L 68.9 87.24125 
" style="fill: none; stroke: #bfbf00; stroke-width: 4; stroke-linecap: round"/>
    </g>
    <g id="text_23">
     <!-- mile-/leaguestone -->
     <g style="fill: #262626" transform="translate(75.3 90.04125)scale(0.08 -0.08)">
      <defs>
       <path id="ArialMT-6d" d="M 422 0 
L 422 3319 
L 925 3319 
L 925 2853 
Q 1081 3097 1340 3245 
Q 1600 3394 1931 3394 
Q 2300 3394 2536 3241 
Q 2772 3088 2869 2813 
Q 3263 3394 3894 3394 
Q 4388 3394 4653 3120 
Q 4919 2847 4919 2278 
L 4919 0 
L 4359 0 
L 4359 2091 
Q 4359 2428 4304 2576 
Q 4250 2725 4106 2815 
Q 3963 2906 3769 2906 
Q 3419 2906 3187 2673 
Q 2956 2441 2956 1928 
L 2956 0 
L 2394 0 
L 2394 2156 
Q 2394 2531 2256 2718 
Q 2119 2906 1806 2906 
Q 1569 2906 1367 2781 
Q 1166 2656 1075 2415 
Q 984 2175 984 1722 
L 984 0 
L 422 0 
z
" transform="scale(0.015625)"/>
       <path id="ArialMT-2d" d="M 203 1375 
L 203 1941 
L 1931 1941 
L 1931 1375 
L 203 1375 
z
" transform="scale(0.015625)"/>
      </defs>
      <use xlink:href="#ArialMT-6d"/>
      <use xlink:href="#ArialMT-69" x="83.300781"/>
      <use xlink:href="#ArialMT-6c" x="105.517578"/>
      <use xlink:href="#ArialMT-65" x="127.734375"/>
      <use xlink:href="#ArialMT-2d" x="183.349609"/>
      <use xlink:href="#ArialMT-2f" x="216.650391"/>
      <use xlink:href="#ArialMT-6c" x="244.433594"/>
      <use xlink:href="#ArialMT-65" x="266.650391"/>
      <use xlink:href="#ArialMT-61" x="322.265625"/>
      <use xlink:href="#ArialMT-67" x="377.880859"/>
      <use xlink:href="#ArialMT-75" x="433.496094"/>
      <use xlink:href="#ArialMT-65" x="489.111328"/>
      <use xlink:href="#ArialMT-73" x="544.726562"/>
      <use xlink:href="#ArialMT-74" x="594.726562"/>
      <use xlink:href="#ArialMT-6f" x="622.509766"/>
      <use xlink:href="#ArialMT-6e" x="678.125"/>
      <use xlink:href="#ArialMT-65" x="733.740234"/>
     </g>
    </g>
    <g id="line2d_21">
     <path d="M 52.9 98.74875 
L 60.9 98.74875 
L 68.9 98.74875 
" style="fill: none; stroke: #000000; stroke-width: 4; stroke-linecap: round"/>
    </g>
    <g id="text_24">
     <!-- identification inscription -->
     <g style="fill: #262626" transform="translate(75.3 101.54875)scale(0.08 -0.08)">
      <use xlink:href="#ArialMT-69"/>
      <use xlink:href="#ArialMT-64" x="22.216797"/>
      <use xlink:href="#ArialMT-65" x="77.832031"/>
      <use xlink:href="#ArialMT-6e" x="133.447266"/>
      <use xlink:href="#ArialMT-74" x="189.0625"/>
      <use xlink:href="#ArialMT-69" x="216.845703"/>
      <use xlink:href="#ArialMT-66" x="239.0625"/>
      <use xlink:href="#ArialMT-69" x="266.845703"/>
      <use xlink:href="#ArialMT-63" x="289.0625"/>
      <use xlink:href="#ArialMT-61" x="339.0625"/>
      <use xlink:href="#ArialMT-74" x="394.677734"/>
      <use xlink:href="#ArialMT-69" x="422.460938"/>
      <use xlink:href="#ArialMT-6f" x="444.677734"/>
      <use xlink:href="#ArialMT-6e" x="500.292969"/>
      <use xlink:href="#ArialMT-20" x="555.908203"/>
      <use xlink:href="#ArialMT-69" x="583.691406"/>
      <use xlink:href="#ArialMT-6e" x="605.908203"/>
      <use xlink:href="#ArialMT-73" x="661.523438"/>
      <use xlink:href="#ArialMT-63" x="711.523438"/>
      <use xlink:href="#ArialMT-72" x="761.523438"/>
      <use xlink:href="#ArialMT-69" x="794.824219"/>
      <use xlink:href="#ArialMT-70" x="817.041016"/>
      <use xlink:href="#ArialMT-74" x="872.65625"/>
      <use xlink:href="#ArialMT-69" x="900.439453"/>
      <use xlink:href="#ArialMT-6f" x="922.65625"/>
      <use xlink:href="#ArialMT-6e" x="978.271484"/>
     </g>
    </g>
    <g id="line2d_22">
     <path d="M 52.9 110.065 
L 60.9 110.065 
L 68.9 110.065 
" style="fill: none; stroke: #ffffff; stroke-width: 4; stroke-linecap: round"/>
    </g>
    <g id="text_25">
     <!-- acclamation -->
     <g style="fill: #262626" transform="translate(75.3 112.865)scale(0.08 -0.08)">
      <use xlink:href="#ArialMT-61"/>
      <use xlink:href="#ArialMT-63" x="55.615234"/>
      <use xlink:href="#ArialMT-63" x="105.615234"/>
      <use xlink:href="#ArialMT-6c" x="155.615234"/>
      <use xlink:href="#ArialMT-61" x="177.832031"/>
      <use xlink:href="#ArialMT-6d" x="233.447266"/>
      <use xlink:href="#ArialMT-61" x="316.748047"/>
      <use xlink:href="#ArialMT-74" x="372.363281"/>
      <use xlink:href="#ArialMT-69" x="400.146484"/>
      <use xlink:href="#ArialMT-6f" x="422.363281"/>
      <use xlink:href="#ArialMT-6e" x="477.978516"/>
     </g>
    </g>
   </g>
  </g>
 </g>
 <defs>
  <clipPath id="p53cc086f0d">
   <rect x="45.7" y="8.64" width="313.386875" height="248.5875"/>
  </clipPath>
 </defs>
</svg>
