<?xml version="1.0" encoding="utf-8" standalone="no"?>
<!DOCTYPE svg PUBLIC "-//W3C//DTD SVG 1.1//EN"
  "http://www.w3.org/Graphics/SVG/1.1/DTD/svg11.dtd">
<svg xmlns:xlink="http://www.w3.org/1999/xlink" width="374.4pt" height="259.2pt" viewBox="0 0 374.4 259.2" xmlns="http://www.w3.org/2000/svg" version="1.1">
 <metadata>
  <rdf:RDF xmlns:dc="http://purl.org/dc/elements/1.1/" xmlns:cc="http://creativecommons.org/ns#" xmlns:rdf="http://www.w3.org/1999/02/22-rdf-syntax-ns#">
   <cc:Work>
    <dc:type rdf:resource="http://purl.org/dc/dcmitype/StillImage"/>
    <dc:date>2022-01-28T14:55:30.811640</dc:date>
    <dc:format>image/svg+xml</dc:format>
    <dc:creator>
     <cc:Agent>
      <dc:title>Matplotlib v3.5.1, https://matplotlib.org/</dc:title>
     </cc:Agent>
    </dc:creator>
   </cc:Work>
  </rdf:RDF>
 </metadata>
 <defs>
  <style type="text/css">*{stroke-linejoin: round; stroke-linecap: butt}</style>
 </defs>
 <g id="figure_1">
  <g id="patch_1">
   <path d="M 0 259.2 
L 374.4 259.2 
L 374.4 0 
L 0 0 
z
" style="fill: #ffffff"/>
  </g>
  <g id="axes_1">
   <g id="patch_2">
    <path d="M 41.34875 78.812064 
L 284.06 78.812064 
L 284.06 8.64 
L 41.34875 8.64 
z
" style="fill: #ffffff"/>
   </g>
   <g id="matplotlib.axis_1">
    <g id="xtick_1">
     <g id="line2d_1">
      <path d="M 41.34875 78.812064 
L 41.34875 8.64 
" clip-path="url(#p32d27f0f51)" style="fill: none; stroke: #cccccc; stroke-width: 0.8; stroke-linecap: round"/>
     </g>
     <g id="line2d_2"/>
    </g>
    <g id="xtick_2">
     <g id="line2d_3">
      <path d="M 71.687656 78.812064 
L 71.687656 8.64 
" clip-path="url(#p32d27f0f51)" style="fill: none; stroke: #cccccc; stroke-width: 0.8; stroke-linecap: round"/>
     </g>
     <g id="line2d_4"/>
    </g>
    <g id="xtick_3">
     <g id="line2d_5">
      <path d="M 102.026563 78.812064 
L 102.026563 8.64 
" clip-path="url(#p32d27f0f51)" style="fill: none; stroke: #cccccc; stroke-width: 0.8; stroke-linecap: round"/>
     </g>
     <g id="line2d_6"/>
    </g>
    <g id="xtick_4">
     <g id="line2d_7">
      <path d="M 132.365469 78.812064 
L 132.365469 8.64 
" clip-path="url(#p32d27f0f51)" style="fill: none; stroke: #cccccc; stroke-width: 0.8; stroke-linecap: round"/>
     </g>
     <g id="line2d_8"/>
    </g>
    <g id="xtick_5">
     <g id="line2d_9">
      <path d="M 162.704375 78.812064 
L 162.704375 8.64 
" clip-path="url(#p32d27f0f51)" style="fill: none; stroke: #cccccc; stroke-width: 0.8; stroke-linecap: round"/>
     </g>
     <g id="line2d_10"/>
    </g>
    <g id="xtick_6">
     <g id="line2d_11">
      <path d="M 193.043281 78.812064 
L 193.043281 8.64 
" clip-path="url(#p32d27f0f51)" style="fill: none; stroke: #cccccc; stroke-width: 0.8; stroke-linecap: round"/>
     </g>
     <g id="line2d_12"/>
    </g>
    <g id="xtick_7">
     <g id="line2d_13">
      <path d="M 223.382188 78.812064 
L 223.382188 8.64 
" clip-path="url(#p32d27f0f51)" style="fill: none; stroke: #cccccc; stroke-width: 0.8; stroke-linecap: round"/>
     </g>
     <g id="line2d_14"/>
    </g>
    <g id="xtick_8">
     <g id="line2d_15">
      <path d="M 253.721094 78.812064 
L 253.721094 8.64 
" clip-path="url(#p32d27f0f51)" style="fill: none; stroke: #cccccc; stroke-width: 0.8; stroke-linecap: round"/>
     </g>
     <g id="line2d_16"/>
    </g>
    <g id="xtick_9">
     <g id="line2d_17">
      <path d="M 284.06 78.812064 
L 284.06 8.64 
" clip-path="url(#p32d27f0f51)" style="fill: none; stroke: #cccccc; stroke-width: 0.8; stroke-linecap: round"/>
     </g>
     <g id="line2d_18"/>
    </g>
   </g>
   <g id="matplotlib.axis_2">
    <g id="ytick_1">
     <g id="line2d_19"/>
     <g id="text_1">
      <!-- 2000 -->
      <g style="fill: #262626" transform="translate(20.05375 65.061641)scale(0.08 -0.08)">
       <defs>
        <path id="ArialMT-32" d="M 3222 541 
L 3222 0 
L 194 0 
Q 188 203 259 391 
Q 375 700 629 1000 
Q 884 1300 1366 1694 
Q 2113 2306 2375 2664 
Q 2638 3022 2638 3341 
Q 2638 3675 2398 3904 
Q 2159 4134 1775 4134 
Q 1369 4134 1125 3890 
Q 881 3647 878 3216 
L 300 3275 
Q 359 3922 746 4261 
Q 1134 4600 1788 4600 
Q 2447 4600 2831 4234 
Q 3216 3869 3216 3328 
Q 3216 3053 3103 2787 
Q 2991 2522 2730 2228 
Q 2469 1934 1863 1422 
Q 1356 997 1212 845 
Q 1069 694 975 541 
L 3222 541 
z
" transform="scale(0.015625)"/>
        <path id="ArialMT-30" d="M 266 2259 
Q 266 3072 433 3567 
Q 600 4063 929 4331 
Q 1259 4600 1759 4600 
Q 2128 4600 2406 4451 
Q 2684 4303 2865 4023 
Q 3047 3744 3150 3342 
Q 3253 2941 3253 2259 
Q 3253 1453 3087 958 
Q 2922 463 2592 192 
Q 2263 -78 1759 -78 
Q 1097 -78 719 397 
Q 266 969 266 2259 
z
M 844 2259 
Q 844 1131 1108 757 
Q 1372 384 1759 384 
Q 2147 384 2411 759 
Q 2675 1134 2675 2259 
Q 2675 3391 2411 3762 
Q 2147 4134 1753 4134 
Q 1366 4134 1134 3806 
Q 844 3388 844 2259 
z
" transform="scale(0.015625)"/>
       </defs>
       <use xlink:href="#ArialMT-32"/>
       <use xlink:href="#ArialMT-30" x="55.615234"/>
       <use xlink:href="#ArialMT-30" x="111.230469"/>
       <use xlink:href="#ArialMT-30" x="166.845703"/>
      </g>
     </g>
    </g>
    <g id="ytick_2">
     <g id="line2d_20"/>
     <g id="text_2">
      <!-- 4000 -->
      <g style="fill: #262626" transform="translate(20.05375 47.079179)scale(0.08 -0.08)">
       <defs>
        <path id="ArialMT-34" d="M 2069 0 
L 2069 1097 
L 81 1097 
L 81 1613 
L 2172 4581 
L 2631 4581 
L 2631 1613 
L 3250 1613 
L 3250 1097 
L 2631 1097 
L 2631 0 
L 2069 0 
z
M 2069 1613 
L 2069 3678 
L 634 1613 
L 2069 1613 
z
" transform="scale(0.015625)"/>
       </defs>
       <use xlink:href="#ArialMT-34"/>
       <use xlink:href="#ArialMT-30" x="55.615234"/>
       <use xlink:href="#ArialMT-30" x="111.230469"/>
       <use xlink:href="#ArialMT-30" x="166.845703"/>
      </g>
     </g>
    </g>
    <g id="ytick_3">
     <g id="line2d_21"/>
     <g id="text_3">
      <!-- 6000 -->
      <g style="fill: #262626" transform="translate(20.05375 29.096717)scale(0.08 -0.08)">
       <defs>
        <path id="ArialMT-36" d="M 3184 3459 
L 2625 3416 
Q 2550 3747 2413 3897 
Q 2184 4138 1850 4138 
Q 1581 4138 1378 3988 
Q 1113 3794 959 3422 
Q 806 3050 800 2363 
Q 1003 2672 1297 2822 
Q 1591 2972 1913 2972 
Q 2475 2972 2870 2558 
Q 3266 2144 3266 1488 
Q 3266 1056 3080 686 
Q 2894 316 2569 119 
Q 2244 -78 1831 -78 
Q 1128 -78 684 439 
Q 241 956 241 2144 
Q 241 3472 731 4075 
Q 1159 4600 1884 4600 
Q 2425 4600 2770 4297 
Q 3116 3994 3184 3459 
z
M 888 1484 
Q 888 1194 1011 928 
Q 1134 663 1356 523 
Q 1578 384 1822 384 
Q 2178 384 2434 671 
Q 2691 959 2691 1453 
Q 2691 1928 2437 2201 
Q 2184 2475 1800 2475 
Q 1419 2475 1153 2201 
Q 888 1928 888 1484 
z
" transform="scale(0.015625)"/>
       </defs>
       <use xlink:href="#ArialMT-36"/>
       <use xlink:href="#ArialMT-30" x="55.615234"/>
       <use xlink:href="#ArialMT-30" x="111.230469"/>
       <use xlink:href="#ArialMT-30" x="166.845703"/>
      </g>
     </g>
    </g>
    <g id="text_4">
     <!-- N of inscriptions -->
     <g style="fill: #262626" transform="translate(14.46375 72.179782)rotate(-90)scale(0.08 -0.08)">
      <defs>
       <path id="ArialMT-4e" d="M 488 0 
L 488 4581 
L 1109 4581 
L 3516 984 
L 3516 4581 
L 4097 4581 
L 4097 0 
L 3475 0 
L 1069 3600 
L 1069 0 
L 488 0 
z
" transform="scale(0.015625)"/>
       <path id="ArialMT-20" transform="scale(0.015625)"/>
       <path id="ArialMT-6f" d="M 213 1659 
Q 213 2581 725 3025 
Q 1153 3394 1769 3394 
Q 2453 3394 2887 2945 
Q 3322 2497 3322 1706 
Q 3322 1066 3130 698 
Q 2938 331 2570 128 
Q 2203 -75 1769 -75 
Q 1072 -75 642 372 
Q 213 819 213 1659 
z
M 791 1659 
Q 791 1022 1069 705 
Q 1347 388 1769 388 
Q 2188 388 2466 706 
Q 2744 1025 2744 1678 
Q 2744 2294 2464 2611 
Q 2184 2928 1769 2928 
Q 1347 2928 1069 2612 
Q 791 2297 791 1659 
z
" transform="scale(0.015625)"/>
       <path id="ArialMT-66" d="M 556 0 
L 556 2881 
L 59 2881 
L 59 3319 
L 556 3319 
L 556 3672 
Q 556 4006 616 4169 
Q 697 4388 901 4523 
Q 1106 4659 1475 4659 
Q 1713 4659 2000 4603 
L 1916 4113 
Q 1741 4144 1584 4144 
Q 1328 4144 1222 4034 
Q 1116 3925 1116 3625 
L 1116 3319 
L 1763 3319 
L 1763 2881 
L 1116 2881 
L 1116 0 
L 556 0 
z
" transform="scale(0.015625)"/>
       <path id="ArialMT-69" d="M 425 3934 
L 425 4581 
L 988 4581 
L 988 3934 
L 425 3934 
z
M 425 0 
L 425 3319 
L 988 3319 
L 988 0 
L 425 0 
z
" transform="scale(0.015625)"/>
       <path id="ArialMT-6e" d="M 422 0 
L 422 3319 
L 928 3319 
L 928 2847 
Q 1294 3394 1984 3394 
Q 2284 3394 2536 3286 
Q 2788 3178 2913 3003 
Q 3038 2828 3088 2588 
Q 3119 2431 3119 2041 
L 3119 0 
L 2556 0 
L 2556 2019 
Q 2556 2363 2490 2533 
Q 2425 2703 2258 2804 
Q 2091 2906 1866 2906 
Q 1506 2906 1245 2678 
Q 984 2450 984 1813 
L 984 0 
L 422 0 
z
" transform="scale(0.015625)"/>
       <path id="ArialMT-73" d="M 197 991 
L 753 1078 
Q 800 744 1014 566 
Q 1228 388 1613 388 
Q 2000 388 2187 545 
Q 2375 703 2375 916 
Q 2375 1106 2209 1216 
Q 2094 1291 1634 1406 
Q 1016 1563 777 1677 
Q 538 1791 414 1992 
Q 291 2194 291 2438 
Q 291 2659 392 2848 
Q 494 3038 669 3163 
Q 800 3259 1026 3326 
Q 1253 3394 1513 3394 
Q 1903 3394 2198 3281 
Q 2494 3169 2634 2976 
Q 2775 2784 2828 2463 
L 2278 2388 
Q 2241 2644 2061 2787 
Q 1881 2931 1553 2931 
Q 1166 2931 1000 2803 
Q 834 2675 834 2503 
Q 834 2394 903 2306 
Q 972 2216 1119 2156 
Q 1203 2125 1616 2013 
Q 2213 1853 2448 1751 
Q 2684 1650 2818 1456 
Q 2953 1263 2953 975 
Q 2953 694 2789 445 
Q 2625 197 2315 61 
Q 2006 -75 1616 -75 
Q 969 -75 630 194 
Q 291 463 197 991 
z
" transform="scale(0.015625)"/>
       <path id="ArialMT-63" d="M 2588 1216 
L 3141 1144 
Q 3050 572 2676 248 
Q 2303 -75 1759 -75 
Q 1078 -75 664 370 
Q 250 816 250 1647 
Q 250 2184 428 2587 
Q 606 2991 970 3192 
Q 1334 3394 1763 3394 
Q 2303 3394 2647 3120 
Q 2991 2847 3088 2344 
L 2541 2259 
Q 2463 2594 2264 2762 
Q 2066 2931 1784 2931 
Q 1359 2931 1093 2626 
Q 828 2322 828 1663 
Q 828 994 1084 691 
Q 1341 388 1753 388 
Q 2084 388 2306 591 
Q 2528 794 2588 1216 
z
" transform="scale(0.015625)"/>
       <path id="ArialMT-72" d="M 416 0 
L 416 3319 
L 922 3319 
L 922 2816 
Q 1116 3169 1280 3281 
Q 1444 3394 1641 3394 
Q 1925 3394 2219 3213 
L 2025 2691 
Q 1819 2813 1613 2813 
Q 1428 2813 1281 2702 
Q 1134 2591 1072 2394 
Q 978 2094 978 1738 
L 978 0 
L 416 0 
z
" transform="scale(0.015625)"/>
       <path id="ArialMT-70" d="M 422 -1272 
L 422 3319 
L 934 3319 
L 934 2888 
Q 1116 3141 1344 3267 
Q 1572 3394 1897 3394 
Q 2322 3394 2647 3175 
Q 2972 2956 3137 2557 
Q 3303 2159 3303 1684 
Q 3303 1175 3120 767 
Q 2938 359 2589 142 
Q 2241 -75 1856 -75 
Q 1575 -75 1351 44 
Q 1128 163 984 344 
L 984 -1272 
L 422 -1272 
z
M 931 1641 
Q 931 1000 1190 694 
Q 1450 388 1819 388 
Q 2194 388 2461 705 
Q 2728 1022 2728 1688 
Q 2728 2322 2467 2637 
Q 2206 2953 1844 2953 
Q 1484 2953 1207 2617 
Q 931 2281 931 1641 
z
" transform="scale(0.015625)"/>
       <path id="ArialMT-74" d="M 1650 503 
L 1731 6 
Q 1494 -44 1306 -44 
Q 1000 -44 831 53 
Q 663 150 594 308 
Q 525 466 525 972 
L 525 2881 
L 113 2881 
L 113 3319 
L 525 3319 
L 525 4141 
L 1084 4478 
L 1084 3319 
L 1650 3319 
L 1650 2881 
L 1084 2881 
L 1084 941 
Q 1084 700 1114 631 
Q 1144 563 1211 522 
Q 1278 481 1403 481 
Q 1497 481 1650 503 
z
" transform="scale(0.015625)"/>
      </defs>
      <use xlink:href="#ArialMT-4e"/>
      <use xlink:href="#ArialMT-20" x="72.216797"/>
      <use xlink:href="#ArialMT-6f" x="100"/>
      <use xlink:href="#ArialMT-66" x="155.615234"/>
      <use xlink:href="#ArialMT-20" x="183.398438"/>
      <use xlink:href="#ArialMT-69" x="211.181641"/>
      <use xlink:href="#ArialMT-6e" x="233.398438"/>
      <use xlink:href="#ArialMT-73" x="289.013672"/>
      <use xlink:href="#ArialMT-63" x="339.013672"/>
      <use xlink:href="#ArialMT-72" x="389.013672"/>
      <use xlink:href="#ArialMT-69" x="422.314453"/>
      <use xlink:href="#ArialMT-70" x="444.53125"/>
      <use xlink:href="#ArialMT-74" x="500.146484"/>
      <use xlink:href="#ArialMT-69" x="527.929688"/>
      <use xlink:href="#ArialMT-6f" x="550.146484"/>
      <use xlink:href="#ArialMT-6e" x="605.761719"/>
      <use xlink:href="#ArialMT-73" x="661.376953"/>
     </g>
    </g>
   </g>
   <g id="patch_3">
    <path d="M 56.214814 65.750053 
L 87.160498 17.01758 
L 117.499405 36.843244 
L 147.838311 24.462319 
L 178.177217 40.214956 
L 208.516123 54.394128 
L 238.85503 61.820885 
L 269.193936 31.961006 
L 269.193936 29.614295 
L 238.85503 60.589086 
L 208.516123 53.090399 
L 178.177217 38.093026 
L 147.838311 21.971748 
L 117.499405 35.018024 
L 87.160498 15.246307 
L 56.214814 64.994789 
z
" clip-path="url(#p32d27f0f51)" style="fill: #808080; opacity: 0.5; stroke: #808080; stroke-linejoin: miter"/>
   </g>
   <g id="patch_4">
    <path d="M 56.214814 65.705096 
L 87.160498 16.442141 
L 117.499405 36.510569 
L 147.838311 23.88688 
L 178.177217 39.936228 
L 208.516123 54.259259 
L 238.85503 61.632069 
L 269.193936 31.520436 
L 269.193936 29.991926 
L 238.85503 60.768911 
L 208.516123 53.306189 
L 178.177217 38.659473 
L 147.838311 22.223503 
L 117.499405 35.224823 
L 87.160498 15.309246 
L 56.214814 65.165623 
z
" clip-path="url(#p32d27f0f51)" style="fill: #8b0000; stroke: #8b0000; stroke-linejoin: miter"/>
   </g>
   <g id="patch_5">
    <path d="M 56.214814 68.348518 
L 87.160498 28.517364 
L 117.499405 13.825693 
L 147.838311 40.583597 
L 178.177217 31.91605 
L 208.516123 42.076141 
L 238.85503 59.878779 
L 269.193936 71.801151 
L 269.193936 70.776151 
L 238.85503 58.422199 
L 208.516123 40.089079 
L 178.177217 29.659251 
L 147.838311 38.614517 
L 117.499405 11.829639 
L 87.160498 26.44039 
L 56.214814 66.954878 
z
" clip-path="url(#p32d27f0f51)" style="fill: #808080; opacity: 0.5; stroke: #808080; stroke-linejoin: miter"/>
   </g>
   <g id="patch_6">
    <path d="M 56.214814 67.907948 
L 87.160498 28.319557 
L 117.499405 13.591921 
L 147.838311 40.125044 
L 178.177217 31.736225 
L 208.516123 41.7075 
L 238.85503 59.573077 
L 269.193936 71.621327 
L 269.193936 71.018914 
L 238.85503 58.548076 
L 208.516123 40.439737 
L 178.177217 30.072847 
L 147.838311 38.71342 
L 117.499405 12.207271 
L 87.160498 26.844995 
L 56.214814 67.260579 
z
" clip-path="url(#p32d27f0f51)" style="fill: #006400; stroke: #006400; stroke-linejoin: miter"/>
   </g>
   <g id="patch_7">
    <path d="M 56.214814 67.224615 
L 87.160498 45.115177 
L 117.499405 46.607721 
L 147.838311 40.268903 
L 178.177217 39.540614 
L 208.516123 42.777457 
L 238.85503 64.608166 
L 269.193936 75.622424 
L 269.193936 74.876152 
L 238.85503 63.475271 
L 208.516123 41.419781 
L 178.177217 36.924165 
L 147.838311 38.012104 
L 117.499405 44.962326 
L 87.160498 43.442808 
L 56.214814 66.235579 
z
" clip-path="url(#p32d27f0f51)" style="fill: #808080; opacity: 0.5; stroke: #808080; stroke-linejoin: miter"/>
   </g>
   <g id="patch_8">
    <path d="M 56.214814 67.071764 
L 87.160498 44.809475 
L 117.499405 46.373949 
L 147.838311 39.72943 
L 178.177217 38.704429 
L 208.516123 42.516711 
L 238.85503 64.509263 
L 269.193936 75.433609 
L 269.193936 75.00203 
L 238.85503 63.664087 
L 208.516123 41.509693 
L 178.177217 37.139955 
L 147.838311 38.569561 
L 117.499405 45.312984 
L 87.160498 43.811449 
L 56.214814 66.469351 
z
" clip-path="url(#p32d27f0f51)" style="fill: #00008b; stroke: #00008b; stroke-linejoin: miter"/>
   </g>
   <g id="patch_9">
    <path d="M 56.214814 74.165845 
L 87.160498 51.103337 
L 117.499405 46.266055 
L 147.838311 20.982713 
L 178.177217 15.623939 
L 208.516123 23.086661 
L 238.85503 52.398074 
L 269.193936 71.531414 
L 269.193936 70.929002 
L 238.85503 50.698732 
L 208.516123 21.243458 
L 178.177217 12.701789 
L 147.838311 18.62701 
L 117.499405 44.135133 
L 87.160498 49.556845 
L 56.214814 73.581415 
z
" clip-path="url(#p32d27f0f51)" style="fill: #808080; opacity: 0.5; stroke: #808080; stroke-linejoin: miter"/>
   </g>
   <g id="patch_10">
    <path d="M 56.214814 73.959047 
L 87.160498 50.986451 
L 117.499405 46.005309 
L 147.838311 20.641046 
L 178.177217 15.12043 
L 208.516123 22.538196 
L 238.85503 52.056408 
L 269.193936 71.477467 
L 269.193936 70.964967 
L 238.85503 51.103337 
L 208.516123 21.360344 
L 178.177217 13.178324 
L 147.838311 18.887756 
L 117.499405 44.557721 
L 87.160498 49.853556 
L 56.214814 73.608389 
z
" clip-path="url(#p32d27f0f51)" style="fill: #800080; stroke: #800080; stroke-linejoin: miter"/>
   </g>
   <g id="patch_11">
    <path d="M 41.34875 78.812064 
L 41.34875 8.64 
" style="fill: none; stroke: #262626; stroke-width: 1.25; stroke-linejoin: miter; stroke-linecap: square"/>
   </g>
   <g id="patch_12">
    <path d="M 284.06 78.812064 
L 284.06 8.64 
" style="fill: none; stroke: #262626; stroke-width: 1.25; stroke-linejoin: miter; stroke-linecap: square"/>
   </g>
   <g id="patch_13">
    <path d="M 41.34875 78.812064 
L 284.06 78.812064 
" style="fill: none; stroke: #262626; stroke-width: 1.25; stroke-linejoin: miter; stroke-linecap: square"/>
   </g>
   <g id="patch_14">
    <path d="M 41.34875 8.64 
L 284.06 8.64 
" style="fill: none; stroke: #262626; stroke-width: 1.25; stroke-linejoin: miter; stroke-linecap: square"/>
   </g>
   <g id="text_5">
    <!-- A -->
    <g style="fill: #262626" transform="translate(43.001225 20.183016)scale(0.096 -0.096)">
     <defs>
      <path id="ArialMT-41" d="M -9 0 
L 1750 4581 
L 2403 4581 
L 4278 0 
L 3588 0 
L 3053 1388 
L 1138 1388 
L 634 0 
L -9 0 
z
M 1313 1881 
L 2866 1881 
L 2388 3150 
Q 2169 3728 2063 4100 
Q 1975 3659 1816 3225 
L 1313 1881 
z
" transform="scale(0.015625)"/>
     </defs>
     <use xlink:href="#ArialMT-41"/>
    </g>
   </g>
  </g>
  <g id="axes_2">
   <g id="patch_15">
    <path d="M 41.34875 159.277907 
L 284.06 159.277907 
L 284.06 89.105843 
L 41.34875 89.105843 
z
" style="fill: #ffffff"/>
   </g>
   <g id="matplotlib.axis_3">
    <g id="xtick_10">
     <g id="line2d_22">
      <path d="M 41.34875 159.277907 
L 41.34875 89.105843 
" clip-path="url(#p5e916b2bb1)" style="fill: none; stroke: #cccccc; stroke-width: 0.8; stroke-linecap: round"/>
     </g>
     <g id="line2d_23"/>
    </g>
    <g id="xtick_11">
     <g id="line2d_24">
      <path d="M 71.687656 159.277907 
L 71.687656 89.105843 
" clip-path="url(#p5e916b2bb1)" style="fill: none; stroke: #cccccc; stroke-width: 0.8; stroke-linecap: round"/>
     </g>
     <g id="line2d_25"/>
    </g>
    <g id="xtick_12">
     <g id="line2d_26">
      <path d="M 102.026563 159.277907 
L 102.026563 89.105843 
" clip-path="url(#p5e916b2bb1)" style="fill: none; stroke: #cccccc; stroke-width: 0.8; stroke-linecap: round"/>
     </g>
     <g id="line2d_27"/>
    </g>
    <g id="xtick_13">
     <g id="line2d_28">
      <path d="M 132.365469 159.277907 
L 132.365469 89.105843 
" clip-path="url(#p5e916b2bb1)" style="fill: none; stroke: #cccccc; stroke-width: 0.8; stroke-linecap: round"/>
     </g>
     <g id="line2d_29"/>
    </g>
    <g id="xtick_14">
     <g id="line2d_30">
      <path d="M 162.704375 159.277907 
L 162.704375 89.105843 
" clip-path="url(#p5e916b2bb1)" style="fill: none; stroke: #cccccc; stroke-width: 0.8; stroke-linecap: round"/>
     </g>
     <g id="line2d_31"/>
    </g>
    <g id="xtick_15">
     <g id="line2d_32">
      <path d="M 193.043281 159.277907 
L 193.043281 89.105843 
" clip-path="url(#p5e916b2bb1)" style="fill: none; stroke: #cccccc; stroke-width: 0.8; stroke-linecap: round"/>
     </g>
     <g id="line2d_33"/>
    </g>
    <g id="xtick_16">
     <g id="line2d_34">
      <path d="M 223.382188 159.277907 
L 223.382188 89.105843 
" clip-path="url(#p5e916b2bb1)" style="fill: none; stroke: #cccccc; stroke-width: 0.8; stroke-linecap: round"/>
     </g>
     <g id="line2d_35"/>
    </g>
    <g id="xtick_17">
     <g id="line2d_36">
      <path d="M 253.721094 159.277907 
L 253.721094 89.105843 
" clip-path="url(#p5e916b2bb1)" style="fill: none; stroke: #cccccc; stroke-width: 0.8; stroke-linecap: round"/>
     </g>
     <g id="line2d_37"/>
    </g>
    <g id="xtick_18">
     <g id="line2d_38">
      <path d="M 284.06 159.277907 
L 284.06 89.105843 
" clip-path="url(#p5e916b2bb1)" style="fill: none; stroke: #cccccc; stroke-width: 0.8; stroke-linecap: round"/>
     </g>
     <g id="line2d_39"/>
    </g>
   </g>
   <g id="matplotlib.axis_4">
    <g id="ytick_4">
     <g id="line2d_40"/>
     <g id="text_6">
      <!-- 0 -->
      <g style="fill: #262626" transform="translate(33.4 159.332624)scale(0.08 -0.08)">
       <use xlink:href="#ArialMT-30"/>
      </g>
     </g>
    </g>
    <g id="ytick_5">
     <g id="line2d_41"/>
     <g id="text_7">
      <!-- 200 -->
      <g style="fill: #262626" transform="translate(24.5025 133.917172)scale(0.08 -0.08)">
       <use xlink:href="#ArialMT-32"/>
       <use xlink:href="#ArialMT-30" x="55.615234"/>
       <use xlink:href="#ArialMT-30" x="111.230469"/>
      </g>
     </g>
    </g>
    <g id="ytick_6">
     <g id="line2d_42"/>
     <g id="text_8">
      <!-- 400 -->
      <g style="fill: #262626" transform="translate(24.5025 108.50172)scale(0.08 -0.08)">
       <use xlink:href="#ArialMT-34"/>
       <use xlink:href="#ArialMT-30" x="55.615234"/>
       <use xlink:href="#ArialMT-30" x="111.230469"/>
      </g>
     </g>
    </g>
    <g id="text_9">
     <!-- N of occcupations -->
     <g style="fill: #262626" transform="translate(18.9125 155.985)rotate(-90)scale(0.08 -0.08)">
      <defs>
       <path id="ArialMT-75" d="M 2597 0 
L 2597 488 
Q 2209 -75 1544 -75 
Q 1250 -75 995 37 
Q 741 150 617 320 
Q 494 491 444 738 
Q 409 903 409 1263 
L 409 3319 
L 972 3319 
L 972 1478 
Q 972 1038 1006 884 
Q 1059 663 1231 536 
Q 1403 409 1656 409 
Q 1909 409 2131 539 
Q 2353 669 2445 892 
Q 2538 1116 2538 1541 
L 2538 3319 
L 3100 3319 
L 3100 0 
L 2597 0 
z
" transform="scale(0.015625)"/>
       <path id="ArialMT-61" d="M 2588 409 
Q 2275 144 1986 34 
Q 1697 -75 1366 -75 
Q 819 -75 525 192 
Q 231 459 231 875 
Q 231 1119 342 1320 
Q 453 1522 633 1644 
Q 813 1766 1038 1828 
Q 1203 1872 1538 1913 
Q 2219 1994 2541 2106 
Q 2544 2222 2544 2253 
Q 2544 2597 2384 2738 
Q 2169 2928 1744 2928 
Q 1347 2928 1158 2789 
Q 969 2650 878 2297 
L 328 2372 
Q 403 2725 575 2942 
Q 747 3159 1072 3276 
Q 1397 3394 1825 3394 
Q 2250 3394 2515 3294 
Q 2781 3194 2906 3042 
Q 3031 2891 3081 2659 
Q 3109 2516 3109 2141 
L 3109 1391 
Q 3109 606 3145 398 
Q 3181 191 3288 0 
L 2700 0 
Q 2613 175 2588 409 
z
M 2541 1666 
Q 2234 1541 1622 1453 
Q 1275 1403 1131 1340 
Q 988 1278 909 1158 
Q 831 1038 831 891 
Q 831 666 1001 516 
Q 1172 366 1500 366 
Q 1825 366 2078 508 
Q 2331 650 2450 897 
Q 2541 1088 2541 1459 
L 2541 1666 
z
" transform="scale(0.015625)"/>
      </defs>
      <use xlink:href="#ArialMT-4e"/>
      <use xlink:href="#ArialMT-20" x="72.216797"/>
      <use xlink:href="#ArialMT-6f" x="100"/>
      <use xlink:href="#ArialMT-66" x="155.615234"/>
      <use xlink:href="#ArialMT-20" x="183.398438"/>
      <use xlink:href="#ArialMT-6f" x="211.181641"/>
      <use xlink:href="#ArialMT-63" x="266.796875"/>
      <use xlink:href="#ArialMT-63" x="316.796875"/>
      <use xlink:href="#ArialMT-63" x="366.796875"/>
      <use xlink:href="#ArialMT-75" x="416.796875"/>
      <use xlink:href="#ArialMT-70" x="472.412109"/>
      <use xlink:href="#ArialMT-61" x="528.027344"/>
      <use xlink:href="#ArialMT-74" x="583.642578"/>
      <use xlink:href="#ArialMT-69" x="611.425781"/>
      <use xlink:href="#ArialMT-6f" x="633.642578"/>
      <use xlink:href="#ArialMT-6e" x="689.257812"/>
      <use xlink:href="#ArialMT-73" x="744.873047"/>
     </g>
    </g>
   </g>
   <g id="patch_16">
    <path d="M 56.214814 147.192859 
L 87.160498 99.157655 
L 117.499405 133.341438 
L 147.838311 128.004193 
L 178.177217 129.783275 
L 208.516123 139.568224 
L 238.85503 148.844864 
L 269.193936 150.8781 
L 269.193936 147.701168 
L 238.85503 144.524237 
L 208.516123 134.230979 
L 178.177217 123.429411 
L 147.838311 120.760789 
L 117.499405 127.241729 
L 87.160498 92.295482 
L 56.214814 142.872232 
z
" clip-path="url(#p5e916b2bb1)" style="fill: #808080; opacity: 0.5; stroke: #808080; stroke-linejoin: miter"/>
   </g>
   <g id="patch_17">
    <path d="M 56.214814 145.922087 
L 87.160498 97.50565 
L 117.499405 131.816511 
L 147.838311 125.970957 
L 178.177217 128.258347 
L 208.516123 137.789142 
L 238.85503 147.828246 
L 269.193936 150.242714 
L 269.193936 148.590709 
L 238.85503 145.795009 
L 208.516123 135.120519 
L 178.177217 125.081416 
L 147.838311 122.794025 
L 117.499405 128.512502 
L 87.160498 94.328719 
L 56.214814 143.761773 
z
" clip-path="url(#p5e916b2bb1)" style="fill: #8b0000; stroke: #8b0000; stroke-linejoin: miter"/>
   </g>
   <g id="patch_18">
    <path d="M 56.214814 152.021795 
L 87.160498 136.645447 
L 117.499405 138.80576 
L 147.838311 139.695301 
L 178.177217 133.976824 
L 208.516123 138.424528 
L 238.85503 150.369791 
L 269.193936 154.436263 
L 269.193936 152.784259 
L 238.85503 145.540855 
L 208.516123 132.960206 
L 178.177217 126.606343 
L 147.838311 133.595592 
L 117.499405 133.087283 
L 87.160498 130.799893 
L 56.214814 149.353173 
z
" clip-path="url(#p5e916b2bb1)" style="fill: #808080; opacity: 0.5; stroke: #808080; stroke-linejoin: miter"/>
   </g>
   <g id="patch_19">
    <path d="M 56.214814 151.386409 
L 87.160498 135.374674 
L 117.499405 137.662065 
L 147.838311 138.297451 
L 178.177217 131.689433 
L 208.516123 137.280833 
L 238.85503 148.844864 
L 269.193936 154.055031 
L 269.193936 153.165491 
L 238.85503 146.430396 
L 208.516123 134.485133 
L 178.177217 128.13127 
L 147.838311 134.993442 
L 117.499405 134.61221 
L 87.160498 132.578974 
L 56.214814 149.861482 
z
" clip-path="url(#p5e916b2bb1)" style="fill: #006400; stroke: #006400; stroke-linejoin: miter"/>
   </g>
   <g id="patch_20">
    <path d="M 56.214814 152.784259 
L 87.160498 141.60146 
L 117.499405 144.39716 
L 147.838311 133.849747 
L 178.177217 131.562356 
L 208.516123 139.949455 
L 238.85503 152.148873 
L 269.193936 155.325804 
L 269.193936 153.419645 
L 238.85503 149.099018 
L 208.516123 135.374674 
L 178.177217 123.93772 
L 147.838311 125.843879 
L 117.499405 138.932837 
L 87.160498 136.391292 
L 56.214814 149.607327 
z
" clip-path="url(#p5e916b2bb1)" style="fill: #808080; opacity: 0.5; stroke: #808080; stroke-linejoin: miter"/>
   </g>
   <g id="patch_21">
    <path d="M 56.214814 151.894718 
L 87.160498 140.330687 
L 117.499405 142.872232 
L 147.838311 132.070665 
L 178.177217 129.020811 
L 208.516123 138.932837 
L 238.85503 151.386409 
L 269.193936 154.817495 
L 269.193936 153.800877 
L 238.85503 149.861482 
L 208.516123 136.518369 
L 178.177217 125.33557 
L 147.838311 128.512502 
L 117.499405 140.076533 
L 87.160498 137.789142 
L 56.214814 150.369791 
z
" clip-path="url(#p5e916b2bb1)" style="fill: #00008b; stroke: #00008b; stroke-linejoin: miter"/>
   </g>
   <g id="patch_22">
    <path d="M 56.214814 156.088268 
L 87.160498 151.640563 
L 117.499405 149.353173 
L 147.838311 145.032546 
L 178.177217 140.711919 
L 208.516123 140.711919 
L 238.85503 151.767641 
L 269.193936 155.834113 
L 269.193936 154.309186 
L 238.85503 148.209477 
L 208.516123 136.01006 
L 178.177217 135.374674 
L 147.838311 140.838996 
L 117.499405 145.413778 
L 87.160498 147.955323 
L 56.214814 154.944572 
z
" clip-path="url(#p5e916b2bb1)" style="fill: #808080; opacity: 0.5; stroke: #808080; stroke-linejoin: miter"/>
   </g>
   <g id="patch_23">
    <path d="M 56.214814 155.834113 
L 87.160498 150.496868 
L 117.499405 148.336555 
L 147.838311 144.015928 
L 178.177217 139.695301 
L 208.516123 139.695301 
L 238.85503 150.8781 
L 269.193936 155.452881 
L 269.193936 154.690418 
L 238.85503 149.099018 
L 208.516123 136.899601 
L 178.177217 136.899601 
L 147.838311 141.855614 
L 117.499405 146.430396 
L 87.160498 148.971941 
L 56.214814 155.198727 
z
" clip-path="url(#p5e916b2bb1)" style="fill: #800080; stroke: #800080; stroke-linejoin: miter"/>
   </g>
   <g id="patch_24">
    <path d="M 41.34875 159.277907 
L 41.34875 89.105843 
" style="fill: none; stroke: #262626; stroke-width: 1.25; stroke-linejoin: miter; stroke-linecap: square"/>
   </g>
   <g id="patch_25">
    <path d="M 284.06 159.277907 
L 284.06 89.105843 
" style="fill: none; stroke: #262626; stroke-width: 1.25; stroke-linejoin: miter; stroke-linecap: square"/>
   </g>
   <g id="patch_26">
    <path d="M 41.34875 159.277907 
L 284.06 159.277907 
" style="fill: none; stroke: #262626; stroke-width: 1.25; stroke-linejoin: miter; stroke-linecap: square"/>
   </g>
   <g id="patch_27">
    <path d="M 41.34875 89.105843 
L 284.06 89.105843 
" style="fill: none; stroke: #262626; stroke-width: 1.25; stroke-linejoin: miter; stroke-linecap: square"/>
   </g>
   <g id="text_10">
    <!-- B -->
    <g style="fill: #262626" transform="translate(43.001225 100.648859)scale(0.096 -0.096)">
     <defs>
      <path id="ArialMT-42" d="M 469 0 
L 469 4581 
L 2188 4581 
Q 2713 4581 3030 4442 
Q 3347 4303 3526 4014 
Q 3706 3725 3706 3409 
Q 3706 3116 3547 2856 
Q 3388 2597 3066 2438 
Q 3481 2316 3704 2022 
Q 3928 1728 3928 1328 
Q 3928 1006 3792 729 
Q 3656 453 3456 303 
Q 3256 153 2954 76 
Q 2653 0 2216 0 
L 469 0 
z
M 1075 2656 
L 2066 2656 
Q 2469 2656 2644 2709 
Q 2875 2778 2992 2937 
Q 3109 3097 3109 3338 
Q 3109 3566 3000 3739 
Q 2891 3913 2687 3977 
Q 2484 4041 1991 4041 
L 1075 4041 
L 1075 2656 
z
M 1075 541 
L 2216 541 
Q 2509 541 2628 563 
Q 2838 600 2978 687 
Q 3119 775 3209 942 
Q 3300 1109 3300 1328 
Q 3300 1584 3169 1773 
Q 3038 1963 2805 2039 
Q 2572 2116 2134 2116 
L 1075 2116 
L 1075 541 
z
" transform="scale(0.015625)"/>
     </defs>
     <use xlink:href="#ArialMT-42"/>
    </g>
   </g>
  </g>
  <g id="axes_3">
   <g id="patch_28">
    <path d="M 41.34875 239.74375 
L 284.06 239.74375 
L 284.06 169.571686 
L 41.34875 169.571686 
z
" style="fill: #ffffff"/>
   </g>
   <g id="matplotlib.axis_5">
    <g id="xtick_19">
     <g id="line2d_43">
      <path d="M 41.34875 239.74375 
L 41.34875 169.571686 
" clip-path="url(#p410ca45480)" style="fill: none; stroke: #cccccc; stroke-width: 0.8; stroke-linecap: round"/>
     </g>
     <g id="line2d_44"/>
     <g id="text_11">
      <!-- −50 -->
      <g style="fill: #262626" transform="translate(34.56375 248.97)scale(0.08 -0.08)">
       <defs>
        <path id="ArialMT-2212" d="M 3381 1997 
L 356 1997 
L 356 2522 
L 3381 2522 
L 3381 1997 
z
" transform="scale(0.015625)"/>
        <path id="ArialMT-35" d="M 266 1200 
L 856 1250 
Q 922 819 1161 601 
Q 1400 384 1738 384 
Q 2144 384 2425 690 
Q 2706 997 2706 1503 
Q 2706 1984 2436 2262 
Q 2166 2541 1728 2541 
Q 1456 2541 1237 2417 
Q 1019 2294 894 2097 
L 366 2166 
L 809 4519 
L 3088 4519 
L 3088 3981 
L 1259 3981 
L 1013 2750 
Q 1425 3038 1878 3038 
Q 2478 3038 2890 2622 
Q 3303 2206 3303 1553 
Q 3303 931 2941 478 
Q 2500 -78 1738 -78 
Q 1113 -78 717 272 
Q 322 622 266 1200 
z
" transform="scale(0.015625)"/>
       </defs>
       <use xlink:href="#ArialMT-2212"/>
       <use xlink:href="#ArialMT-35" x="58.398438"/>
       <use xlink:href="#ArialMT-30" x="114.013672"/>
      </g>
     </g>
    </g>
    <g id="xtick_20">
     <g id="line2d_45">
      <path d="M 71.687656 239.74375 
L 71.687656 169.571686 
" clip-path="url(#p410ca45480)" style="fill: none; stroke: #cccccc; stroke-width: 0.8; stroke-linecap: round"/>
     </g>
     <g id="line2d_46"/>
     <g id="text_12">
      <!-- 0 -->
      <g style="fill: #262626" transform="translate(69.463281 248.97)scale(0.08 -0.08)">
       <use xlink:href="#ArialMT-30"/>
      </g>
     </g>
    </g>
    <g id="xtick_21">
     <g id="line2d_47">
      <path d="M 102.026563 239.74375 
L 102.026563 169.571686 
" clip-path="url(#p410ca45480)" style="fill: none; stroke: #cccccc; stroke-width: 0.8; stroke-linecap: round"/>
     </g>
     <g id="line2d_48"/>
     <g id="text_13">
      <!-- 50 -->
      <g style="fill: #262626" transform="translate(97.577813 248.97)scale(0.08 -0.08)">
       <use xlink:href="#ArialMT-35"/>
       <use xlink:href="#ArialMT-30" x="55.615234"/>
      </g>
     </g>
    </g>
    <g id="xtick_22">
     <g id="line2d_49">
      <path d="M 132.365469 239.74375 
L 132.365469 169.571686 
" clip-path="url(#p410ca45480)" style="fill: none; stroke: #cccccc; stroke-width: 0.8; stroke-linecap: round"/>
     </g>
     <g id="line2d_50"/>
     <g id="text_14">
      <!-- 100 -->
      <g style="fill: #262626" transform="translate(125.692344 248.97)scale(0.08 -0.08)">
       <defs>
        <path id="ArialMT-31" d="M 2384 0 
L 1822 0 
L 1822 3584 
Q 1619 3391 1289 3197 
Q 959 3003 697 2906 
L 697 3450 
Q 1169 3672 1522 3987 
Q 1875 4303 2022 4600 
L 2384 4600 
L 2384 0 
z
" transform="scale(0.015625)"/>
       </defs>
       <use xlink:href="#ArialMT-31"/>
       <use xlink:href="#ArialMT-30" x="55.615234"/>
       <use xlink:href="#ArialMT-30" x="111.230469"/>
      </g>
     </g>
    </g>
    <g id="xtick_23">
     <g id="line2d_51">
      <path d="M 162.704375 239.74375 
L 162.704375 169.571686 
" clip-path="url(#p410ca45480)" style="fill: none; stroke: #cccccc; stroke-width: 0.8; stroke-linecap: round"/>
     </g>
     <g id="line2d_52"/>
     <g id="text_15">
      <!-- 150 -->
      <g style="fill: #262626" transform="translate(156.03125 248.97)scale(0.08 -0.08)">
       <use xlink:href="#ArialMT-31"/>
       <use xlink:href="#ArialMT-35" x="55.615234"/>
       <use xlink:href="#ArialMT-30" x="111.230469"/>
      </g>
     </g>
    </g>
    <g id="xtick_24">
     <g id="line2d_53">
      <path d="M 193.043281 239.74375 
L 193.043281 169.571686 
" clip-path="url(#p410ca45480)" style="fill: none; stroke: #cccccc; stroke-width: 0.8; stroke-linecap: round"/>
     </g>
     <g id="line2d_54"/>
     <g id="text_16">
      <!-- 200 -->
      <g style="fill: #262626" transform="translate(186.370156 248.97)scale(0.08 -0.08)">
       <use xlink:href="#ArialMT-32"/>
       <use xlink:href="#ArialMT-30" x="55.615234"/>
       <use xlink:href="#ArialMT-30" x="111.230469"/>
      </g>
     </g>
    </g>
    <g id="xtick_25">
     <g id="line2d_55">
      <path d="M 223.382188 239.74375 
L 223.382188 169.571686 
" clip-path="url(#p410ca45480)" style="fill: none; stroke: #cccccc; stroke-width: 0.8; stroke-linecap: round"/>
     </g>
     <g id="line2d_56"/>
     <g id="text_17">
      <!-- 250 -->
      <g style="fill: #262626" transform="translate(216.709063 248.97)scale(0.08 -0.08)">
       <use xlink:href="#ArialMT-32"/>
       <use xlink:href="#ArialMT-35" x="55.615234"/>
       <use xlink:href="#ArialMT-30" x="111.230469"/>
      </g>
     </g>
    </g>
    <g id="xtick_26">
     <g id="line2d_57">
      <path d="M 253.721094 239.74375 
L 253.721094 169.571686 
" clip-path="url(#p410ca45480)" style="fill: none; stroke: #cccccc; stroke-width: 0.8; stroke-linecap: round"/>
     </g>
     <g id="line2d_58"/>
     <g id="text_18">
      <!-- 300 -->
      <g style="fill: #262626" transform="translate(247.047969 248.97)scale(0.08 -0.08)">
       <defs>
        <path id="ArialMT-33" d="M 269 1209 
L 831 1284 
Q 928 806 1161 595 
Q 1394 384 1728 384 
Q 2125 384 2398 659 
Q 2672 934 2672 1341 
Q 2672 1728 2419 1979 
Q 2166 2231 1775 2231 
Q 1616 2231 1378 2169 
L 1441 2663 
Q 1497 2656 1531 2656 
Q 1891 2656 2178 2843 
Q 2466 3031 2466 3422 
Q 2466 3731 2256 3934 
Q 2047 4138 1716 4138 
Q 1388 4138 1169 3931 
Q 950 3725 888 3313 
L 325 3413 
Q 428 3978 793 4289 
Q 1159 4600 1703 4600 
Q 2078 4600 2393 4439 
Q 2709 4278 2876 4000 
Q 3044 3722 3044 3409 
Q 3044 3113 2884 2869 
Q 2725 2625 2413 2481 
Q 2819 2388 3044 2092 
Q 3269 1797 3269 1353 
Q 3269 753 2831 336 
Q 2394 -81 1725 -81 
Q 1122 -81 723 278 
Q 325 638 269 1209 
z
" transform="scale(0.015625)"/>
       </defs>
       <use xlink:href="#ArialMT-33"/>
       <use xlink:href="#ArialMT-30" x="55.615234"/>
       <use xlink:href="#ArialMT-30" x="111.230469"/>
      </g>
     </g>
    </g>
    <g id="xtick_27">
     <g id="line2d_59">
      <path d="M 284.06 239.74375 
L 284.06 169.571686 
" clip-path="url(#p410ca45480)" style="fill: none; stroke: #cccccc; stroke-width: 0.8; stroke-linecap: round"/>
     </g>
     <g id="line2d_60"/>
     <g id="text_19">
      <!-- 350 -->
      <g style="fill: #262626" transform="translate(277.386875 248.97)scale(0.08 -0.08)">
       <use xlink:href="#ArialMT-33"/>
       <use xlink:href="#ArialMT-35" x="55.615234"/>
       <use xlink:href="#ArialMT-30" x="111.230469"/>
      </g>
     </g>
    </g>
   </g>
   <g id="matplotlib.axis_6">
    <g id="ytick_7">
     <g id="line2d_61"/>
     <g id="text_20">
      <!-- 25 -->
      <g style="fill: #262626" transform="translate(28.95125 223.50817)scale(0.08 -0.08)">
       <use xlink:href="#ArialMT-32"/>
       <use xlink:href="#ArialMT-35" x="55.615234"/>
      </g>
     </g>
    </g>
    <g id="ytick_8">
     <g id="line2d_62"/>
     <g id="text_21">
      <!-- 50 -->
      <g style="fill: #262626" transform="translate(28.95125 203.519856)scale(0.08 -0.08)">
       <use xlink:href="#ArialMT-35"/>
       <use xlink:href="#ArialMT-30" x="55.615234"/>
      </g>
     </g>
    </g>
    <g id="ytick_9">
     <g id="line2d_63"/>
     <g id="text_22">
      <!-- 75 -->
      <g style="fill: #262626" transform="translate(28.95125 183.531542)scale(0.08 -0.08)">
       <defs>
        <path id="ArialMT-37" d="M 303 3981 
L 303 4522 
L 3269 4522 
L 3269 4084 
Q 2831 3619 2401 2847 
Q 1972 2075 1738 1259 
Q 1569 684 1522 0 
L 944 0 
Q 953 541 1156 1306 
Q 1359 2072 1739 2783 
Q 2119 3494 2547 3981 
L 303 3981 
z
" transform="scale(0.015625)"/>
       </defs>
       <use xlink:href="#ArialMT-37"/>
       <use xlink:href="#ArialMT-35" x="55.615234"/>
      </g>
     </g>
    </g>
    <g id="text_23">
     <!-- N of occcupations -->
     <g style="fill: #262626" transform="translate(14.87125 236.450843)rotate(-90)scale(0.08 -0.08)">
      <use xlink:href="#ArialMT-4e"/>
      <use xlink:href="#ArialMT-20" x="72.216797"/>
      <use xlink:href="#ArialMT-6f" x="100"/>
      <use xlink:href="#ArialMT-66" x="155.615234"/>
      <use xlink:href="#ArialMT-20" x="183.398438"/>
      <use xlink:href="#ArialMT-6f" x="211.181641"/>
      <use xlink:href="#ArialMT-63" x="266.796875"/>
      <use xlink:href="#ArialMT-63" x="316.796875"/>
      <use xlink:href="#ArialMT-63" x="366.796875"/>
      <use xlink:href="#ArialMT-75" x="416.796875"/>
      <use xlink:href="#ArialMT-70" x="472.412109"/>
      <use xlink:href="#ArialMT-61" x="528.027344"/>
      <use xlink:href="#ArialMT-74" x="583.642578"/>
      <use xlink:href="#ArialMT-69" x="611.425781"/>
      <use xlink:href="#ArialMT-6f" x="633.642578"/>
      <use xlink:href="#ArialMT-6e" x="689.257812"/>
      <use xlink:href="#ArialMT-73" x="744.873047"/>
     </g>
     <!-- per 1,000 inscriptions -->
     <g style="fill: #262626" transform="translate(23.36125 242.676468)rotate(-90)scale(0.08 -0.08)">
      <defs>
       <path id="ArialMT-65" d="M 2694 1069 
L 3275 997 
Q 3138 488 2766 206 
Q 2394 -75 1816 -75 
Q 1088 -75 661 373 
Q 234 822 234 1631 
Q 234 2469 665 2931 
Q 1097 3394 1784 3394 
Q 2450 3394 2872 2941 
Q 3294 2488 3294 1666 
Q 3294 1616 3291 1516 
L 816 1516 
Q 847 969 1125 678 
Q 1403 388 1819 388 
Q 2128 388 2347 550 
Q 2566 713 2694 1069 
z
M 847 1978 
L 2700 1978 
Q 2663 2397 2488 2606 
Q 2219 2931 1791 2931 
Q 1403 2931 1139 2672 
Q 875 2413 847 1978 
z
" transform="scale(0.015625)"/>
       <path id="ArialMT-2c" d="M 569 0 
L 569 641 
L 1209 641 
L 1209 0 
Q 1209 -353 1084 -570 
Q 959 -788 688 -906 
L 531 -666 
Q 709 -588 793 -436 
Q 878 -284 888 0 
L 569 0 
z
" transform="scale(0.015625)"/>
      </defs>
      <use xlink:href="#ArialMT-70"/>
      <use xlink:href="#ArialMT-65" x="55.615234"/>
      <use xlink:href="#ArialMT-72" x="111.230469"/>
      <use xlink:href="#ArialMT-20" x="144.53125"/>
      <use xlink:href="#ArialMT-31" x="172.314453"/>
      <use xlink:href="#ArialMT-2c" x="227.929688"/>
      <use xlink:href="#ArialMT-30" x="255.712891"/>
      <use xlink:href="#ArialMT-30" x="311.328125"/>
      <use xlink:href="#ArialMT-30" x="366.943359"/>
      <use xlink:href="#ArialMT-20" x="422.558594"/>
      <use xlink:href="#ArialMT-69" x="450.341797"/>
      <use xlink:href="#ArialMT-6e" x="472.558594"/>
      <use xlink:href="#ArialMT-73" x="528.173828"/>
      <use xlink:href="#ArialMT-63" x="578.173828"/>
      <use xlink:href="#ArialMT-72" x="628.173828"/>
      <use xlink:href="#ArialMT-69" x="661.474609"/>
      <use xlink:href="#ArialMT-70" x="683.691406"/>
      <use xlink:href="#ArialMT-74" x="739.306641"/>
      <use xlink:href="#ArialMT-69" x="767.089844"/>
      <use xlink:href="#ArialMT-6f" x="789.306641"/>
      <use xlink:href="#ArialMT-6e" x="844.921875"/>
      <use xlink:href="#ArialMT-73" x="900.537109"/>
     </g>
    </g>
   </g>
   <g id="patch_29">
    <path d="M 56.214814 198.734304 
L 87.160498 183.372702 
L 117.499405 206.110668 
L 147.838311 200.442548 
L 178.177217 189.033913 
L 208.516123 188.399811 
L 238.85503 213.622124 
L 269.193936 232.999558 
L 269.193936 228.370589 
L 238.85503 198.610901 
L 208.516123 172.761326 
L 178.177217 176.888506 
L 147.838311 190.141881 
L 117.499405 195.686838 
L 87.160498 174.993414 
L 56.214814 173.060281 
z
" clip-path="url(#p410ca45480)" style="fill: #808080; opacity: 0.5; stroke: #808080; stroke-linejoin: miter"/>
   </g>
   <g id="patch_30">
    <path d="M 56.214814 190.632812 
L 87.160498 181.15841 
L 117.499405 203.571098 
L 147.838311 197.425657 
L 178.177217 186.304594 
L 208.516123 183.894099 
L 238.85503 209.779554 
L 269.193936 232.116758 
L 269.193936 229.772112 
L 238.85503 202.486986 
L 208.516123 176.560284 
L 178.177217 179.67609 
L 147.838311 192.824961 
L 117.499405 198.321439 
L 87.160498 176.720178 
L 56.214814 176.923648 
z
" clip-path="url(#p410ca45480)" style="fill: #8b0000; stroke: #8b0000; stroke-linejoin: miter"/>
   </g>
   <g id="patch_31">
    <path d="M 56.214814 218.168107 
L 87.160498 216.544531 
L 117.499405 223.043642 
L 147.838311 212.263424 
L 178.177217 206.657235 
L 208.516123 206.756429 
L 238.85503 219.620676 
L 269.193936 223.506079 
L 269.193936 211.471077 
L 238.85503 204.538618 
L 208.516123 195.846266 
L 178.177217 196.198589 
L 147.838311 200.871659 
L 117.499405 214.370172 
L 87.160498 205.871074 
L 56.214814 202.695199 
z
" clip-path="url(#p410ca45480)" style="fill: #808080; opacity: 0.5; stroke: #808080; stroke-linejoin: miter"/>
   </g>
   <g id="patch_32">
    <path d="M 56.214814 213.720622 
L 87.160498 213.655266 
L 117.499405 221.617333 
L 147.838311 209.674735 
L 178.177217 204.062147 
L 208.516123 204.590358 
L 238.85503 216.063856 
L 269.193936 220.624202 
L 269.193936 214.20253 
L 238.85503 208.542812 
L 208.516123 198.669969 
L 178.177217 198.731302 
L 147.838311 203.690672 
L 117.499405 216.583248 
L 87.160498 207.8116 
L 56.214814 205.047559 
z
" clip-path="url(#p410ca45480)" style="fill: #006400; stroke: #006400; stroke-linejoin: miter"/>
   </g>
   <g id="patch_33">
    <path d="M 56.214814 221.902676 
L 87.160498 212.717 
L 117.499405 217.747579 
L 147.838311 198.423645 
L 178.177217 199.110482 
L 208.516123 211.49238 
L 238.85503 225.350104 
L 269.193936 222.699918 
L 269.193936 194.044056 
L 238.85503 208.633506 
L 208.516123 200.13385 
L 178.177217 184.53185 
L 147.838311 184.055314 
L 117.499405 206.327859 
L 87.160498 202.888929 
L 56.214814 208.738551 
z
" clip-path="url(#p410ca45480)" style="fill: #808080; opacity: 0.5; stroke: #808080; stroke-linejoin: miter"/>
   </g>
   <g id="patch_34">
    <path d="M 56.214814 218.808569 
L 87.160498 210.219687 
L 117.499405 214.983253 
L 147.838311 195.539652 
L 178.177217 193.992541 
L 208.516123 208.227427 
L 238.85503 220.89748 
L 269.193936 217.203833 
L 269.193936 202.974217 
L 238.85503 213.469172 
L 208.516123 203.319339 
L 178.177217 187.275608 
L 147.838311 188.486127 
L 117.499405 209.664812 
L 87.160498 205.801843 
L 56.214814 211.767401 
z
" clip-path="url(#p410ca45480)" style="fill: #00008b; stroke: #00008b; stroke-linejoin: miter"/>
   </g>
   <g id="patch_35">
    <path d="M 56.214814 231.712493 
L 87.160498 229.562167 
L 117.499405 226.969674 
L 147.838311 226.793716 
L 178.177217 224.077604 
L 208.516123 222.830002 
L 238.85503 230.444986 
L 269.193936 236.554111 
L 269.193936 221.69083 
L 238.85503 219.539525 
L 208.516123 217.182358 
L 178.177217 218.189198 
L 147.838311 221.804003 
L 117.499405 219.301336 
L 87.160498 221.528638 
L 56.214814 220.015041 
z
" clip-path="url(#p410ca45480)" style="fill: #808080; opacity: 0.5; stroke: #808080; stroke-linejoin: miter"/>
   </g>
   <g id="patch_36">
    <path d="M 56.214814 229.145822 
L 87.160498 227.077857 
L 117.499405 224.770435 
L 147.838311 225.495702 
L 178.177217 222.741567 
L 208.516123 221.678923 
L 238.85503 227.634901 
L 269.193936 233.578659 
L 269.193936 225.63719 
L 238.85503 222.305965 
L 208.516123 218.289645 
L 178.177217 219.690287 
L 147.838311 222.813519 
L 117.499405 221.183032 
L 87.160498 223.503965 
L 56.214814 222.513641 
z
" clip-path="url(#p410ca45480)" style="fill: #800080; stroke: #800080; stroke-linejoin: miter"/>
   </g>
   <g id="patch_37">
    <path d="M 41.34875 239.74375 
L 41.34875 169.571686 
" style="fill: none; stroke: #262626; stroke-width: 1.25; stroke-linejoin: miter; stroke-linecap: square"/>
   </g>
   <g id="patch_38">
    <path d="M 284.06 239.74375 
L 284.06 169.571686 
" style="fill: none; stroke: #262626; stroke-width: 1.25; stroke-linejoin: miter; stroke-linecap: square"/>
   </g>
   <g id="patch_39">
    <path d="M 41.34875 239.74375 
L 284.06 239.74375 
" style="fill: none; stroke: #262626; stroke-width: 1.25; stroke-linejoin: miter; stroke-linecap: square"/>
   </g>
   <g id="patch_40">
    <path d="M 41.34875 169.571686 
L 284.06 169.571686 
" style="fill: none; stroke: #262626; stroke-width: 1.25; stroke-linejoin: miter; stroke-linecap: square"/>
   </g>
   <g id="text_24">
    <!-- C -->
    <g style="fill: #262626" transform="translate(42.736475 181.114702)scale(0.096 -0.096)">
     <defs>
      <path id="ArialMT-43" d="M 3763 1606 
L 4369 1453 
Q 4178 706 3683 314 
Q 3188 -78 2472 -78 
Q 1731 -78 1267 223 
Q 803 525 561 1097 
Q 319 1669 319 2325 
Q 319 3041 592 3573 
Q 866 4106 1370 4382 
Q 1875 4659 2481 4659 
Q 3169 4659 3637 4309 
Q 4106 3959 4291 3325 
L 3694 3184 
Q 3534 3684 3231 3912 
Q 2928 4141 2469 4141 
Q 1941 4141 1586 3887 
Q 1231 3634 1087 3207 
Q 944 2781 944 2328 
Q 944 1744 1114 1308 
Q 1284 872 1643 656 
Q 2003 441 2422 441 
Q 2931 441 3284 734 
Q 3638 1028 3763 1606 
z
" transform="scale(0.015625)"/>
     </defs>
     <use xlink:href="#ArialMT-43"/>
    </g>
   </g>
   <g id="legend_1">
    <g id="text_25">
     <!-- Legend -->
     <g style="fill: #262626" transform="translate(313.56375 185.50125)scale(0.08 -0.08)">
      <defs>
       <path id="ArialMT-4c" d="M 469 0 
L 469 4581 
L 1075 4581 
L 1075 541 
L 3331 541 
L 3331 0 
L 469 0 
z
" transform="scale(0.015625)"/>
       <path id="ArialMT-67" d="M 319 -275 
L 866 -356 
Q 900 -609 1056 -725 
Q 1266 -881 1628 -881 
Q 2019 -881 2231 -725 
Q 2444 -569 2519 -288 
Q 2563 -116 2559 434 
Q 2191 0 1641 0 
Q 956 0 581 494 
Q 206 988 206 1678 
Q 206 2153 378 2554 
Q 550 2956 876 3175 
Q 1203 3394 1644 3394 
Q 2231 3394 2613 2919 
L 2613 3319 
L 3131 3319 
L 3131 450 
Q 3131 -325 2973 -648 
Q 2816 -972 2473 -1159 
Q 2131 -1347 1631 -1347 
Q 1038 -1347 672 -1080 
Q 306 -813 319 -275 
z
M 784 1719 
Q 784 1066 1043 766 
Q 1303 466 1694 466 
Q 2081 466 2343 764 
Q 2606 1063 2606 1700 
Q 2606 2309 2336 2618 
Q 2066 2928 1684 2928 
Q 1309 2928 1046 2623 
Q 784 2319 784 1719 
z
" transform="scale(0.015625)"/>
       <path id="ArialMT-64" d="M 2575 0 
L 2575 419 
Q 2259 -75 1647 -75 
Q 1250 -75 917 144 
Q 584 363 401 755 
Q 219 1147 219 1656 
Q 219 2153 384 2558 
Q 550 2963 881 3178 
Q 1213 3394 1622 3394 
Q 1922 3394 2156 3267 
Q 2391 3141 2538 2938 
L 2538 4581 
L 3097 4581 
L 3097 0 
L 2575 0 
z
M 797 1656 
Q 797 1019 1065 703 
Q 1334 388 1700 388 
Q 2069 388 2326 689 
Q 2584 991 2584 1609 
Q 2584 2291 2321 2609 
Q 2059 2928 1675 2928 
Q 1300 2928 1048 2622 
Q 797 2316 797 1656 
z
" transform="scale(0.015625)"/>
      </defs>
      <use xlink:href="#ArialMT-4c"/>
      <use xlink:href="#ArialMT-65" x="55.615234"/>
      <use xlink:href="#ArialMT-67" x="111.230469"/>
      <use xlink:href="#ArialMT-65" x="166.845703"/>
      <use xlink:href="#ArialMT-6e" x="222.460938"/>
      <use xlink:href="#ArialMT-64" x="278.076172"/>
     </g>
    </g>
    <g id="line2d_64">
     <path d="M 291.26 194.11125 
L 299.26 194.11125 
L 307.26 194.11125 
" style="fill: none; stroke: #8b0000; stroke-width: 2; stroke-linecap: round"/>
    </g>
    <g id="text_26">
     <!-- large cities -->
     <g style="fill: #262626" transform="translate(313.66 196.91125)scale(0.08 -0.08)">
      <defs>
       <path id="ArialMT-6c" d="M 409 0 
L 409 4581 
L 972 4581 
L 972 0 
L 409 0 
z
" transform="scale(0.015625)"/>
      </defs>
      <use xlink:href="#ArialMT-6c"/>
      <use xlink:href="#ArialMT-61" x="22.216797"/>
      <use xlink:href="#ArialMT-72" x="77.832031"/>
      <use xlink:href="#ArialMT-67" x="111.132812"/>
      <use xlink:href="#ArialMT-65" x="166.748047"/>
      <use xlink:href="#ArialMT-20" x="222.363281"/>
      <use xlink:href="#ArialMT-63" x="250.146484"/>
      <use xlink:href="#ArialMT-69" x="300.146484"/>
      <use xlink:href="#ArialMT-74" x="322.363281"/>
      <use xlink:href="#ArialMT-69" x="350.146484"/>
      <use xlink:href="#ArialMT-65" x="372.363281"/>
      <use xlink:href="#ArialMT-73" x="427.978516"/>
     </g>
    </g>
    <g id="line2d_65">
     <path d="M 291.26 205.52125 
L 299.26 205.52125 
L 307.26 205.52125 
" style="fill: none; stroke: #006400; stroke-width: 2; stroke-linecap: round"/>
    </g>
    <g id="text_27">
     <!-- medium cities -->
     <g style="fill: #262626" transform="translate(313.66 208.32125)scale(0.08 -0.08)">
      <defs>
       <path id="ArialMT-6d" d="M 422 0 
L 422 3319 
L 925 3319 
L 925 2853 
Q 1081 3097 1340 3245 
Q 1600 3394 1931 3394 
Q 2300 3394 2536 3241 
Q 2772 3088 2869 2813 
Q 3263 3394 3894 3394 
Q 4388 3394 4653 3120 
Q 4919 2847 4919 2278 
L 4919 0 
L 4359 0 
L 4359 2091 
Q 4359 2428 4304 2576 
Q 4250 2725 4106 2815 
Q 3963 2906 3769 2906 
Q 3419 2906 3187 2673 
Q 2956 2441 2956 1928 
L 2956 0 
L 2394 0 
L 2394 2156 
Q 2394 2531 2256 2718 
Q 2119 2906 1806 2906 
Q 1569 2906 1367 2781 
Q 1166 2656 1075 2415 
Q 984 2175 984 1722 
L 984 0 
L 422 0 
z
" transform="scale(0.015625)"/>
      </defs>
      <use xlink:href="#ArialMT-6d"/>
      <use xlink:href="#ArialMT-65" x="83.300781"/>
      <use xlink:href="#ArialMT-64" x="138.916016"/>
      <use xlink:href="#ArialMT-69" x="194.53125"/>
      <use xlink:href="#ArialMT-75" x="216.748047"/>
      <use xlink:href="#ArialMT-6d" x="272.363281"/>
      <use xlink:href="#ArialMT-20" x="355.664062"/>
      <use xlink:href="#ArialMT-63" x="383.447266"/>
      <use xlink:href="#ArialMT-69" x="433.447266"/>
      <use xlink:href="#ArialMT-74" x="455.664062"/>
      <use xlink:href="#ArialMT-69" x="483.447266"/>
      <use xlink:href="#ArialMT-65" x="505.664062"/>
      <use xlink:href="#ArialMT-73" x="561.279297"/>
     </g>
    </g>
    <g id="line2d_66">
     <path d="M 291.26 216.8375 
L 299.26 216.8375 
L 307.26 216.8375 
" style="fill: none; stroke: #00008b; stroke-width: 2; stroke-linecap: round"/>
    </g>
    <g id="text_28">
     <!-- small cities -->
     <g style="fill: #262626" transform="translate(313.66 219.6375)scale(0.08 -0.08)">
      <use xlink:href="#ArialMT-73"/>
      <use xlink:href="#ArialMT-6d" x="50"/>
      <use xlink:href="#ArialMT-61" x="133.300781"/>
      <use xlink:href="#ArialMT-6c" x="188.916016"/>
      <use xlink:href="#ArialMT-6c" x="211.132812"/>
      <use xlink:href="#ArialMT-20" x="233.349609"/>
      <use xlink:href="#ArialMT-63" x="261.132812"/>
      <use xlink:href="#ArialMT-69" x="311.132812"/>
      <use xlink:href="#ArialMT-74" x="333.349609"/>
      <use xlink:href="#ArialMT-69" x="361.132812"/>
      <use xlink:href="#ArialMT-65" x="383.349609"/>
      <use xlink:href="#ArialMT-73" x="438.964844"/>
     </g>
    </g>
    <g id="line2d_67">
     <path d="M 291.26 228.15375 
L 299.26 228.15375 
L 307.26 228.15375 
" style="fill: none; stroke: #800080; stroke-width: 2; stroke-linecap: round"/>
    </g>
    <g id="text_29">
     <!-- rural areas -->
     <g style="fill: #262626" transform="translate(313.66 230.95375)scale(0.08 -0.08)">
      <use xlink:href="#ArialMT-72"/>
      <use xlink:href="#ArialMT-75" x="33.300781"/>
      <use xlink:href="#ArialMT-72" x="88.916016"/>
      <use xlink:href="#ArialMT-61" x="122.216797"/>
      <use xlink:href="#ArialMT-6c" x="177.832031"/>
      <use xlink:href="#ArialMT-20" x="200.048828"/>
      <use xlink:href="#ArialMT-61" x="227.832031"/>
      <use xlink:href="#ArialMT-72" x="283.447266"/>
      <use xlink:href="#ArialMT-65" x="316.748047"/>
      <use xlink:href="#ArialMT-61" x="372.363281"/>
      <use xlink:href="#ArialMT-73" x="427.978516"/>
     </g>
    </g>
   </g>
  </g>
 </g>
 <defs>
  <clipPath id="p32d27f0f51">
   <rect x="41.34875" y="8.64" width="242.71125" height="70.172064"/>
  </clipPath>
  <clipPath id="p5e916b2bb1">
   <rect x="41.34875" y="89.105843" width="242.71125" height="70.172064"/>
  </clipPath>
  <clipPath id="p410ca45480">
   <rect x="41.34875" y="169.571686" width="242.71125" height="70.172064"/>
  </clipPath>
 </defs>
</svg>
