<?xml version="1.0" encoding="utf-8" standalone="no"?>
<!DOCTYPE svg PUBLIC "-//W3C//DTD SVG 1.1//EN"
  "http://www.w3.org/Graphics/SVG/1.1/DTD/svg11.dtd">
<svg xmlns:xlink="http://www.w3.org/1999/xlink" width="374.4pt" height="288pt" viewBox="0 0 374.4 288" xmlns="http://www.w3.org/2000/svg" version="1.1">
 <metadata>
  <rdf:RDF xmlns:dc="http://purl.org/dc/elements/1.1/" xmlns:cc="http://creativecommons.org/ns#" xmlns:rdf="http://www.w3.org/1999/02/22-rdf-syntax-ns#">
   <cc:Work>
    <dc:type rdf:resource="http://purl.org/dc/dcmitype/StillImage"/>
    <dc:date>2021-12-21T22:07:25.966309</dc:date>
    <dc:format>image/svg+xml</dc:format>
    <dc:creator>
     <cc:Agent>
      <dc:title>Matplotlib v3.5.1, https://matplotlib.org/</dc:title>
     </cc:Agent>
    </dc:creator>
   </cc:Work>
  </rdf:RDF>
 </metadata>
 <defs>
  <style type="text/css">*{stroke-linejoin: round; stroke-linecap: butt}</style>
 </defs>
 <g id="figure_1">
  <g id="patch_1">
   <path d="M 0 288 
L 374.4 288 
L 374.4 0 
L 0 0 
z
" style="fill: #ffffff"/>
  </g>
  <g id="axes_1">
   <g id="patch_2">
    <path d="M 43.47375 85.154505 
L 182.88 85.154505 
L 182.88 36.205133 
L 43.47375 36.205133 
z
" style="fill: #ffffff"/>
   </g>
   <g id="matplotlib.axis_1">
    <g id="xtick_1">
     <g id="line2d_1"/>
     <g id="text_1">
      <!-- 0 -->
      <g style="fill: #262626" transform="translate(56.793118 94.380755)scale(0.08 -0.08)">
       <defs>
        <path id="ArialMT-30" d="M 266 2259 
Q 266 3072 433 3567 
Q 600 4063 929 4331 
Q 1259 4600 1759 4600 
Q 2128 4600 2406 4451 
Q 2684 4303 2865 4023 
Q 3047 3744 3150 3342 
Q 3253 2941 3253 2259 
Q 3253 1453 3087 958 
Q 2922 463 2592 192 
Q 2263 -78 1759 -78 
Q 1097 -78 719 397 
Q 266 969 266 2259 
z
M 844 2259 
Q 844 1131 1108 757 
Q 1372 384 1759 384 
Q 2147 384 2411 759 
Q 2675 1134 2675 2259 
Q 2675 3391 2411 3762 
Q 2147 4134 1753 4134 
Q 1366 4134 1134 3806 
Q 844 3388 844 2259 
z
" transform="scale(0.015625)"/>
       </defs>
       <use xlink:href="#ArialMT-30"/>
      </g>
     </g>
    </g>
    <g id="xtick_2">
     <g id="line2d_2"/>
     <g id="text_2">
      <!-- 100 -->
      <g style="fill: #262626" transform="translate(88.450623 94.380755)scale(0.08 -0.08)">
       <defs>
        <path id="ArialMT-31" d="M 2384 0 
L 1822 0 
L 1822 3584 
Q 1619 3391 1289 3197 
Q 959 3003 697 2906 
L 697 3450 
Q 1169 3672 1522 3987 
Q 1875 4303 2022 4600 
L 2384 4600 
L 2384 0 
z
" transform="scale(0.015625)"/>
       </defs>
       <use xlink:href="#ArialMT-31"/>
       <use xlink:href="#ArialMT-30" x="55.615234"/>
       <use xlink:href="#ArialMT-30" x="111.230469"/>
      </g>
     </g>
    </g>
    <g id="xtick_3">
     <g id="line2d_3"/>
     <g id="text_3">
      <!-- 200 -->
      <g style="fill: #262626" transform="translate(124.556877 94.380755)scale(0.08 -0.08)">
       <defs>
        <path id="ArialMT-32" d="M 3222 541 
L 3222 0 
L 194 0 
Q 188 203 259 391 
Q 375 700 629 1000 
Q 884 1300 1366 1694 
Q 2113 2306 2375 2664 
Q 2638 3022 2638 3341 
Q 2638 3675 2398 3904 
Q 2159 4134 1775 4134 
Q 1369 4134 1125 3890 
Q 881 3647 878 3216 
L 300 3275 
Q 359 3922 746 4261 
Q 1134 4600 1788 4600 
Q 2447 4600 2831 4234 
Q 3216 3869 3216 3328 
Q 3216 3053 3103 2787 
Q 2991 2522 2730 2228 
Q 2469 1934 1863 1422 
Q 1356 997 1212 845 
Q 1069 694 975 541 
L 3222 541 
z
" transform="scale(0.015625)"/>
       </defs>
       <use xlink:href="#ArialMT-32"/>
       <use xlink:href="#ArialMT-30" x="55.615234"/>
       <use xlink:href="#ArialMT-30" x="111.230469"/>
      </g>
     </g>
    </g>
    <g id="xtick_4">
     <g id="line2d_4"/>
     <g id="text_4">
      <!-- 300 -->
      <g style="fill: #262626" transform="translate(160.663132 94.380755)scale(0.08 -0.08)">
       <defs>
        <path id="ArialMT-33" d="M 269 1209 
L 831 1284 
Q 928 806 1161 595 
Q 1394 384 1728 384 
Q 2125 384 2398 659 
Q 2672 934 2672 1341 
Q 2672 1728 2419 1979 
Q 2166 2231 1775 2231 
Q 1616 2231 1378 2169 
L 1441 2663 
Q 1497 2656 1531 2656 
Q 1891 2656 2178 2843 
Q 2466 3031 2466 3422 
Q 2466 3731 2256 3934 
Q 2047 4138 1716 4138 
Q 1388 4138 1169 3931 
Q 950 3725 888 3313 
L 325 3413 
Q 428 3978 793 4289 
Q 1159 4600 1703 4600 
Q 2078 4600 2393 4439 
Q 2709 4278 2876 4000 
Q 3044 3722 3044 3409 
Q 3044 3113 2884 2869 
Q 2725 2625 2413 2481 
Q 2819 2388 3044 2092 
Q 3269 1797 3269 1353 
Q 3269 753 2831 336 
Q 2394 -81 1725 -81 
Q 1122 -81 723 278 
Q 325 638 269 1209 
z
" transform="scale(0.015625)"/>
       </defs>
       <use xlink:href="#ArialMT-33"/>
       <use xlink:href="#ArialMT-30" x="55.615234"/>
       <use xlink:href="#ArialMT-30" x="111.230469"/>
      </g>
     </g>
    </g>
   </g>
   <g id="matplotlib.axis_2">
    <g id="ytick_1">
     <g id="line2d_5"/>
     <g id="text_5">
      <!-- 500 -->
      <g style="fill: #262626" transform="translate(26.6275 68.608827)scale(0.08 -0.08)">
       <defs>
        <path id="ArialMT-35" d="M 266 1200 
L 856 1250 
Q 922 819 1161 601 
Q 1400 384 1738 384 
Q 2144 384 2425 690 
Q 2706 997 2706 1503 
Q 2706 1984 2436 2262 
Q 2166 2541 1728 2541 
Q 1456 2541 1237 2417 
Q 1019 2294 894 2097 
L 366 2166 
L 809 4519 
L 3088 4519 
L 3088 3981 
L 1259 3981 
L 1013 2750 
Q 1425 3038 1878 3038 
Q 2478 3038 2890 2622 
Q 3303 2206 3303 1553 
Q 3303 931 2941 478 
Q 2500 -78 1738 -78 
Q 1113 -78 717 272 
Q 322 622 266 1200 
z
" transform="scale(0.015625)"/>
       </defs>
       <use xlink:href="#ArialMT-35"/>
       <use xlink:href="#ArialMT-30" x="55.615234"/>
       <use xlink:href="#ArialMT-30" x="111.230469"/>
      </g>
     </g>
    </g>
    <g id="ytick_2">
     <g id="line2d_6"/>
     <g id="text_6">
      <!-- 1000 -->
      <g style="fill: #262626" transform="translate(22.17875 46.292162)scale(0.08 -0.08)">
       <use xlink:href="#ArialMT-31"/>
       <use xlink:href="#ArialMT-30" x="55.615234"/>
       <use xlink:href="#ArialMT-30" x="111.230469"/>
       <use xlink:href="#ArialMT-30" x="166.845703"/>
      </g>
     </g>
    </g>
    <g id="text_7">
     <!-- occups mentions count -->
     <g style="fill: #262626" transform="translate(16.58875 101.589194)rotate(-90)scale(0.08 -0.08)">
      <defs>
       <path id="ArialMT-6f" d="M 213 1659 
Q 213 2581 725 3025 
Q 1153 3394 1769 3394 
Q 2453 3394 2887 2945 
Q 3322 2497 3322 1706 
Q 3322 1066 3130 698 
Q 2938 331 2570 128 
Q 2203 -75 1769 -75 
Q 1072 -75 642 372 
Q 213 819 213 1659 
z
M 791 1659 
Q 791 1022 1069 705 
Q 1347 388 1769 388 
Q 2188 388 2466 706 
Q 2744 1025 2744 1678 
Q 2744 2294 2464 2611 
Q 2184 2928 1769 2928 
Q 1347 2928 1069 2612 
Q 791 2297 791 1659 
z
" transform="scale(0.015625)"/>
       <path id="ArialMT-63" d="M 2588 1216 
L 3141 1144 
Q 3050 572 2676 248 
Q 2303 -75 1759 -75 
Q 1078 -75 664 370 
Q 250 816 250 1647 
Q 250 2184 428 2587 
Q 606 2991 970 3192 
Q 1334 3394 1763 3394 
Q 2303 3394 2647 3120 
Q 2991 2847 3088 2344 
L 2541 2259 
Q 2463 2594 2264 2762 
Q 2066 2931 1784 2931 
Q 1359 2931 1093 2626 
Q 828 2322 828 1663 
Q 828 994 1084 691 
Q 1341 388 1753 388 
Q 2084 388 2306 591 
Q 2528 794 2588 1216 
z
" transform="scale(0.015625)"/>
       <path id="ArialMT-75" d="M 2597 0 
L 2597 488 
Q 2209 -75 1544 -75 
Q 1250 -75 995 37 
Q 741 150 617 320 
Q 494 491 444 738 
Q 409 903 409 1263 
L 409 3319 
L 972 3319 
L 972 1478 
Q 972 1038 1006 884 
Q 1059 663 1231 536 
Q 1403 409 1656 409 
Q 1909 409 2131 539 
Q 2353 669 2445 892 
Q 2538 1116 2538 1541 
L 2538 3319 
L 3100 3319 
L 3100 0 
L 2597 0 
z
" transform="scale(0.015625)"/>
       <path id="ArialMT-70" d="M 422 -1272 
L 422 3319 
L 934 3319 
L 934 2888 
Q 1116 3141 1344 3267 
Q 1572 3394 1897 3394 
Q 2322 3394 2647 3175 
Q 2972 2956 3137 2557 
Q 3303 2159 3303 1684 
Q 3303 1175 3120 767 
Q 2938 359 2589 142 
Q 2241 -75 1856 -75 
Q 1575 -75 1351 44 
Q 1128 163 984 344 
L 984 -1272 
L 422 -1272 
z
M 931 1641 
Q 931 1000 1190 694 
Q 1450 388 1819 388 
Q 2194 388 2461 705 
Q 2728 1022 2728 1688 
Q 2728 2322 2467 2637 
Q 2206 2953 1844 2953 
Q 1484 2953 1207 2617 
Q 931 2281 931 1641 
z
" transform="scale(0.015625)"/>
       <path id="ArialMT-73" d="M 197 991 
L 753 1078 
Q 800 744 1014 566 
Q 1228 388 1613 388 
Q 2000 388 2187 545 
Q 2375 703 2375 916 
Q 2375 1106 2209 1216 
Q 2094 1291 1634 1406 
Q 1016 1563 777 1677 
Q 538 1791 414 1992 
Q 291 2194 291 2438 
Q 291 2659 392 2848 
Q 494 3038 669 3163 
Q 800 3259 1026 3326 
Q 1253 3394 1513 3394 
Q 1903 3394 2198 3281 
Q 2494 3169 2634 2976 
Q 2775 2784 2828 2463 
L 2278 2388 
Q 2241 2644 2061 2787 
Q 1881 2931 1553 2931 
Q 1166 2931 1000 2803 
Q 834 2675 834 2503 
Q 834 2394 903 2306 
Q 972 2216 1119 2156 
Q 1203 2125 1616 2013 
Q 2213 1853 2448 1751 
Q 2684 1650 2818 1456 
Q 2953 1263 2953 975 
Q 2953 694 2789 445 
Q 2625 197 2315 61 
Q 2006 -75 1616 -75 
Q 969 -75 630 194 
Q 291 463 197 991 
z
" transform="scale(0.015625)"/>
       <path id="ArialMT-20" transform="scale(0.015625)"/>
       <path id="ArialMT-6d" d="M 422 0 
L 422 3319 
L 925 3319 
L 925 2853 
Q 1081 3097 1340 3245 
Q 1600 3394 1931 3394 
Q 2300 3394 2536 3241 
Q 2772 3088 2869 2813 
Q 3263 3394 3894 3394 
Q 4388 3394 4653 3120 
Q 4919 2847 4919 2278 
L 4919 0 
L 4359 0 
L 4359 2091 
Q 4359 2428 4304 2576 
Q 4250 2725 4106 2815 
Q 3963 2906 3769 2906 
Q 3419 2906 3187 2673 
Q 2956 2441 2956 1928 
L 2956 0 
L 2394 0 
L 2394 2156 
Q 2394 2531 2256 2718 
Q 2119 2906 1806 2906 
Q 1569 2906 1367 2781 
Q 1166 2656 1075 2415 
Q 984 2175 984 1722 
L 984 0 
L 422 0 
z
" transform="scale(0.015625)"/>
       <path id="ArialMT-65" d="M 2694 1069 
L 3275 997 
Q 3138 488 2766 206 
Q 2394 -75 1816 -75 
Q 1088 -75 661 373 
Q 234 822 234 1631 
Q 234 2469 665 2931 
Q 1097 3394 1784 3394 
Q 2450 3394 2872 2941 
Q 3294 2488 3294 1666 
Q 3294 1616 3291 1516 
L 816 1516 
Q 847 969 1125 678 
Q 1403 388 1819 388 
Q 2128 388 2347 550 
Q 2566 713 2694 1069 
z
M 847 1978 
L 2700 1978 
Q 2663 2397 2488 2606 
Q 2219 2931 1791 2931 
Q 1403 2931 1139 2672 
Q 875 2413 847 1978 
z
" transform="scale(0.015625)"/>
       <path id="ArialMT-6e" d="M 422 0 
L 422 3319 
L 928 3319 
L 928 2847 
Q 1294 3394 1984 3394 
Q 2284 3394 2536 3286 
Q 2788 3178 2913 3003 
Q 3038 2828 3088 2588 
Q 3119 2431 3119 2041 
L 3119 0 
L 2556 0 
L 2556 2019 
Q 2556 2363 2490 2533 
Q 2425 2703 2258 2804 
Q 2091 2906 1866 2906 
Q 1506 2906 1245 2678 
Q 984 2450 984 1813 
L 984 0 
L 422 0 
z
" transform="scale(0.015625)"/>
       <path id="ArialMT-74" d="M 1650 503 
L 1731 6 
Q 1494 -44 1306 -44 
Q 1000 -44 831 53 
Q 663 150 594 308 
Q 525 466 525 972 
L 525 2881 
L 113 2881 
L 113 3319 
L 525 3319 
L 525 4141 
L 1084 4478 
L 1084 3319 
L 1650 3319 
L 1650 2881 
L 1084 2881 
L 1084 941 
Q 1084 700 1114 631 
Q 1144 563 1211 522 
Q 1278 481 1403 481 
Q 1497 481 1650 503 
z
" transform="scale(0.015625)"/>
       <path id="ArialMT-69" d="M 425 3934 
L 425 4581 
L 988 4581 
L 988 3934 
L 425 3934 
z
M 425 0 
L 425 3319 
L 988 3319 
L 988 0 
L 425 0 
z
" transform="scale(0.015625)"/>
      </defs>
      <use xlink:href="#ArialMT-6f"/>
      <use xlink:href="#ArialMT-63" x="55.615234"/>
      <use xlink:href="#ArialMT-63" x="105.615234"/>
      <use xlink:href="#ArialMT-75" x="155.615234"/>
      <use xlink:href="#ArialMT-70" x="211.230469"/>
      <use xlink:href="#ArialMT-73" x="266.845703"/>
      <use xlink:href="#ArialMT-20" x="316.845703"/>
      <use xlink:href="#ArialMT-6d" x="344.628906"/>
      <use xlink:href="#ArialMT-65" x="427.929688"/>
      <use xlink:href="#ArialMT-6e" x="483.544922"/>
      <use xlink:href="#ArialMT-74" x="539.160156"/>
      <use xlink:href="#ArialMT-69" x="566.943359"/>
      <use xlink:href="#ArialMT-6f" x="589.160156"/>
      <use xlink:href="#ArialMT-6e" x="644.775391"/>
      <use xlink:href="#ArialMT-73" x="700.390625"/>
      <use xlink:href="#ArialMT-20" x="750.390625"/>
      <use xlink:href="#ArialMT-63" x="778.173828"/>
      <use xlink:href="#ArialMT-6f" x="828.173828"/>
      <use xlink:href="#ArialMT-75" x="883.789062"/>
      <use xlink:href="#ArialMT-6e" x="939.404297"/>
      <use xlink:href="#ArialMT-74" x="995.019531"/>
     </g>
    </g>
   </g>
   <g id="patch_3">
    <path d="M 49.810398 79.135701 
L 68.224588 45.169737 
L 86.277715 60.300436 
L 104.330843 47.401403 
L 122.38397 43.250504 
L 140.437097 56.908303 
L 158.490225 77.037934 
L 176.543352 82.929534 
L 176.543352 81.188834 
L 158.490225 73.690434 
L 140.437097 52.400336 
L 122.38397 38.430104 
L 104.330843 42.13467 
L 86.277715 56.819036 
L 68.224588 41.375904 
L 49.810398 76.680867 
z
" clip-path="url(#pa8327ecfbe)" style="fill: #808080; opacity: 0.5; stroke: #808080; stroke-linejoin: miter"/>
   </g>
   <g id="patch_4">
    <path d="M 49.810398 78.644734 
L 68.224588 44.589504 
L 86.277715 59.720202 
L 104.330843 46.107037 
L 122.38397 42.53637 
L 140.437097 55.435403 
L 158.490225 76.725501 
L 176.543352 82.751 
L 176.543352 81.724434 
L 158.490225 74.761634 
L 140.437097 52.802036 
L 122.38397 39.412037 
L 104.330843 43.295137 
L 86.277715 56.997569 
L 68.224588 41.59907 
L 49.810398 76.993301 
z
" clip-path="url(#pa8327ecfbe)" style="fill: #0000ff; opacity: 0.8; stroke: #0000ff; stroke-linejoin: miter"/>
   </g>
   <g id="patch_5">
    <path d="M 43.47375 85.154505 
L 43.47375 36.205133 
" style="fill: none; stroke: #262626; stroke-width: 1.25; stroke-linejoin: miter; stroke-linecap: square"/>
   </g>
   <g id="patch_6">
    <path d="M 182.88 85.154505 
L 182.88 36.205133 
" style="fill: none; stroke: #262626; stroke-width: 1.25; stroke-linejoin: miter; stroke-linecap: square"/>
   </g>
   <g id="patch_7">
    <path d="M 43.47375 85.154505 
L 182.88 85.154505 
" style="fill: none; stroke: #262626; stroke-width: 1.25; stroke-linejoin: miter; stroke-linecap: square"/>
   </g>
   <g id="patch_8">
    <path d="M 43.47375 36.205133 
L 182.88 36.205133 
" style="fill: none; stroke: #262626; stroke-width: 1.25; stroke-linejoin: miter; stroke-linecap: square"/>
   </g>
   <g id="text_8">
    <!-- (A) occups count -->
    <g style="fill: #262626" transform="translate(77.162625 30.205133)scale(0.096 -0.096)">
     <defs>
      <path id="ArialMT-28" d="M 1497 -1347 
Q 1031 -759 709 28 
Q 388 816 388 1659 
Q 388 2403 628 3084 
Q 909 3875 1497 4659 
L 1900 4659 
Q 1522 4009 1400 3731 
Q 1209 3300 1100 2831 
Q 966 2247 966 1656 
Q 966 153 1900 -1347 
L 1497 -1347 
z
" transform="scale(0.015625)"/>
      <path id="ArialMT-41" d="M -9 0 
L 1750 4581 
L 2403 4581 
L 4278 0 
L 3588 0 
L 3053 1388 
L 1138 1388 
L 634 0 
L -9 0 
z
M 1313 1881 
L 2866 1881 
L 2388 3150 
Q 2169 3728 2063 4100 
Q 1975 3659 1816 3225 
L 1313 1881 
z
" transform="scale(0.015625)"/>
      <path id="ArialMT-29" d="M 791 -1347 
L 388 -1347 
Q 1322 153 1322 1656 
Q 1322 2244 1188 2822 
Q 1081 3291 891 3722 
Q 769 4003 388 4659 
L 791 4659 
Q 1378 3875 1659 3084 
Q 1900 2403 1900 1659 
Q 1900 816 1576 28 
Q 1253 -759 791 -1347 
z
" transform="scale(0.015625)"/>
     </defs>
     <use xlink:href="#ArialMT-28"/>
     <use xlink:href="#ArialMT-41" x="33.300781"/>
     <use xlink:href="#ArialMT-29" x="100"/>
     <use xlink:href="#ArialMT-20" x="133.300781"/>
     <use xlink:href="#ArialMT-6f" x="161.083984"/>
     <use xlink:href="#ArialMT-63" x="216.699219"/>
     <use xlink:href="#ArialMT-63" x="266.699219"/>
     <use xlink:href="#ArialMT-75" x="316.699219"/>
     <use xlink:href="#ArialMT-70" x="372.314453"/>
     <use xlink:href="#ArialMT-73" x="427.929688"/>
     <use xlink:href="#ArialMT-20" x="477.929688"/>
     <use xlink:href="#ArialMT-63" x="505.712891"/>
     <use xlink:href="#ArialMT-6f" x="555.712891"/>
     <use xlink:href="#ArialMT-75" x="611.328125"/>
     <use xlink:href="#ArialMT-6e" x="666.943359"/>
     <use xlink:href="#ArialMT-74" x="722.558594"/>
    </g>
   </g>
   <g id="legend_1">
    <g id="patch_9">
     <path d="M 50.67375 17.625258 
L 66.67375 17.625258 
L 66.67375 12.025258 
L 50.67375 12.025258 
z
" style="fill: #0000ff; opacity: 0.8; stroke: #0000ff; stroke-linejoin: miter"/>
    </g>
    <g id="text_9">
     <!-- occups -->
     <g style="fill: #262626" transform="translate(73.07375 17.625258)scale(0.08 -0.08)">
      <use xlink:href="#ArialMT-6f"/>
      <use xlink:href="#ArialMT-63" x="55.615234"/>
      <use xlink:href="#ArialMT-63" x="105.615234"/>
      <use xlink:href="#ArialMT-75" x="155.615234"/>
      <use xlink:href="#ArialMT-70" x="211.230469"/>
      <use xlink:href="#ArialMT-73" x="266.845703"/>
     </g>
    </g>
   </g>
  </g>
  <g id="axes_2">
   <g id="patch_10">
    <path d="M 226.35375 85.154505 
L 365.76 85.154505 
L 365.76 36.205133 
L 226.35375 36.205133 
z
" style="fill: #ffffff"/>
   </g>
   <g id="matplotlib.axis_3">
    <g id="xtick_5">
     <g id="line2d_7"/>
     <g id="text_10">
      <!-- 0 -->
      <g style="fill: #262626" transform="translate(239.673118 94.380755)scale(0.08 -0.08)">
       <use xlink:href="#ArialMT-30"/>
      </g>
     </g>
    </g>
    <g id="xtick_6">
     <g id="line2d_8"/>
     <g id="text_11">
      <!-- 100 -->
      <g style="fill: #262626" transform="translate(271.330623 94.380755)scale(0.08 -0.08)">
       <use xlink:href="#ArialMT-31"/>
       <use xlink:href="#ArialMT-30" x="55.615234"/>
       <use xlink:href="#ArialMT-30" x="111.230469"/>
      </g>
     </g>
    </g>
    <g id="xtick_7">
     <g id="line2d_9"/>
     <g id="text_12">
      <!-- 200 -->
      <g style="fill: #262626" transform="translate(307.436877 94.380755)scale(0.08 -0.08)">
       <use xlink:href="#ArialMT-32"/>
       <use xlink:href="#ArialMT-30" x="55.615234"/>
       <use xlink:href="#ArialMT-30" x="111.230469"/>
      </g>
     </g>
    </g>
    <g id="xtick_8">
     <g id="line2d_10"/>
     <g id="text_13">
      <!-- 300 -->
      <g style="fill: #262626" transform="translate(343.543132 94.380755)scale(0.08 -0.08)">
       <use xlink:href="#ArialMT-33"/>
       <use xlink:href="#ArialMT-30" x="55.615234"/>
       <use xlink:href="#ArialMT-30" x="111.230469"/>
      </g>
     </g>
    </g>
   </g>
   <g id="matplotlib.axis_4">
    <g id="ytick_3">
     <g id="line2d_11"/>
     <g id="text_14">
      <!-- 2 -->
      <g style="fill: #262626" transform="translate(218.405 74.131431)scale(0.08 -0.08)">
       <use xlink:href="#ArialMT-32"/>
      </g>
     </g>
    </g>
    <g id="ytick_4">
     <g id="line2d_12"/>
     <g id="text_15">
      <!-- 4 -->
      <g style="fill: #262626" transform="translate(218.405 45.690187)scale(0.08 -0.08)">
       <defs>
        <path id="ArialMT-34" d="M 2069 0 
L 2069 1097 
L 81 1097 
L 81 1613 
L 2172 4581 
L 2631 4581 
L 2631 1613 
L 3250 1613 
L 3250 1097 
L 2631 1097 
L 2631 0 
L 2069 0 
z
M 2069 1613 
L 2069 3678 
L 634 1613 
L 2069 1613 
z
" transform="scale(0.015625)"/>
       </defs>
       <use xlink:href="#ArialMT-34"/>
      </g>
     </g>
    </g>
    <g id="text_16">
     <!-- occups -->
     <g style="fill: #262626" transform="translate(212.815 73.352944)rotate(-90)scale(0.08 -0.08)">
      <use xlink:href="#ArialMT-6f"/>
      <use xlink:href="#ArialMT-63" x="55.615234"/>
      <use xlink:href="#ArialMT-63" x="105.615234"/>
      <use xlink:href="#ArialMT-75" x="155.615234"/>
      <use xlink:href="#ArialMT-70" x="211.230469"/>
      <use xlink:href="#ArialMT-73" x="266.845703"/>
     </g>
    </g>
   </g>
   <g id="patch_11">
    <path d="M 232.690398 55.075678 
L 251.104588 42.4627 
L 269.157715 62.609808 
L 287.210843 57.106712 
L 305.26397 51.28379 
L 323.317097 57.339129 
L 341.370225 69.504578 
L 359.423352 82.929534 
L 359.423352 77.18861 
L 341.370225 61.27141 
L 323.317097 52.260342 
L 305.26397 47.011877 
L 287.210843 52.183477 
L 269.157715 58.50477 
L 251.104588 38.430104 
L 232.690398 43.635818 
z
" clip-path="url(#p7e4ca522c8)" style="fill: #808080; opacity: 0.5; stroke: #808080; stroke-linejoin: miter"/>
   </g>
   <g id="patch_12">
    <path d="M 232.690398 52.036608 
L 251.104588 42.06781 
L 269.157715 62.177117 
L 287.210843 56.481311 
L 305.26397 50.899112 
L 323.317097 55.972108 
L 341.370225 67.802369 
L 359.423352 82.27066 
L 359.423352 79.563521 
L 341.370225 62.49388 
L 323.317097 52.686903 
L 305.26397 47.641439 
L 287.210843 53.235249 
L 269.157715 59.520217 
L 251.104588 39.399661 
L 232.690398 45.21699 
z
" clip-path="url(#p7e4ca522c8)" style="fill: #0000ff; opacity: 0.8; stroke: #0000ff; stroke-linejoin: miter"/>
   </g>
   <g id="patch_13">
    <path d="M 226.35375 85.154505 
L 226.35375 36.205133 
" style="fill: none; stroke: #262626; stroke-width: 1.25; stroke-linejoin: miter; stroke-linecap: square"/>
   </g>
   <g id="patch_14">
    <path d="M 365.76 85.154505 
L 365.76 36.205133 
" style="fill: none; stroke: #262626; stroke-width: 1.25; stroke-linejoin: miter; stroke-linecap: square"/>
   </g>
   <g id="patch_15">
    <path d="M 226.35375 85.154505 
L 365.76 85.154505 
" style="fill: none; stroke: #262626; stroke-width: 1.25; stroke-linejoin: miter; stroke-linecap: square"/>
   </g>
   <g id="patch_16">
    <path d="M 226.35375 36.205133 
L 365.76 36.205133 
" style="fill: none; stroke: #262626; stroke-width: 1.25; stroke-linejoin: miter; stroke-linecap: square"/>
   </g>
   <g id="text_17">
    <!-- (B) occups per 100 inscrs -->
    <g style="fill: #262626" transform="translate(241.638375 30.205133)scale(0.096 -0.096)">
     <defs>
      <path id="ArialMT-42" d="M 469 0 
L 469 4581 
L 2188 4581 
Q 2713 4581 3030 4442 
Q 3347 4303 3526 4014 
Q 3706 3725 3706 3409 
Q 3706 3116 3547 2856 
Q 3388 2597 3066 2438 
Q 3481 2316 3704 2022 
Q 3928 1728 3928 1328 
Q 3928 1006 3792 729 
Q 3656 453 3456 303 
Q 3256 153 2954 76 
Q 2653 0 2216 0 
L 469 0 
z
M 1075 2656 
L 2066 2656 
Q 2469 2656 2644 2709 
Q 2875 2778 2992 2937 
Q 3109 3097 3109 3338 
Q 3109 3566 3000 3739 
Q 2891 3913 2687 3977 
Q 2484 4041 1991 4041 
L 1075 4041 
L 1075 2656 
z
M 1075 541 
L 2216 541 
Q 2509 541 2628 563 
Q 2838 600 2978 687 
Q 3119 775 3209 942 
Q 3300 1109 3300 1328 
Q 3300 1584 3169 1773 
Q 3038 1963 2805 2039 
Q 2572 2116 2134 2116 
L 1075 2116 
L 1075 541 
z
" transform="scale(0.015625)"/>
      <path id="ArialMT-72" d="M 416 0 
L 416 3319 
L 922 3319 
L 922 2816 
Q 1116 3169 1280 3281 
Q 1444 3394 1641 3394 
Q 1925 3394 2219 3213 
L 2025 2691 
Q 1819 2813 1613 2813 
Q 1428 2813 1281 2702 
Q 1134 2591 1072 2394 
Q 978 2094 978 1738 
L 978 0 
L 416 0 
z
" transform="scale(0.015625)"/>
     </defs>
     <use xlink:href="#ArialMT-28"/>
     <use xlink:href="#ArialMT-42" x="33.300781"/>
     <use xlink:href="#ArialMT-29" x="100"/>
     <use xlink:href="#ArialMT-20" x="133.300781"/>
     <use xlink:href="#ArialMT-6f" x="161.083984"/>
     <use xlink:href="#ArialMT-63" x="216.699219"/>
     <use xlink:href="#ArialMT-63" x="266.699219"/>
     <use xlink:href="#ArialMT-75" x="316.699219"/>
     <use xlink:href="#ArialMT-70" x="372.314453"/>
     <use xlink:href="#ArialMT-73" x="427.929688"/>
     <use xlink:href="#ArialMT-20" x="477.929688"/>
     <use xlink:href="#ArialMT-70" x="505.712891"/>
     <use xlink:href="#ArialMT-65" x="561.328125"/>
     <use xlink:href="#ArialMT-72" x="616.943359"/>
     <use xlink:href="#ArialMT-20" x="650.244141"/>
     <use xlink:href="#ArialMT-31" x="678.027344"/>
     <use xlink:href="#ArialMT-30" x="733.642578"/>
     <use xlink:href="#ArialMT-30" x="789.257812"/>
     <use xlink:href="#ArialMT-20" x="844.873047"/>
     <use xlink:href="#ArialMT-69" x="872.65625"/>
     <use xlink:href="#ArialMT-6e" x="894.873047"/>
     <use xlink:href="#ArialMT-73" x="950.488281"/>
     <use xlink:href="#ArialMT-63" x="1000.488281"/>
     <use xlink:href="#ArialMT-72" x="1050.488281"/>
     <use xlink:href="#ArialMT-73" x="1083.789062"/>
    </g>
   </g>
  </g>
  <g id="axes_3">
   <g id="patch_17">
    <path d="M 43.47375 176.849128 
L 182.88 176.849128 
L 182.88 127.899755 
L 43.47375 127.899755 
z
" style="fill: #ffffff"/>
   </g>
   <g id="matplotlib.axis_5">
    <g id="xtick_9">
     <g id="line2d_13"/>
     <g id="text_18">
      <!-- 0 -->
      <g style="fill: #262626" transform="translate(56.793118 186.075378)scale(0.08 -0.08)">
       <use xlink:href="#ArialMT-30"/>
      </g>
     </g>
    </g>
    <g id="xtick_10">
     <g id="line2d_14"/>
     <g id="text_19">
      <!-- 100 -->
      <g style="fill: #262626" transform="translate(88.450623 186.075378)scale(0.08 -0.08)">
       <use xlink:href="#ArialMT-31"/>
       <use xlink:href="#ArialMT-30" x="55.615234"/>
       <use xlink:href="#ArialMT-30" x="111.230469"/>
      </g>
     </g>
    </g>
    <g id="xtick_11">
     <g id="line2d_15"/>
     <g id="text_20">
      <!-- 200 -->
      <g style="fill: #262626" transform="translate(124.556877 186.075378)scale(0.08 -0.08)">
       <use xlink:href="#ArialMT-32"/>
       <use xlink:href="#ArialMT-30" x="55.615234"/>
       <use xlink:href="#ArialMT-30" x="111.230469"/>
      </g>
     </g>
    </g>
    <g id="xtick_12">
     <g id="line2d_16"/>
     <g id="text_21">
      <!-- 300 -->
      <g style="fill: #262626" transform="translate(160.663132 186.075378)scale(0.08 -0.08)">
       <use xlink:href="#ArialMT-33"/>
       <use xlink:href="#ArialMT-30" x="55.615234"/>
       <use xlink:href="#ArialMT-30" x="111.230469"/>
      </g>
     </g>
    </g>
   </g>
   <g id="matplotlib.axis_6">
    <g id="ytick_5">
     <g id="line2d_17"/>
     <g id="text_22">
      <!-- 2 -->
      <g style="fill: #262626" transform="translate(35.525 169.003246)scale(0.08 -0.08)">
       <use xlink:href="#ArialMT-32"/>
      </g>
     </g>
    </g>
    <g id="ytick_6">
     <g id="line2d_18"/>
     <g id="text_23">
      <!-- 4 -->
      <g style="fill: #262626" transform="translate(35.525 142.788887)scale(0.08 -0.08)">
       <use xlink:href="#ArialMT-34"/>
      </g>
     </g>
    </g>
    <g id="text_24">
     <!-- occups -->
     <g style="fill: #262626" transform="translate(29.935 165.047566)rotate(-90)scale(0.08 -0.08)">
      <use xlink:href="#ArialMT-6f"/>
      <use xlink:href="#ArialMT-63" x="55.615234"/>
      <use xlink:href="#ArialMT-63" x="105.615234"/>
      <use xlink:href="#ArialMT-75" x="155.615234"/>
      <use xlink:href="#ArialMT-70" x="211.230469"/>
      <use xlink:href="#ArialMT-73" x="266.845703"/>
     </g>
    </g>
   </g>
   <g id="patch_18">
    <path d="M 49.810398 156.530769 
L 68.224588 135.675976 
L 86.277715 159.296816 
L 104.330843 154.539586 
L 122.38397 151.676999 
L 140.437097 157.686497 
L 158.490225 162.951238 
L 176.543352 174.624156 
L 176.543352 167.701578 
L 158.490225 154.665618 
L 140.437097 153.296411 
L 122.38397 147.936927 
L 104.330843 150.061588 
L 86.277715 155.068363 
L 68.224588 130.124727 
L 49.810398 146.894199 
z
" clip-path="url(#pede18051f8)" style="fill: #808080; opacity: 0.5; stroke: #808080; stroke-linejoin: miter"/>
   </g>
   <g id="patch_19">
    <path d="M 49.810398 154.456885 
L 68.224588 134.827954 
L 86.277715 158.839436 
L 104.330843 153.772819 
L 122.38397 150.964966 
L 140.437097 156.386951 
L 158.490225 162.330098 
L 176.543352 173.663202 
L 176.543352 169.066082 
L 158.490225 157.061108 
L 140.437097 153.708744 
L 122.38397 148.077076 
L 104.330843 150.884184 
L 86.277715 155.531663 
L 68.224588 131.01904 
L 49.810398 148.381542 
z
" clip-path="url(#pede18051f8)" style="fill: #0000ff; opacity: 0.8; stroke: #0000ff; stroke-linejoin: miter"/>
   </g>
   <g id="patch_20">
    <path d="M 43.47375 176.849128 
L 43.47375 127.899755 
" style="fill: none; stroke: #262626; stroke-width: 1.25; stroke-linejoin: miter; stroke-linecap: square"/>
   </g>
   <g id="patch_21">
    <path d="M 182.88 176.849128 
L 182.88 127.899755 
" style="fill: none; stroke: #262626; stroke-width: 1.25; stroke-linejoin: miter; stroke-linecap: square"/>
   </g>
   <g id="patch_22">
    <path d="M 43.47375 176.849128 
L 182.88 176.849128 
" style="fill: none; stroke: #262626; stroke-width: 1.25; stroke-linejoin: miter; stroke-linecap: square"/>
   </g>
   <g id="patch_23">
    <path d="M 43.47375 127.899755 
L 182.88 127.899755 
" style="fill: none; stroke: #262626; stroke-width: 1.25; stroke-linejoin: miter; stroke-linecap: square"/>
   </g>
   <g id="text_25">
    <!-- (C) occups per 1000 words -->
    <g style="fill: #262626" transform="translate(55.555125 121.899755)scale(0.096 -0.096)">
     <defs>
      <path id="ArialMT-43" d="M 3763 1606 
L 4369 1453 
Q 4178 706 3683 314 
Q 3188 -78 2472 -78 
Q 1731 -78 1267 223 
Q 803 525 561 1097 
Q 319 1669 319 2325 
Q 319 3041 592 3573 
Q 866 4106 1370 4382 
Q 1875 4659 2481 4659 
Q 3169 4659 3637 4309 
Q 4106 3959 4291 3325 
L 3694 3184 
Q 3534 3684 3231 3912 
Q 2928 4141 2469 4141 
Q 1941 4141 1586 3887 
Q 1231 3634 1087 3207 
Q 944 2781 944 2328 
Q 944 1744 1114 1308 
Q 1284 872 1643 656 
Q 2003 441 2422 441 
Q 2931 441 3284 734 
Q 3638 1028 3763 1606 
z
" transform="scale(0.015625)"/>
      <path id="ArialMT-77" d="M 1034 0 
L 19 3319 
L 600 3319 
L 1128 1403 
L 1325 691 
Q 1338 744 1497 1375 
L 2025 3319 
L 2603 3319 
L 3100 1394 
L 3266 759 
L 3456 1400 
L 4025 3319 
L 4572 3319 
L 3534 0 
L 2950 0 
L 2422 1988 
L 2294 2553 
L 1622 0 
L 1034 0 
z
" transform="scale(0.015625)"/>
      <path id="ArialMT-64" d="M 2575 0 
L 2575 419 
Q 2259 -75 1647 -75 
Q 1250 -75 917 144 
Q 584 363 401 755 
Q 219 1147 219 1656 
Q 219 2153 384 2558 
Q 550 2963 881 3178 
Q 1213 3394 1622 3394 
Q 1922 3394 2156 3267 
Q 2391 3141 2538 2938 
L 2538 4581 
L 3097 4581 
L 3097 0 
L 2575 0 
z
M 797 1656 
Q 797 1019 1065 703 
Q 1334 388 1700 388 
Q 2069 388 2326 689 
Q 2584 991 2584 1609 
Q 2584 2291 2321 2609 
Q 2059 2928 1675 2928 
Q 1300 2928 1048 2622 
Q 797 2316 797 1656 
z
" transform="scale(0.015625)"/>
     </defs>
     <use xlink:href="#ArialMT-28"/>
     <use xlink:href="#ArialMT-43" x="33.300781"/>
     <use xlink:href="#ArialMT-29" x="105.517578"/>
     <use xlink:href="#ArialMT-20" x="138.818359"/>
     <use xlink:href="#ArialMT-6f" x="166.601562"/>
     <use xlink:href="#ArialMT-63" x="222.216797"/>
     <use xlink:href="#ArialMT-63" x="272.216797"/>
     <use xlink:href="#ArialMT-75" x="322.216797"/>
     <use xlink:href="#ArialMT-70" x="377.832031"/>
     <use xlink:href="#ArialMT-73" x="433.447266"/>
     <use xlink:href="#ArialMT-20" x="483.447266"/>
     <use xlink:href="#ArialMT-70" x="511.230469"/>
     <use xlink:href="#ArialMT-65" x="566.845703"/>
     <use xlink:href="#ArialMT-72" x="622.460938"/>
     <use xlink:href="#ArialMT-20" x="655.761719"/>
     <use xlink:href="#ArialMT-31" x="683.544922"/>
     <use xlink:href="#ArialMT-30" x="739.160156"/>
     <use xlink:href="#ArialMT-30" x="794.775391"/>
     <use xlink:href="#ArialMT-30" x="850.390625"/>
     <use xlink:href="#ArialMT-20" x="906.005859"/>
     <use xlink:href="#ArialMT-77" x="933.789062"/>
     <use xlink:href="#ArialMT-6f" x="1006.005859"/>
     <use xlink:href="#ArialMT-72" x="1061.621094"/>
     <use xlink:href="#ArialMT-64" x="1094.921875"/>
     <use xlink:href="#ArialMT-73" x="1150.537109"/>
    </g>
   </g>
  </g>
  <g id="axes_4">
   <g id="patch_24">
    <path d="M 226.35375 176.849128 
L 365.76 176.849128 
L 365.76 127.899755 
L 226.35375 127.899755 
z
" style="fill: #ffffff"/>
   </g>
   <g id="matplotlib.axis_7">
    <g id="xtick_13">
     <g id="line2d_19"/>
     <g id="text_26">
      <!-- 0 -->
      <g style="fill: #262626" transform="translate(239.673118 186.075378)scale(0.08 -0.08)">
       <use xlink:href="#ArialMT-30"/>
      </g>
     </g>
    </g>
    <g id="xtick_14">
     <g id="line2d_20"/>
     <g id="text_27">
      <!-- 100 -->
      <g style="fill: #262626" transform="translate(271.330623 186.075378)scale(0.08 -0.08)">
       <use xlink:href="#ArialMT-31"/>
       <use xlink:href="#ArialMT-30" x="55.615234"/>
       <use xlink:href="#ArialMT-30" x="111.230469"/>
      </g>
     </g>
    </g>
    <g id="xtick_15">
     <g id="line2d_21"/>
     <g id="text_28">
      <!-- 200 -->
      <g style="fill: #262626" transform="translate(307.436877 186.075378)scale(0.08 -0.08)">
       <use xlink:href="#ArialMT-32"/>
       <use xlink:href="#ArialMT-30" x="55.615234"/>
       <use xlink:href="#ArialMT-30" x="111.230469"/>
      </g>
     </g>
    </g>
    <g id="xtick_16">
     <g id="line2d_22"/>
     <g id="text_29">
      <!-- 300 -->
      <g style="fill: #262626" transform="translate(343.543132 186.075378)scale(0.08 -0.08)">
       <use xlink:href="#ArialMT-33"/>
       <use xlink:href="#ArialMT-30" x="55.615234"/>
       <use xlink:href="#ArialMT-30" x="111.230469"/>
      </g>
     </g>
    </g>
   </g>
   <g id="matplotlib.axis_8">
    <g id="ytick_7">
     <g id="line2d_23"/>
     <g id="text_30">
      <!-- 50 -->
      <g style="fill: #262626" transform="translate(213.95625 176.818117)scale(0.08 -0.08)">
       <use xlink:href="#ArialMT-35"/>
       <use xlink:href="#ArialMT-30" x="55.615234"/>
      </g>
     </g>
    </g>
    <g id="ytick_8">
     <g id="line2d_24"/>
     <g id="text_31">
      <!-- 100 -->
      <g style="fill: #262626" transform="translate(209.5075 160.089008)scale(0.08 -0.08)">
       <use xlink:href="#ArialMT-31"/>
       <use xlink:href="#ArialMT-30" x="55.615234"/>
       <use xlink:href="#ArialMT-30" x="111.230469"/>
      </g>
     </g>
    </g>
    <g id="ytick_9">
     <g id="line2d_25"/>
     <g id="text_32">
      <!-- 150 -->
      <g style="fill: #262626" transform="translate(209.5075 143.359899)scale(0.08 -0.08)">
       <use xlink:href="#ArialMT-31"/>
       <use xlink:href="#ArialMT-35" x="55.615234"/>
       <use xlink:href="#ArialMT-30" x="111.230469"/>
      </g>
     </g>
    </g>
    <g id="text_33">
     <!-- unique occups -->
     <g style="fill: #262626" transform="translate(203.9175 178.169441)rotate(-90)scale(0.08 -0.08)">
      <defs>
       <path id="ArialMT-71" d="M 2538 -1272 
L 2538 353 
Q 2406 169 2170 47 
Q 1934 -75 1669 -75 
Q 1078 -75 651 397 
Q 225 869 225 1691 
Q 225 2191 398 2587 
Q 572 2984 901 3189 
Q 1231 3394 1625 3394 
Q 2241 3394 2594 2875 
L 2594 3319 
L 3100 3319 
L 3100 -1272 
L 2538 -1272 
z
M 803 1669 
Q 803 1028 1072 708 
Q 1341 388 1716 388 
Q 2075 388 2334 692 
Q 2594 997 2594 1619 
Q 2594 2281 2320 2615 
Q 2047 2950 1678 2950 
Q 1313 2950 1058 2639 
Q 803 2328 803 1669 
z
" transform="scale(0.015625)"/>
      </defs>
      <use xlink:href="#ArialMT-75"/>
      <use xlink:href="#ArialMT-6e" x="55.615234"/>
      <use xlink:href="#ArialMT-69" x="111.230469"/>
      <use xlink:href="#ArialMT-71" x="133.447266"/>
      <use xlink:href="#ArialMT-75" x="189.0625"/>
      <use xlink:href="#ArialMT-65" x="244.677734"/>
      <use xlink:href="#ArialMT-20" x="300.292969"/>
      <use xlink:href="#ArialMT-6f" x="328.076172"/>
      <use xlink:href="#ArialMT-63" x="383.691406"/>
      <use xlink:href="#ArialMT-63" x="433.691406"/>
      <use xlink:href="#ArialMT-75" x="483.691406"/>
      <use xlink:href="#ArialMT-70" x="539.306641"/>
      <use xlink:href="#ArialMT-73" x="594.921875"/>
     </g>
    </g>
   </g>
   <g id="patch_25">
    <path d="M 232.690398 167.59793 
L 251.104588 136.81637 
L 269.157715 148.861328 
L 287.210843 146.519253 
L 305.26397 144.51176 
L 323.317097 154.549225 
L 341.370225 168.936259 
L 359.423352 174.624156 
L 359.423352 168.936259 
L 341.370225 161.240869 
L 323.317097 146.519253 
L 305.26397 137.485534 
L 287.210843 140.496774 
L 269.157715 139.158445 
L 251.104588 130.124727 
L 232.690398 161.910033 
z
" clip-path="url(#p6b027e639d)" style="fill: #808080; opacity: 0.5; stroke: #808080; stroke-linejoin: miter"/>
   </g>
   <g id="patch_26">
    <path d="M 232.690398 166.594184 
L 251.104588 135.812624 
L 269.157715 147.857582 
L 287.210843 145.850089 
L 305.26397 143.173431 
L 323.317097 153.545479 
L 341.370225 167.932513 
L 359.423352 173.62041 
L 359.423352 169.605423 
L 341.370225 162.579198 
L 323.317097 148.192164 
L 305.26397 138.154699 
L 287.210843 140.831356 
L 269.157715 141.835103 
L 251.104588 131.797637 
L 232.690398 162.579198 
z
" clip-path="url(#p6b027e639d)" style="fill: #0000ff; opacity: 0.8; stroke: #0000ff; stroke-linejoin: miter"/>
   </g>
   <g id="patch_27">
    <path d="M 226.35375 176.849128 
L 226.35375 127.899755 
" style="fill: none; stroke: #262626; stroke-width: 1.25; stroke-linejoin: miter; stroke-linecap: square"/>
   </g>
   <g id="patch_28">
    <path d="M 365.76 176.849128 
L 365.76 127.899755 
" style="fill: none; stroke: #262626; stroke-width: 1.25; stroke-linejoin: miter; stroke-linecap: square"/>
   </g>
   <g id="patch_29">
    <path d="M 226.35375 176.849128 
L 365.76 176.849128 
" style="fill: none; stroke: #262626; stroke-width: 1.25; stroke-linejoin: miter; stroke-linecap: square"/>
   </g>
   <g id="patch_30">
    <path d="M 226.35375 127.899755 
L 365.76 127.899755 
" style="fill: none; stroke: #262626; stroke-width: 1.25; stroke-linejoin: miter; stroke-linecap: square"/>
   </g>
   <g id="text_34">
    <!-- (D) unique occups -->
    <g style="fill: #262626" transform="translate(257.106375 121.899755)scale(0.096 -0.096)">
     <defs>
      <path id="ArialMT-44" d="M 494 0 
L 494 4581 
L 2072 4581 
Q 2606 4581 2888 4516 
Q 3281 4425 3559 4188 
Q 3922 3881 4101 3404 
Q 4281 2928 4281 2316 
Q 4281 1794 4159 1391 
Q 4038 988 3847 723 
Q 3656 459 3429 307 
Q 3203 156 2883 78 
Q 2563 0 2147 0 
L 494 0 
z
M 1100 541 
L 2078 541 
Q 2531 541 2789 625 
Q 3047 709 3200 863 
Q 3416 1078 3536 1442 
Q 3656 1806 3656 2325 
Q 3656 3044 3420 3430 
Q 3184 3816 2847 3947 
Q 2603 4041 2063 4041 
L 1100 4041 
L 1100 541 
z
" transform="scale(0.015625)"/>
     </defs>
     <use xlink:href="#ArialMT-28"/>
     <use xlink:href="#ArialMT-44" x="33.300781"/>
     <use xlink:href="#ArialMT-29" x="105.517578"/>
     <use xlink:href="#ArialMT-20" x="138.818359"/>
     <use xlink:href="#ArialMT-75" x="166.601562"/>
     <use xlink:href="#ArialMT-6e" x="222.216797"/>
     <use xlink:href="#ArialMT-69" x="277.832031"/>
     <use xlink:href="#ArialMT-71" x="300.048828"/>
     <use xlink:href="#ArialMT-75" x="355.664062"/>
     <use xlink:href="#ArialMT-65" x="411.279297"/>
     <use xlink:href="#ArialMT-20" x="466.894531"/>
     <use xlink:href="#ArialMT-6f" x="494.677734"/>
     <use xlink:href="#ArialMT-63" x="550.292969"/>
     <use xlink:href="#ArialMT-63" x="600.292969"/>
     <use xlink:href="#ArialMT-75" x="650.292969"/>
     <use xlink:href="#ArialMT-70" x="705.908203"/>
     <use xlink:href="#ArialMT-73" x="761.523438"/>
    </g>
   </g>
  </g>
  <g id="axes_5">
   <g id="patch_31">
    <path d="M 43.47375 268.54375 
L 182.88 268.54375 
L 182.88 219.594378 
L 43.47375 219.594378 
z
" style="fill: #ffffff"/>
   </g>
   <g id="matplotlib.axis_9">
    <g id="xtick_17">
     <g id="line2d_26"/>
     <g id="text_35">
      <!-- 0 -->
      <g style="fill: #262626" transform="translate(56.793118 277.77)scale(0.08 -0.08)">
       <use xlink:href="#ArialMT-30"/>
      </g>
     </g>
    </g>
    <g id="xtick_18">
     <g id="line2d_27"/>
     <g id="text_36">
      <!-- 100 -->
      <g style="fill: #262626" transform="translate(88.450623 277.77)scale(0.08 -0.08)">
       <use xlink:href="#ArialMT-31"/>
       <use xlink:href="#ArialMT-30" x="55.615234"/>
       <use xlink:href="#ArialMT-30" x="111.230469"/>
      </g>
     </g>
    </g>
    <g id="xtick_19">
     <g id="line2d_28"/>
     <g id="text_37">
      <!-- 200 -->
      <g style="fill: #262626" transform="translate(124.556877 277.77)scale(0.08 -0.08)">
       <use xlink:href="#ArialMT-32"/>
       <use xlink:href="#ArialMT-30" x="55.615234"/>
       <use xlink:href="#ArialMT-30" x="111.230469"/>
      </g>
     </g>
    </g>
    <g id="xtick_20">
     <g id="line2d_29"/>
     <g id="text_38">
      <!-- 300 -->
      <g style="fill: #262626" transform="translate(160.663132 277.77)scale(0.08 -0.08)">
       <use xlink:href="#ArialMT-33"/>
       <use xlink:href="#ArialMT-30" x="55.615234"/>
       <use xlink:href="#ArialMT-30" x="111.230469"/>
      </g>
     </g>
    </g>
   </g>
   <g id="matplotlib.axis_10">
    <g id="ytick_10">
     <g id="line2d_30"/>
     <g id="text_39">
      <!-- 0.004 -->
      <g style="fill: #262626" transform="translate(19.95625 255.189432)scale(0.08 -0.08)">
       <defs>
        <path id="ArialMT-2e" d="M 581 0 
L 581 641 
L 1222 641 
L 1222 0 
L 581 0 
z
" transform="scale(0.015625)"/>
       </defs>
       <use xlink:href="#ArialMT-30"/>
       <use xlink:href="#ArialMT-2e" x="55.615234"/>
       <use xlink:href="#ArialMT-30" x="83.398438"/>
       <use xlink:href="#ArialMT-30" x="139.013672"/>
       <use xlink:href="#ArialMT-34" x="194.628906"/>
      </g>
     </g>
    </g>
    <g id="ytick_11">
     <g id="line2d_31"/>
     <g id="text_40">
      <!-- 0.006 -->
      <g style="fill: #262626" transform="translate(19.95625 224.537284)scale(0.08 -0.08)">
       <defs>
        <path id="ArialMT-36" d="M 3184 3459 
L 2625 3416 
Q 2550 3747 2413 3897 
Q 2184 4138 1850 4138 
Q 1581 4138 1378 3988 
Q 1113 3794 959 3422 
Q 806 3050 800 2363 
Q 1003 2672 1297 2822 
Q 1591 2972 1913 2972 
Q 2475 2972 2870 2558 
Q 3266 2144 3266 1488 
Q 3266 1056 3080 686 
Q 2894 316 2569 119 
Q 2244 -78 1831 -78 
Q 1128 -78 684 439 
Q 241 956 241 2144 
Q 241 3472 731 4075 
Q 1159 4600 1884 4600 
Q 2425 4600 2770 4297 
Q 3116 3994 3184 3459 
z
M 888 1484 
Q 888 1194 1011 928 
Q 1134 663 1356 523 
Q 1578 384 1822 384 
Q 2178 384 2434 671 
Q 2691 959 2691 1453 
Q 2691 1928 2437 2201 
Q 2184 2475 1800 2475 
Q 1419 2475 1153 2201 
Q 888 1928 888 1484 
z
" transform="scale(0.015625)"/>
       </defs>
       <use xlink:href="#ArialMT-30"/>
       <use xlink:href="#ArialMT-2e" x="55.615234"/>
       <use xlink:href="#ArialMT-30" x="83.398438"/>
       <use xlink:href="#ArialMT-30" x="139.013672"/>
       <use xlink:href="#ArialMT-36" x="194.628906"/>
      </g>
     </g>
    </g>
    <g id="text_41">
     <!-- unique occups -->
     <g style="fill: #262626" transform="translate(14.36625 269.864064)rotate(-90)scale(0.08 -0.08)">
      <use xlink:href="#ArialMT-75"/>
      <use xlink:href="#ArialMT-6e" x="55.615234"/>
      <use xlink:href="#ArialMT-69" x="111.230469"/>
      <use xlink:href="#ArialMT-71" x="133.447266"/>
      <use xlink:href="#ArialMT-75" x="189.0625"/>
      <use xlink:href="#ArialMT-65" x="244.677734"/>
      <use xlink:href="#ArialMT-20" x="300.292969"/>
      <use xlink:href="#ArialMT-6f" x="328.076172"/>
      <use xlink:href="#ArialMT-63" x="383.691406"/>
      <use xlink:href="#ArialMT-63" x="433.691406"/>
      <use xlink:href="#ArialMT-75" x="483.691406"/>
      <use xlink:href="#ArialMT-70" x="539.306641"/>
      <use xlink:href="#ArialMT-73" x="594.921875"/>
     </g>
    </g>
   </g>
   <g id="patch_32">
    <path d="M 49.810398 240.482709 
L 68.224588 234.73631 
L 86.277715 251.500515 
L 104.330843 255.980946 
L 122.38397 254.610675 
L 140.437097 260.077607 
L 158.490225 260.933035 
L 176.543352 266.318779 
L 176.543352 247.048942 
L 158.490225 241.147424 
L 140.437097 245.86382 
L 122.38397 245.002526 
L 104.330843 247.439732 
L 86.277715 236.284531 
L 68.224588 223.678938 
L 49.810398 221.819349 
z
" clip-path="url(#p6020993b49)" style="fill: #808080; opacity: 0.5; stroke: #808080; stroke-linejoin: miter"/>
   </g>
   <g id="patch_33">
    <path d="M 49.810398 236.109791 
L 68.224588 233.457243 
L 86.277715 250.076079 
L 104.330843 255.159119 
L 122.38397 253.25017 
L 140.437097 257.613499 
L 158.490225 258.426745 
L 176.543352 264.680842 
L 176.543352 250.619852 
L 158.490225 245.206949 
L 140.437097 249.336102 
L 122.38397 246.488875 
L 104.330843 248.589055 
L 86.277715 240.233213 
L 68.224588 225.894565 
L 49.810398 223.960214 
z
" clip-path="url(#p6020993b49)" style="fill: #0000ff; opacity: 0.8; stroke: #0000ff; stroke-linejoin: miter"/>
   </g>
   <g id="patch_34">
    <path d="M 43.47375 268.54375 
L 43.47375 219.594378 
" style="fill: none; stroke: #262626; stroke-width: 1.25; stroke-linejoin: miter; stroke-linecap: square"/>
   </g>
   <g id="patch_35">
    <path d="M 182.88 268.54375 
L 182.88 219.594378 
" style="fill: none; stroke: #262626; stroke-width: 1.25; stroke-linejoin: miter; stroke-linecap: square"/>
   </g>
   <g id="patch_36">
    <path d="M 43.47375 268.54375 
L 182.88 268.54375 
" style="fill: none; stroke: #262626; stroke-width: 1.25; stroke-linejoin: miter; stroke-linecap: square"/>
   </g>
   <g id="patch_37">
    <path d="M 43.47375 219.594378 
L 182.88 219.594378 
" style="fill: none; stroke: #262626; stroke-width: 1.25; stroke-linejoin: miter; stroke-linecap: square"/>
   </g>
   <g id="text_42">
    <!-- (E) unique occups -->
    <g style="fill: #262626" transform="translate(74.491125 203.293878)scale(0.096 -0.096)">
     <defs>
      <path id="ArialMT-45" d="M 506 0 
L 506 4581 
L 3819 4581 
L 3819 4041 
L 1113 4041 
L 1113 2638 
L 3647 2638 
L 3647 2100 
L 1113 2100 
L 1113 541 
L 3925 541 
L 3925 0 
L 506 0 
z
" transform="scale(0.015625)"/>
     </defs>
     <use xlink:href="#ArialMT-28"/>
     <use xlink:href="#ArialMT-45" x="33.300781"/>
     <use xlink:href="#ArialMT-29" x="100"/>
     <use xlink:href="#ArialMT-20" x="133.300781"/>
     <use xlink:href="#ArialMT-75" x="161.083984"/>
     <use xlink:href="#ArialMT-6e" x="216.699219"/>
     <use xlink:href="#ArialMT-69" x="272.314453"/>
     <use xlink:href="#ArialMT-71" x="294.53125"/>
     <use xlink:href="#ArialMT-75" x="350.146484"/>
     <use xlink:href="#ArialMT-65" x="405.761719"/>
     <use xlink:href="#ArialMT-20" x="461.376953"/>
     <use xlink:href="#ArialMT-6f" x="489.160156"/>
     <use xlink:href="#ArialMT-63" x="544.775391"/>
     <use xlink:href="#ArialMT-63" x="594.775391"/>
     <use xlink:href="#ArialMT-75" x="644.775391"/>
     <use xlink:href="#ArialMT-70" x="700.390625"/>
     <use xlink:href="#ArialMT-73" x="756.005859"/>
    </g>
    <!-- per 1000 unique words -->
    <g style="fill: #262626" transform="translate(64.346625 213.594378)scale(0.096 -0.096)">
     <use xlink:href="#ArialMT-70"/>
     <use xlink:href="#ArialMT-65" x="55.615234"/>
     <use xlink:href="#ArialMT-72" x="111.230469"/>
     <use xlink:href="#ArialMT-20" x="144.53125"/>
     <use xlink:href="#ArialMT-31" x="172.314453"/>
     <use xlink:href="#ArialMT-30" x="227.929688"/>
     <use xlink:href="#ArialMT-30" x="283.544922"/>
     <use xlink:href="#ArialMT-30" x="339.160156"/>
     <use xlink:href="#ArialMT-20" x="394.775391"/>
     <use xlink:href="#ArialMT-75" x="422.558594"/>
     <use xlink:href="#ArialMT-6e" x="478.173828"/>
     <use xlink:href="#ArialMT-69" x="533.789062"/>
     <use xlink:href="#ArialMT-71" x="556.005859"/>
     <use xlink:href="#ArialMT-75" x="611.621094"/>
     <use xlink:href="#ArialMT-65" x="667.236328"/>
     <use xlink:href="#ArialMT-20" x="722.851562"/>
     <use xlink:href="#ArialMT-77" x="750.634766"/>
     <use xlink:href="#ArialMT-6f" x="822.851562"/>
     <use xlink:href="#ArialMT-72" x="878.466797"/>
     <use xlink:href="#ArialMT-64" x="911.767578"/>
     <use xlink:href="#ArialMT-73" x="967.382812"/>
    </g>
   </g>
  </g>
  <g id="axes_6">
   <g id="patch_38">
    <path d="M 226.35375 268.54375 
L 365.76 268.54375 
L 365.76 219.594378 
L 226.35375 219.594378 
z
" style="fill: #ffffff"/>
   </g>
   <g id="matplotlib.axis_11">
    <g id="xtick_21">
     <g id="line2d_32"/>
     <g id="text_43">
      <!-- 0 -->
      <g style="fill: #262626" transform="translate(239.673118 277.77)scale(0.08 -0.08)">
       <use xlink:href="#ArialMT-30"/>
      </g>
     </g>
    </g>
    <g id="xtick_22">
     <g id="line2d_33"/>
     <g id="text_44">
      <!-- 100 -->
      <g style="fill: #262626" transform="translate(271.330623 277.77)scale(0.08 -0.08)">
       <use xlink:href="#ArialMT-31"/>
       <use xlink:href="#ArialMT-30" x="55.615234"/>
       <use xlink:href="#ArialMT-30" x="111.230469"/>
      </g>
     </g>
    </g>
    <g id="xtick_23">
     <g id="line2d_34"/>
     <g id="text_45">
      <!-- 200 -->
      <g style="fill: #262626" transform="translate(307.436877 277.77)scale(0.08 -0.08)">
       <use xlink:href="#ArialMT-32"/>
       <use xlink:href="#ArialMT-30" x="55.615234"/>
       <use xlink:href="#ArialMT-30" x="111.230469"/>
      </g>
     </g>
    </g>
    <g id="xtick_24">
     <g id="line2d_35"/>
     <g id="text_46">
      <!-- 300 -->
      <g style="fill: #262626" transform="translate(343.543132 277.77)scale(0.08 -0.08)">
       <use xlink:href="#ArialMT-33"/>
       <use xlink:href="#ArialMT-30" x="55.615234"/>
       <use xlink:href="#ArialMT-30" x="111.230469"/>
      </g>
     </g>
    </g>
   </g>
   <g id="matplotlib.axis_12">
    <g id="ytick_12">
     <g id="line2d_36"/>
     <g id="text_47">
      <!-- 0.010 -->
      <g style="fill: #262626" transform="translate(202.83625 252.055299)scale(0.08 -0.08)">
       <use xlink:href="#ArialMT-30"/>
       <use xlink:href="#ArialMT-2e" x="55.615234"/>
       <use xlink:href="#ArialMT-30" x="83.398438"/>
       <use xlink:href="#ArialMT-31" x="139.013672"/>
       <use xlink:href="#ArialMT-30" x="194.628906"/>
      </g>
     </g>
    </g>
    <g id="ytick_13">
     <g id="line2d_37"/>
     <g id="text_48">
      <!-- 0.015 -->
      <g style="fill: #262626" transform="translate(202.83625 230.794221)scale(0.08 -0.08)">
       <use xlink:href="#ArialMT-30"/>
       <use xlink:href="#ArialMT-2e" x="55.615234"/>
       <use xlink:href="#ArialMT-30" x="83.398438"/>
       <use xlink:href="#ArialMT-31" x="139.013672"/>
       <use xlink:href="#ArialMT-35" x="194.628906"/>
      </g>
     </g>
    </g>
    <g id="text_49">
     <!-- unique occups -->
     <g style="fill: #262626" transform="translate(197.24625 269.864064)rotate(-90)scale(0.08 -0.08)">
      <use xlink:href="#ArialMT-75"/>
      <use xlink:href="#ArialMT-6e" x="55.615234"/>
      <use xlink:href="#ArialMT-69" x="111.230469"/>
      <use xlink:href="#ArialMT-71" x="133.447266"/>
      <use xlink:href="#ArialMT-75" x="189.0625"/>
      <use xlink:href="#ArialMT-65" x="244.677734"/>
      <use xlink:href="#ArialMT-20" x="300.292969"/>
      <use xlink:href="#ArialMT-6f" x="328.076172"/>
      <use xlink:href="#ArialMT-63" x="383.691406"/>
      <use xlink:href="#ArialMT-63" x="433.691406"/>
      <use xlink:href="#ArialMT-75" x="483.691406"/>
      <use xlink:href="#ArialMT-70" x="539.306641"/>
      <use xlink:href="#ArialMT-73" x="594.921875"/>
     </g>
    </g>
   </g>
   <g id="patch_39">
    <path d="M 232.690398 235.966111 
L 251.104588 258.072722 
L 269.157715 265.247818 
L 287.210843 266.318779 
L 305.26397 265.233925 
L 323.317097 266.259017 
L 341.370225 262.705722 
L 359.423352 265.982313 
L 359.423352 256.696717 
L 341.370225 251.935976 
L 323.317097 260.456744 
L 305.26397 261.121466 
L 287.210843 262.841379 
L 269.157715 258.998442 
L 251.104588 253.761224 
L 232.690398 221.819349 
z
" clip-path="url(#p3c26875bbb)" style="fill: #808080; opacity: 0.5; stroke: #808080; stroke-linejoin: miter"/>
   </g>
   <g id="patch_40">
    <path d="M 232.690398 233.164029 
L 251.104588 257.484547 
L 269.157715 264.724905 
L 287.210843 266.095117 
L 305.26397 264.456537 
L 323.317097 265.47484 
L 341.370225 260.991515 
L 359.423352 264.845786 
L 359.423352 258.576083 
L 341.370225 253.844725 
L 323.317097 261.687564 
L 305.26397 261.31093 
L 287.210843 263.229857 
L 269.157715 260.766924 
L 251.104588 254.767748 
L 232.690398 224.076558 
z
" clip-path="url(#p3c26875bbb)" style="fill: #0000ff; opacity: 0.8; stroke: #0000ff; stroke-linejoin: miter"/>
   </g>
   <g id="patch_41">
    <path d="M 226.35375 268.54375 
L 226.35375 219.594378 
" style="fill: none; stroke: #262626; stroke-width: 1.25; stroke-linejoin: miter; stroke-linecap: square"/>
   </g>
   <g id="patch_42">
    <path d="M 365.76 268.54375 
L 365.76 219.594378 
" style="fill: none; stroke: #262626; stroke-width: 1.25; stroke-linejoin: miter; stroke-linecap: square"/>
   </g>
   <g id="patch_43">
    <path d="M 226.35375 268.54375 
L 365.76 268.54375 
" style="fill: none; stroke: #262626; stroke-width: 1.25; stroke-linejoin: miter; stroke-linecap: square"/>
   </g>
   <g id="patch_44">
    <path d="M 226.35375 219.594378 
L 365.76 219.594378 
" style="fill: none; stroke: #262626; stroke-width: 1.25; stroke-linejoin: miter; stroke-linecap: square"/>
   </g>
   <g id="text_50">
    <!-- (F) unique occups -->
    <g style="fill: #262626" transform="translate(257.641125 203.293878)scale(0.096 -0.096)">
     <defs>
      <path id="ArialMT-46" d="M 525 0 
L 525 4581 
L 3616 4581 
L 3616 4041 
L 1131 4041 
L 1131 2622 
L 3281 2622 
L 3281 2081 
L 1131 2081 
L 1131 0 
L 525 0 
z
" transform="scale(0.015625)"/>
     </defs>
     <use xlink:href="#ArialMT-28"/>
     <use xlink:href="#ArialMT-46" x="33.300781"/>
     <use xlink:href="#ArialMT-29" x="94.384766"/>
     <use xlink:href="#ArialMT-20" x="127.685547"/>
     <use xlink:href="#ArialMT-75" x="155.46875"/>
     <use xlink:href="#ArialMT-6e" x="211.083984"/>
     <use xlink:href="#ArialMT-69" x="266.699219"/>
     <use xlink:href="#ArialMT-71" x="288.916016"/>
     <use xlink:href="#ArialMT-75" x="344.53125"/>
     <use xlink:href="#ArialMT-65" x="400.146484"/>
     <use xlink:href="#ArialMT-20" x="455.761719"/>
     <use xlink:href="#ArialMT-6f" x="483.544922"/>
     <use xlink:href="#ArialMT-63" x="539.160156"/>
     <use xlink:href="#ArialMT-63" x="589.160156"/>
     <use xlink:href="#ArialMT-75" x="639.160156"/>
     <use xlink:href="#ArialMT-70" x="694.775391"/>
     <use xlink:href="#ArialMT-73" x="750.390625"/>
    </g>
    <!-- per 100 inscrs -->
    <g style="fill: #262626" transform="translate(265.911375 213.594378)scale(0.096 -0.096)">
     <use xlink:href="#ArialMT-70"/>
     <use xlink:href="#ArialMT-65" x="55.615234"/>
     <use xlink:href="#ArialMT-72" x="111.230469"/>
     <use xlink:href="#ArialMT-20" x="144.53125"/>
     <use xlink:href="#ArialMT-31" x="172.314453"/>
     <use xlink:href="#ArialMT-30" x="227.929688"/>
     <use xlink:href="#ArialMT-30" x="283.544922"/>
     <use xlink:href="#ArialMT-20" x="339.160156"/>
     <use xlink:href="#ArialMT-69" x="366.943359"/>
     <use xlink:href="#ArialMT-6e" x="389.160156"/>
     <use xlink:href="#ArialMT-73" x="444.775391"/>
     <use xlink:href="#ArialMT-63" x="494.775391"/>
     <use xlink:href="#ArialMT-72" x="544.775391"/>
     <use xlink:href="#ArialMT-73" x="578.076172"/>
    </g>
   </g>
  </g>
 </g>
 <defs>
  <clipPath id="pa8327ecfbe">
   <rect x="43.47375" y="36.205133" width="139.40625" height="48.949372"/>
  </clipPath>
  <clipPath id="p7e4ca522c8">
   <rect x="226.35375" y="36.205133" width="139.40625" height="48.949372"/>
  </clipPath>
  <clipPath id="pede18051f8">
   <rect x="43.47375" y="127.899755" width="139.40625" height="48.949372"/>
  </clipPath>
  <clipPath id="p6b027e639d">
   <rect x="226.35375" y="127.899755" width="139.40625" height="48.949372"/>
  </clipPath>
  <clipPath id="p6020993b49">
   <rect x="43.47375" y="219.594378" width="139.40625" height="48.949372"/>
  </clipPath>
  <clipPath id="p3c26875bbb">
   <rect x="226.35375" y="219.594378" width="139.40625" height="48.949372"/>
  </clipPath>
 </defs>
</svg>
